<svg height="642.826" viewBox="0 0 621.932 642.826" width="621.932" xmlns="http://www.w3.org/2000/svg"><circle cx="310.966" cy="331.86" fill="#fff" r="306.966"/><path d="m310.966 642.826c-83.062 0-161.152-32.346-219.886-91.08s-91.08-136.824-91.08-219.886 32.346-161.153 91.08-219.886 136.824-91.08 219.886-91.08 161.152 32.346 219.886 91.08 91.08 136.824 91.08 219.886-32.346 161.152-91.08 219.886c-58.734 58.733-136.824 91.08-219.886 91.08zm0-613.932c-80.925 0-157.006 31.514-214.229 88.737-57.223 57.222-88.737 133.304-88.737 214.229s31.514 157.007 88.736 214.229 133.304 88.736 214.229 88.736 157.007-31.514 214.229-88.736 88.736-133.304 88.736-214.229-31.514-157.006-88.736-214.229c-57.223-57.223-133.304-88.737-214.229-88.737z" fill="#3375e0"/><path d="m363.817 460.732s-42.159 123.054-77.28 119.937c-35.121-3.116-54.956-131.67-54.956-131.67l5.992-67.527 132.236 11.733z" fill="#fff"/><path d="m287.9 584.73c-.575 0-1.146-.025-1.717-.076-16.609-1.474-31.047-24.333-44.139-69.883-9.311-32.397-14.366-64.838-14.416-65.162-.049-.319-.06-.642-.031-.963l5.992-67.527c.195-2.2 2.129-3.831 4.338-3.631l132.235 11.733c2.201.195 3.826 2.137 3.631 4.338l-5.991 67.527c-.028.321-.096.638-.2.943-.106.31-10.794 31.354-25.664 61.605-20.188 41.072-37.889 61.096-54.037 61.096zm-52.291-135.868c.655 4.089 5.573 33.965 14.143 63.765 15.603 54.254 29.966 63.423 37.139 64.059 7.177.651 22.926-5.86 47.837-56.52 13.683-27.825 23.784-56.368 25.148-60.279l5.594-63.051-124.267-11.026-5.595 63.052zm128.208 11.87h.01z" fill="#3375e0"/><path d="m559.115 500.879c-70.904-37.533-152.237-46.718-200.088-43.857 0 0-43.035 99.706-64.884 114.517-26.416-31.559-29.792-80.597-67.71-121.06-50.058 3.25-121.279 15.671-179.887 37.349 53.422 90.373 151.833 150.998 264.42 150.998 105.631 0 198.793-53.36 254.022-134.589-1.858-1.142-3.806-2.264-5.873-3.358z" fill="#fff"/><path d="m310.966 642.826c-55.044 0-109.13-14.577-156.412-42.154-45.878-26.758-84.417-65.075-111.451-110.808-.604-1.021-.723-2.257-.326-3.375s1.269-2.001 2.381-2.413c62.465-23.105 134.464-34.567 181.016-37.589 1.195-.075 2.36.383 3.178 1.256 21.631 23.083 32.429 49.25 41.955 72.338 6.95 16.842 13.542 32.819 23.441 45.807 17.856-16.922 49.389-84.463 60.606-110.451.598-1.387 1.926-2.318 3.434-2.408 49.108-2.938 131.532 6.907 202.198 44.314 2.041 1.08 4.092 2.253 6.096 3.485.931.572 1.587 1.5 1.816 2.569s.011 2.184-.604 3.087c-58.044 85.372-154.243 136.34-257.329 136.34zm-258.489-152.9c26.194 42.738 62.794 78.573 106.107 103.836 46.06 26.864 98.752 41.064 152.381 41.064 99.013 0 191.5-48.257 248.285-129.319-.664-.371-1.332-.734-2.007-1.092-68.044-36.02-147.197-45.944-195.534-43.533-6.742 15.39-44.393 99.782-65.321 113.969-1.699 1.152-3.994.831-5.312-.744-12.09-14.444-19.412-32.188-27.164-50.974-9.515-23.059-19.346-46.885-39.118-68.535-44.889 3.091-112.585 13.931-172.317 35.328z" fill="#3375e0"/><path d="m290.34 423.11c11.709 2.618 22.752 3.885 32.03 4.31 67.414 3.091 109.771-28.867 128.065-60.22 15.775-27.036 21.911-51.107 23.995-93.34 4.416-89.486-13.411-170.173-135.786-176.212s-148.06 72.5-152.476 161.986c-2.018 40.893 2.459 75.205 15.234 100.472 8.778 17.361 20.479 29.086 34.63 38.738" fill="#fff"/><g fill="#3375e0"><path d="m331.458 431.631c-3.059 0-6.148-.071-9.271-.215-10.721-.491-22.035-2.014-32.719-4.402-2.156-.482-3.513-2.621-3.031-4.776s2.623-3.512 4.776-3.031c10.239 2.289 21.076 3.748 31.34 4.218 30.251 1.387 57.294-4.236 80.366-16.716 18.686-10.107 34.334-24.854 44.061-41.524 15.468-26.511 21.387-49.605 23.455-91.522 2.614-52.978-3.672-90.203-19.784-117.148-20.454-34.206-57.156-52.154-112.204-54.871-55.048-2.711-93.339 11.531-117.061 43.557-18.687 25.228-28.608 61.653-31.222 114.631-2.064 41.823 2.918 74.953 14.809 98.47 7.747 15.323 18.021 26.808 33.313 37.238 1.825 1.245 2.295 3.733 1.051 5.559-1.245 1.825-3.732 2.295-5.559 1.051-16.247-11.081-27.668-23.867-35.945-40.238-12.524-24.77-17.793-59.247-15.66-102.474 2.696-54.629 13.113-92.442 32.784-118.999 25.437-34.34 65.955-49.644 123.884-46.785 57.925 2.858 96.744 22.078 118.676 58.755 16.96 28.364 23.604 67.019 20.908 121.648-2.114 42.833-8.534 67.734-24.535 95.159-10.456 17.92-27.206 33.734-47.165 44.529-21.969 11.883-47.253 17.885-75.267 17.885z"/><path d="m418.111 244.383c-11.297-5.79-22.987-8.305-37.226-10.693-9.129-1.531-9.074-11.882 3.917-16.954 12.21-4.767 35.738 1.403 42.97 12.801 7.545 11.891-.441 19.572-9.661 14.846z"/><path d="m423.507 249.793c-2.326 0-4.8-.61-7.221-1.851-10.334-5.296-21.048-7.79-36.063-10.308-5.488-.92-9.201-4.431-9.69-9.161-.502-4.861 2.6-11.477 12.814-15.464 13.248-5.172 39.305.993 47.802 14.384 5.422 8.546 3.927 15.349.719 18.866-2.13 2.335-5.101 3.533-8.361 3.533zm-28.924-30.638c-3.169 0-6.049.418-8.326 1.307-6 2.343-7.932 5.583-7.765 7.189.154 1.493 2.378 1.98 3.056 2.094 15.789 2.647 27.132 5.309 38.388 11.078 2.51 1.286 4.874 1.305 6.022.045 1.252-1.373 1.255-4.746-1.563-9.188-4.858-7.657-19.004-12.525-29.812-12.525z"/><path d="m295.139 236.18c-12.64 1.176-23.854 5.325-37.151 10.95-8.525 3.606-14.033-5.158-5.792-16.408 7.745-10.574 30.91-17.992 43.129-12.253 12.747 5.987 10.129 16.752-.187 17.712z"/><path d="m254.246 251.954c-3.109 0-5.883-1.257-7.792-3.67-3.033-3.833-3.964-11.08 2.515-19.925 8.404-11.473 33.702-20.252 48.057-13.51 9.162 4.303 11.549 10.846 10.729 15.535-.934 5.336-5.741 9.175-12.246 9.781-11.562 1.076-21.942 4.72-35.963 10.651-1.809.765-3.605 1.139-5.3 1.139zm30.865-31.49c-10.921 0-24.755 5.887-29.688 12.622-3.807 5.197-3.698 8.967-2.696 10.234.932 1.177 3.069.396 3.702.127 14.744-6.237 25.744-10.077 38.338-11.249 2.809-.261 4.813-1.515 5.107-3.193.32-1.831-1.488-4.679-6.25-6.915-2.395-1.125-5.332-1.625-8.514-1.625z"/><ellipse cx="395.828" cy="265.867" rx="9.835" ry="8.261" transform="matrix(.04928558 -.99878473 .99878473 .04928558 110.775 648.109)"/><ellipse cx="287.112" cy="262.991" rx="9.835" ry="8.261" transform="matrix(.04928558 -.99878473 .99878473 .04928558 10.289 536.791)"/></g><path d="m327.648 343.449c-11.798 21.177-53.241 15.553-52.603-11.589z" fill="#fff"/><path d="m302.947 360.325c-3.484 0-6.919-.457-10.115-1.327-13.745-3.744-22.093-14.179-21.786-27.232.028-1.195.589-2.315 1.53-3.053.94-.739 2.161-1.017 3.33-.759l52.602 11.589c1.235.272 2.269 1.112 2.788 2.265s.462 2.484-.154 3.588c-5.793 10.399-17.225 14.93-28.195 14.93zm-23.418-23.381c2.308 9.953 12.097 13.435 15.405 14.335 10.717 2.918 20.093-.109 25.655-5.29l-41.061-9.046z" fill="#3375e0"/><path d="m186.991 248.581c5.737-25.298 17.917-155.516 134.179-151.362 158.17 5.652 142.05 124.798 150.107 167.532 1.699 9.009 24.296 7.338 27.255-8.835 8.288-45.287 11.472-125.893-47.67-170.231-80.833-60.599-195.043-47.581-248.537 1.716-46.973 43.287-52.296 108.661-41.274 157.192 8.472 37.304 25.939 3.987 25.939 3.987z" fill="#3375e0"/><path d="m480.537 274.193c-7.019 0-12.193-3.411-13.19-8.7-1.19-6.312-1.848-13.99-2.61-22.879-2.171-25.34-5.144-60.045-23.965-88.347-22.356-33.617-61.525-50.97-119.744-53.05-43.674-1.566-77.222 16.395-99.718 53.368-18.614 30.592-25.121 66.349-28.616 85.559-.709 3.895-1.269 6.972-1.802 9.322-.077.338-.197.665-.358.973-1.498 2.857-9.483 17.05-19.379 15.753-6.448-.841-11.029-7.617-14.003-20.712-6.157-27.109-6.557-56.326-1.125-82.268 6.641-31.722 21.307-58.217 43.589-78.751 27.695-25.522 70.181-41.24 116.565-43.124 50.274-2.041 98.962 12.571 137.082 41.149 26.927 20.187 43.972 49.546 50.661 87.262 5.877 33.135 2.453 65.54-1.455 86.89-2.104 11.493-12.596 17.531-21.873 17.555h-.058zm-164.782-181.071c1.836 0 3.688.033 5.559.1 32.238 1.152 59.568 7.141 81.231 17.8 18.813 9.257 33.916 22.316 44.888 38.816 19.956 30.007 23.03 65.892 25.275 92.094.743 8.673 1.385 16.164 2.5 22.079.235 1.247 2.524 2.182 5.332 2.182h.034c4.831-.013 12.552-2.952 14.024-10.996 3.789-20.703 7.116-52.091 1.447-84.053-6.323-35.652-22.332-63.328-47.583-82.257-36.649-27.477-83.511-41.524-131.958-39.557-44.518 1.808-85.146 16.757-111.469 41.013-21.032 19.382-34.887 44.45-41.18 74.508-5.201 24.84-4.811 52.845 1.097 78.857 3.03 13.342 6.559 14.462 7.235 14.551 3.042.407 8.312-6.149 11.019-11.084.468-2.15 1.004-5.095 1.617-8.463 3.588-19.72 10.268-56.426 29.652-88.285 23.149-38.045 57.204-57.305 101.28-57.305zm-128.764 155.459h.01z" fill="#3375e0"/><path d="m469.131 267.758c10.189-15.768 30.394-22.713 48.537-15.576 20.692 8.14 30.868 31.512 22.729 52.205-8.14 20.692-31.512 30.868-52.205 22.729-7.303-2.873-13.621-7.741-17.962-13.621-1.099 5.673-2.295 11.176-3.655 16.388" fill="#fff"/><path d="m502.941 333.934c-5.478 0-10.962-1.03-16.213-3.096-5.234-2.059-10.082-5.097-14.165-8.826-.695 3.177-1.396 6.119-2.117 8.881-.559 2.137-2.744 3.421-4.881 2.86-2.137-.558-3.418-2.743-2.86-4.88 1.231-4.716 2.408-9.995 3.599-16.139.302-1.559 1.497-2.791 3.045-3.141 1.55-.347 3.157.25 4.1 1.526 3.956 5.36 9.712 9.719 16.208 12.274 9.013 3.546 18.868 3.369 27.749-.498s15.724-10.96 19.27-19.974c3.545-9.013 3.369-18.868-.498-27.749s-10.96-15.724-19.974-19.27c-16.009-6.296-34.393-.399-43.713 14.024-1.199 1.855-3.675 2.388-5.53 1.188-1.855-1.199-2.388-3.675-1.188-5.53 11.379-17.611 33.819-24.813 53.361-17.127 11.002 4.328 19.66 12.681 24.38 23.521 4.719 10.84 4.935 22.869.607 33.871s-12.681 19.66-23.521 24.379c-5.666 2.467-11.658 3.704-17.657 3.704z" fill="#3375e0"/><path d="m494.059 300.339c-1.391 0-2.742-.726-3.479-2.021-1.093-1.919-.424-4.362 1.496-5.456l23.183-13.208c1.919-1.092 4.362-.424 5.456 1.496s.424 4.362-1.496 5.456l-23.183 13.208c-.625.356-1.305.525-1.976.525z" fill="#3375e0"/><path d="m511.929 307.369c-1.523 0-2.979-.875-3.647-2.353l-12.277-27.156c-.91-2.013-.016-4.383 1.997-5.293 2.013-.911 4.383-.016 5.293 1.997l12.277 27.156c.91 2.013.016 4.383-1.997 5.293-.535.242-1.095.356-1.646.356z" fill="#3375e0"/><path d="m194.4 257.556c-7.55-20.674-31.355-29.133-50.097-23.761-21.375 6.126-33.737 28.42-27.611 49.796 6.126 21.375 28.42 33.737 49.796 27.611 7.544-2.162 15.065-6.112 19.947-11.551.273 4.427.882 9.876 1.71 15.992" fill="#fff"/><path d="m188.141 319.642c-1.971 0-3.688-1.457-3.959-3.464-.416-3.069-.76-5.85-1.036-8.371-4.388 3.072-9.703 5.561-15.555 7.238-11.366 3.256-23.319 1.893-33.658-3.839-10.34-5.733-17.828-15.149-21.085-26.515-6.724-23.461 6.892-48.019 30.354-54.743 19.754-5.662 46.384 2.758 54.957 26.235.758 2.075-.31 4.372-2.385 5.129-2.074.759-4.372-.31-5.129-2.385-5.446-14.913-24.289-27.292-45.238-21.289-19.221 5.509-30.376 25.628-24.867 44.849 2.668 9.311 8.803 17.025 17.274 21.722s18.264 5.814 27.574 3.145c7.494-2.147 14.081-5.93 18.073-10.377 1.078-1.2 2.769-1.637 4.292-1.106 1.522.53 2.578 1.922 2.677 3.531.251 4.057.801 9.193 1.682 15.702.296 2.189-1.238 4.204-3.427 4.5-.182.024-.363.037-.542.037z" fill="#3375e0"/><path d="m165.514 284.043c-.796 0-1.599-.237-2.299-.73l-21.815-15.361c-1.807-1.272-2.24-3.767-.968-5.573 1.272-1.807 3.767-2.24 5.573-.968l21.815 15.361c1.807 1.272 2.24 3.767.968 5.573-.779 1.106-2.017 1.698-3.274 1.698z" fill="#3375e0"/><path d="m147.053 289.334c-.674 0-1.357-.17-1.984-.53-1.917-1.098-2.581-3.542-1.482-5.459l14.814-25.859c1.098-1.917 3.541-2.581 5.459-1.482 1.917 1.098 2.581 3.542 1.482 5.459l-14.814 25.859c-.739 1.29-2.087 2.012-3.475 2.012z" fill="#3375e0"/><path d="m467.035 224.498c11.252-1.781 31.53-8.16 44.954-15.1 3.378-17.755 2.168-39.058-.617-61.577 11.536 17.559 15.838 32.277 18.28 50.856 5.91-4.265 10.85-8.741 14.126-13.152-14.569-54.37-47.166-183.348-207.942-181.505-179.542 2.057-201.256 141.366-200.619 198.792 0 0 36.592 15.507 58.248 13.253 0 0 6.968-37.958 16.332-54.744s237.412-19.123 246.185 6.628c8.774 25.751 11.052 56.549 11.052 56.549z" fill="#a8cffb"/><path d="m467.035 228.498c-.896 0-1.772-.301-2.484-.865-.877-.694-1.423-1.724-1.506-2.839-.022-.303-2.35-30.608-10.849-55.555-.182-.533-2.449-5.335-25.787-9.691-28.557-5.332-77.266-7.855-127.122-6.594-57.367 1.454-83.166 7.13-86.039 10.391-8.913 16.053-15.781 53.071-15.85 53.444-.321 1.746-1.754 3.072-3.52 3.256-22.42 2.339-58.689-12.898-60.222-13.548-1.464-.621-2.421-2.049-2.439-3.639-.234-21.174 2.55-75.488 33.4-122.402 15.714-23.897 36.637-42.781 62.186-56.127 29.949-15.646 66.617-23.824 108.987-24.31 1.147-.013 2.308-.02 3.441-.02 159.069.001 193.235 127.768 207.892 182.555l.518 1.936c.316 1.18.076 2.439-.652 3.42-3.386 4.56-8.432 9.274-14.997 14.011-1.143.824-2.633.987-3.926.429s-2.197-1.755-2.38-3.151c-1.504-11.443-3.662-21.568-8.363-32.282 1.315 17.663.842 31.427-1.404 43.229-.23 1.207-1.001 2.242-2.093 2.806-14.104 7.291-34.944 13.721-46.166 15.497-.208.033-.417.049-.625.049zm-143.222-83.85c25.755 0 51.332.987 72.417 2.895 52.741 4.772 61.522 13.195 63.539 19.115 6.954 20.41 9.875 43.542 10.85 53.095 10.531-2.253 26.15-7.298 37.787-13.027 2.483-14.657 2.164-32.808-1.003-58.414-.228-1.845.845-3.604 2.59-4.246 1.746-.642 3.701.004 4.723 1.558 10.836 16.495 15.355 30.571 17.889 45.699 2.716-2.286 4.987-4.525 6.792-6.697v-.005c-7.232-27.028-19.335-72.266-48.964-109.809-35.585-45.087-87.581-67.561-154.552-66.793-76.257.874-131.63 26.724-164.58 76.831-28.43 43.234-32.049 93.217-32.096 115.261 7.931 3.133 33.54 12.632 50.917 12.164 1.892-9.512 8.083-38.384 16.182-52.903 1.433-2.569 5.795-10.389 72.157-13.655 14.564-.717 29.992-1.068 45.353-1.068zm-110.523 18.621s-.003.005-.004.007c.001-.002.002-.005.004-.007z" fill="#3375e0"/><path d="m184.407 184.36c12.506 6.499 32.545 10.97 56.543 13.793 2.617-18.432 14.741-35.368 32.675-51.389-1.962 20.024-.556 38.625 7.301 54.502 76.596 3.435 169.977-4.697 199.788-15.874-.62-55.905-51.832-134.253-147.497-133.227-100.694 1.081-146.753 70.44-148.81 132.195z" fill="#a8cffb"/><path d="m317.32 206.038c-12.517 0-24.817-.25-36.574-.777-1.455-.065-2.76-.917-3.406-2.222-6.297-12.724-9.069-27.953-8.401-46.329-14.171 14.305-22.057 28.112-24.029 42.005-.306 2.15-2.273 3.662-4.428 3.41-26.214-3.083-45.702-7.867-57.92-14.216-1.367-.71-2.204-2.143-2.153-3.683 2.157-64.765 50.882-134.968 152.765-136.062.633-.006 1.274-.01 1.903-.01 96.663 0 148.995 79.382 149.637 137.192.019 1.684-1.019 3.199-2.596 3.79-26.383 9.891-98.499 16.9-164.798 16.901zm-33.809-8.665c76.994 3.206 163.078-4.969 193.127-14.794-2.264-54.195-51.661-126.424-141.569-126.424-.601 0-1.205.003-1.81.01-44.842.481-82.382 15.048-108.561 42.125-21.411 22.145-34.514 52.498-36.183 83.634 10.875 5.07 27.379 9.031 49.155 11.798 3.521-16.73 14.448-33.11 33.289-49.941 1.229-1.098 3.005-1.33 4.476-.584 1.469.746 2.331 2.317 2.17 3.957-2.005 20.461-.073 36.922 5.906 50.219z" fill="#3375e0"/><path d="m272.165 315.214c-.297 0-.595-.002-.892-.007-15.788-.232-30.541-6.598-41.541-17.925-11-11.328-16.93-26.261-16.698-42.049.479-32.593 27.36-58.743 59.975-58.239 32.591.479 58.717 27.383 58.239 59.974-.232 15.788-6.598 30.541-17.926 41.541-11.114 10.792-25.699 16.705-41.157 16.705zm-51.132-59.864c-.2 13.651 4.927 26.563 14.438 36.358 9.511 9.794 22.268 15.299 35.918 15.5 13.679.201 26.564-4.928 36.359-14.438 9.794-9.511 15.299-22.268 15.5-35.919.414-28.181-22.176-51.444-50.357-51.858-28.146-.391-51.444 22.176-51.858 50.357z" fill="#3375e0"/><path d="m404.581 315.961c-.305 0-.609-.002-.915-.007-15.788-.238-30.539-6.609-41.534-17.941-10.996-11.332-16.92-26.268-16.682-42.056s6.609-30.538 17.941-41.533c11.332-10.996 26.286-16.927 42.055-16.682 15.788.238 30.538 6.609 41.534 17.941s16.92 26.267 16.682 42.055-6.609 30.539-17.941 41.534c-11.113 10.783-25.691 16.689-41.141 16.689zm-.046-110.226c-13.358 0-25.963 5.106-35.572 14.43-9.798 9.507-15.308 22.262-15.513 35.913-.206 13.651 4.917 26.565 14.424 36.364s22.262 15.308 35.913 15.514c13.677.199 26.566-4.917 36.364-14.424 9.798-9.508 15.308-22.262 15.514-35.913s-4.917-26.565-14.424-36.364c-9.508-9.798-22.262-15.308-35.913-15.513-.264-.004-.528-.006-.792-.006zm-55.085 50.282h.01z" fill="#3375e0"/><path d="m349.433 261.236c-.02 0-.04 0-.06 0l-22.185-.326c-2.209-.032-3.974-1.85-3.941-4.058.033-2.209 1.86-3.979 4.058-3.941l22.185.326c2.209.032 3.974 1.85 3.941 4.058-.032 2.189-1.817 3.941-3.999 3.941z" fill="#3375e0"/><path d="m475.155 264.506c-.238 0-.48-.021-.723-.065l-15.487-2.828c-2.173-.397-3.613-2.48-3.216-4.654.396-2.173 2.475-3.615 4.654-3.216l15.487 2.828c2.173.397 3.613 2.48 3.216 4.654-.353 1.93-2.036 3.282-3.931 3.282z" fill="#3375e0"/><path d="m217.034 259.292c-.413 0-.833-.064-1.246-.2l-29.969-9.821c-2.099-.688-3.244-2.948-2.556-5.047.689-2.099 2.947-3.241 5.047-2.556l29.969 9.821c2.099.688 3.244 2.948 2.556 5.047-.553 1.686-2.118 2.755-3.801 2.755z" fill="#3375e0"/><path d="m366.243 433.394s47.576 9.999 53.095 19.051c5.52 9.052-22.477 111.465-28.474 113.231-11.551 3.401-53.96-44.649-50.924-42.837l-28.974 28.547c6.325-46.931 39.475-69.565 55.277-117.991z" fill="#fff"/><path d="m389.515 569.868c-4.695 0-12.822-3.522-30.085-19.946-7.732-7.356-15.711-15.921-19.994-20.973l-25.663 25.285c-1.218 1.202-3.065 1.493-4.595.729-1.53-.765-2.404-2.417-2.176-4.112 3.635-26.968 15.679-45.917 28.43-65.978 9.906-15.586 20.15-31.703 27.008-52.72.633-1.941 2.628-3.094 4.625-2.674 11.558 2.429 49.731 11.114 55.688 20.883 1.105 1.813 4.042 6.629-5.9 48.229-5.305 22.197-12.45 46.607-17.374 59.36-3.445 8.924-5.224 10.895-7.485 11.561-.717.211-1.528.355-2.479.355zm-45.773-48.273c2.139 2.775 10.932 12.757 21.173 22.504 15.752 14.991 22.183 17.351 24.131 17.693 2.592-4.376 9.376-23.554 16.878-52.446 9.069-34.93 10.904-51.897 9.932-54.923-2.423-3.526-20.737-10.59-46.968-16.369-7.118 20.294-17.067 35.946-26.705 51.11-10.151 15.97-19.836 31.208-24.802 50.284l18.977-18.697c.179-.301.389-.566.611-.788 1.334-1.331 3.351-1.558 5.02-.561.837.499 1.455 1.282 1.752 2.192z" fill="#3375e0"/><path d="m278.163 545.842c-10.576-11.06-22.581-31.3-30.715-26.899-8.134 4.402-43.132 41.782-49.68 39.644s-32.231-114.078-32.231-114.078l60.514-26.158c18.559 54.079 45.308 84.736 52.111 127.491z" fill="#fff"/><path d="m198.359 562.676c-.648 0-1.253-.098-1.832-.287-2.897-.946-6.18-2.018-21.204-60.65-7.169-27.978-13.62-56.055-13.684-56.335-.431-1.88.541-3.801 2.312-4.566l60.514-26.158c1.023-.442 2.185-.438 3.204.013 1.02.451 1.805 1.306 2.167 2.36 7.971 23.227 17.287 41.723 26.296 59.609 11.824 23.475 22.035 43.748 25.981 68.552.275 1.728-.605 3.435-2.173 4.212-1.567.777-3.458.445-4.668-.819-2.99-3.127-6.073-6.939-9.055-10.626-4.846-5.991-13.87-17.146-16.865-15.52-2.66 1.439-10.026 8.245-17.149 14.825-20.021 18.496-28.419 25.389-33.844 25.39zm1.75-7.24s0 0 0 0zm-29.925-108.577c9.459 40.915 23.862 97.49 29.195 107.442 5.273-2.454 19.481-15.58 27.395-22.89 9.441-8.722 15.398-14.16 18.771-15.985 8.301-4.491 16.534 4.777 25.187 15.419-4.893-17.128-12.851-32.927-21.744-50.584-8.201-16.283-17.434-34.612-25.288-56.535l-53.515 23.133z" fill="#3375e0"/><path d="m287.294 641.925c-.098 0-.197-.003-.296-.011-2.203-.161-3.858-2.078-3.697-4.281 2.076-28.375 4.33-50.195 6.891-66.708.338-2.183 2.378-3.68 4.566-3.339 2.183.338 3.678 2.383 3.339 4.566-2.527 16.296-4.757 37.906-6.817 66.065-.154 2.104-1.909 3.708-3.985 3.708z" fill="#3375e0"/><path d="m310.966 642.826c-83.062 0-161.152-32.346-219.886-91.08s-91.08-136.824-91.08-219.886c0-2.209 1.791-4 4-4s4 1.791 4 4c0 80.925 31.514 157.007 88.736 214.229s133.304 88.736 214.229 88.736 157.007-31.514 214.229-88.736 88.736-133.304 88.736-214.229c0-2.209 1.791-4 4-4s4 1.791 4 4c0 83.062-32.346 161.152-91.08 219.886-58.734 58.733-136.824 91.08-219.886 91.08z" fill="#3375e0"/></svg>