<svg height="743" viewBox="0 0 742.104 742.104" width="743" xmlns="http://www.w3.org/2000/svg"><circle cx="371.052" cy="371.052" fill="#a8cffb" r="367.052"/><path d="m371.052 742.104c-50.09 0-98.684-9.811-144.432-29.161-44.185-18.688-83.866-45.442-117.942-79.518s-60.829-73.757-79.518-117.942c-19.349-45.747-29.16-94.341-29.16-144.431s9.811-98.684 29.161-144.432c18.689-44.185 45.442-83.866 79.518-117.942s73.757-60.829 117.942-79.518c45.748-19.349 94.341-29.16 144.431-29.16s98.684 9.811 144.432 29.161c44.185 18.689 83.866 45.442 117.942 79.518 34.075 34.076 60.829 73.757 79.518 117.942 19.35 45.748 29.161 94.342 29.161 144.432s-9.811 98.684-29.161 144.432c-18.688 44.185-45.442 83.866-79.518 117.942-34.076 34.075-73.757 60.829-117.942 79.518-45.748 19.35-94.342 29.161-144.432 29.161zm0-734.104c-200.187 0-363.052 162.865-363.052 363.052s162.865 363.052 363.052 363.052 363.052-162.864 363.052-363.052-162.864-363.052-363.052-363.052z" fill="#3375e0"/><path d="m90.614 607.879c67.33 79.648 167.978 130.225 280.438 130.225 94.732 0 181.08-35.891 246.195-94.812-7.275-17.206-17.491-31.659-32.04-39.944-33.836-19.267-128.844-29.782-159.708-28.79l-145.144 6.097s-116.719-1.673-162.748 7.496c-10 1.992-19.061 8.865-26.992 19.729z" fill="#3375e0"/><path d="m371.052 742.104c-109.442 0-212.771-47.982-283.493-131.642-1.191-1.41-1.264-3.451-.176-4.941 8.746-11.979 18.652-19.144 29.441-21.293 45.606-9.085 157.276-7.664 163.475-7.574l145.031-6.092c31.055-.988 126.751 9.321 161.856 29.311 14.022 7.984 25.375 22.069 33.745 41.862.663 1.567.262 3.382-1 4.524-68.304 61.808-156.691 95.846-248.879 95.846zm-275.302-134.367c69.136 80.346 169.292 126.367 275.302 126.367 89.242 0 174.843-32.601 241.375-91.86-7.53-16.762-17.345-28.67-29.199-35.42-33.326-18.977-128.124-29.231-157.601-28.268l-145.104 6.095c-.076.003-.152.003-.225.003-1.164-.019-116.822-1.562-161.91 7.419-8.026 1.599-15.631 6.864-22.638 15.664z" fill="#3375e0"/><path d="m425.498 574.558c2.086 49.657-143.058 55.753-145.144 6.097l-4.485-106.779 145.144-6.097z" fill="#fff"/><path d="m347.998 618.985c-34.902 0-70.521-11.527-71.64-38.163l-4.485-106.779c-.044-1.06.334-2.094 1.052-2.875s1.717-1.245 2.777-1.29l145.144-6.097c2.204-.102 4.072 1.622 4.165 3.829l4.485 106.779c1.19 28.334-37.959 42.906-74.837 44.456-2.21.093-4.435.14-6.661.14zm-67.964-141.28 4.317 102.782c.917 21.827 35.895 31.795 69.972 30.366 34.076-1.431 68.092-14.303 67.179-36.126l-4.317-102.782-137.151 5.761z" fill="#3375e0"/><path d="m471.354 658.858c1.632 20.873 3.261 42.453 4.786 63.98 71.394-21.296 133.668-63.736 179.569-120.051-54.655-20.668-158.989-36.617-204.448-37.144 23.394 21.813 17.691 62.482 20.093 93.215z" fill="#fff"/><path d="m476.14 726.838c-.804 0-1.599-.243-2.275-.71-.998-.69-1.629-1.796-1.715-3.007-1.394-19.689-2.958-40.608-4.783-63.95-.537-6.871-.672-14.039-.815-21.627-.493-26.11-1.003-53.11-18.018-68.974-1.208-1.126-1.6-2.88-.986-4.413s2.117-2.531 3.76-2.512c44.411.515 150.401 16.447 205.817 37.402 1.203.455 2.114 1.46 2.448 2.703.334 1.242.05 2.569-.762 3.566-47.35 58.093-110.121 100.058-181.526 121.356-.375.112-.76.167-1.144.167zm-.798-68.292c1.672 21.393 3.127 40.753 4.431 58.999 66.106-20.706 124.423-59.626 169.242-112.943-52.169-18.406-142.374-32.494-188.663-34.677 13.269 18.291 13.759 44.238 14.198 67.467.141 7.467.274 14.521.792 21.154z" fill="#3375e0"/><path d="m75.679 588.985c43.693 59.121 104.71 104.656 175.557 129.111 2.204-22.34 3.569-43.387 3.66-63.036.249-53.56 15.933-94.16 15.933-94.16-32.588-4.323-124.179 2.563-195.151 28.085z" fill="#fff"/><path d="m251.236 722.096c-.439 0-.88-.072-1.305-.219-71.149-24.56-132.517-69.691-177.469-130.515-.751-1.017-.978-2.329-.611-3.539s1.284-2.175 2.474-2.603c73.612-26.472 165.994-32.401 197.03-28.286 1.215.161 2.289.871 2.914 1.925s.732 2.337.292 3.48c-.154.4-15.423 40.606-15.665 92.738-.086 18.438-1.289 39.179-3.68 63.41-.12 1.218-.792 2.314-1.822 2.975-.652.418-1.402.632-2.159.632zm-169.081-131.145c42.64 55.969 99.71 97.902 165.589 121.671 2.042-21.813 3.074-40.693 3.152-57.581.202-43.572 10.322-78.274 14.474-90.699-33.471-2.799-115.349 3.343-183.216 26.608z" fill="#3375e0"/><path d="m423.382 514.132c31.687-8.893 102.779 49.267 114.257 93.976l-66.284 50.75c-5.903-50.51-32.233-79.669-45.856-84.3z" fill="#fff"/><path d="m471.354 662.858c-.527 0-1.058-.104-1.559-.316-1.325-.561-2.247-1.791-2.414-3.219-5.702-48.792-30.931-76.816-43.171-80.977-1.573-.535-2.652-1.986-2.71-3.647l-2.116-60.426c-.064-1.844 1.14-3.493 2.917-3.991 14.116-3.958 32.058 3.844 44.626 11.087 29.913 17.244 66.219 53.155 74.586 85.745.399 1.554-.169 3.195-1.443 4.17l-66.284 50.75c-.71.543-1.567.824-2.432.824zm-41.948-91.008c15.41 7.39 37.991 35.715 44.973 79.655l58.676-44.925c-8.786-28.81-42.05-62.096-70.124-78.28-14.177-8.173-26.582-11.97-35.433-10.911l1.907 54.461z" fill="#3375e0"/><path d="m277.96 512.807 2.394 67.848c-15.056 11.353-25.764 47.443-25.458 74.405l-72.136-20.167c9.489-59.218 41.222-107.15 95.2-122.086z" fill="#fff"/><path d="m254.897 659.06c-.36 0-.722-.048-1.077-.148l-72.136-20.167c-1.958-.547-3.194-2.477-2.873-4.485 10.46-65.282 46.21-110.955 98.083-125.308 1.179-.328 2.444-.096 3.433.629.987.724 1.588 1.861 1.632 3.084l2.394 67.848c.046 1.304-.547 2.549-1.589 3.335-13.033 9.828-24.185 43.083-23.866 71.166.015 1.259-.565 2.451-1.563 3.218-.707.542-1.565.827-2.436.827zm-67.594-27.051 63.667 17.799c.965-25.805 10.715-58.209 25.318-70.996l-2.141-60.684c-45.182 14.668-76.575 55.773-86.843 113.88z" fill="#3375e0"/><path d="m321.207 537.991c14.769 3.742 31.414 5.752 49.969 5.276 69.869-1.791 111.129-38.324 127.591-72.123 14.195-29.145 18.666-54.481 17.544-98.259-2.378-92.76-27.045-174.708-153.898-171.456s-147.289 86.356-144.911 179.116c1.087 42.39 8.177 77.596 23.524 102.582 4.374 7.12 20.334 30.636 37.281 40.874l.332 8.028" fill="#fff"/><g fill="#3375e0"><path d="m365.865 547.336c-15.976 0-31.304-1.834-45.64-5.467-2.142-.542-3.438-2.718-2.895-4.86s2.719-3.438 4.86-2.895c15.24 3.862 31.684 5.595 48.884 5.155 84.626-2.17 116.38-54.033 124.097-69.876 13.931-28.603 18.256-52.929 17.142-96.404-1.409-54.946-10.796-92.928-29.542-119.531-23.805-33.782-63.137-49.482-120.255-48.029-128.13 3.285-143.187 90.315-141.015 175.015 1.123 43.8 8.839 77.644 22.934 100.59.711 1.158 17.625 28.479 35.941 39.544 1.148.694 1.873 1.918 1.928 3.258l.332 8.028c.091 2.208-1.624 4.071-3.831 4.162-2.23.094-4.071-1.624-4.162-3.832l-.246-5.933c-19.207-12.655-36.05-39.854-36.779-41.042-15.051-24.503-22.938-58.708-24.114-104.572-1.451-56.599 6.369-96.433 24.609-125.359 23.58-37.395 64.205-56.32 124.198-57.858 59.989-1.534 101.535 15.28 127 51.418 19.698 27.954 29.549 67.335 31 123.934 1.138 44.374-3.558 70.571-17.946 100.112-9.419 19.34-25.472 36.982-45.199 49.677-24.155 15.544-53.051 23.852-85.885 24.694-1.812.046-3.618.07-5.414.07z"/><path d="m452.446 338.389c-12.116-5.104-24.384-6.795-39.274-8.157-9.547-.873-10.293-11.567 2.73-17.813 12.24-5.87 37.017-1.323 45.37 9.889 8.714 11.696 1.062 20.247-8.826 16.081z"/><path d="m457.379 343.455c-2.081 0-4.284-.452-6.486-1.379-11.1-4.676-22.37-6.422-38.085-7.86-5.673-.519-9.73-3.812-10.591-8.593-.887-4.93 1.789-11.935 11.956-16.811 13.235-6.348 40.53-2.019 50.308 11.106 6.215 8.341 5.215 15.416 2.208 19.254-2.2 2.809-5.553 4.282-9.309 4.282zm-3.38-8.752c2.753 1.16 5.262.978 6.392-.464 1.131-1.443 1.201-4.809-2.325-9.541-7.438-9.982-30.095-13.629-40.434-8.672-6.087 2.919-7.845 6.492-7.541 8.182.293 1.629 2.712 1.975 3.446 2.042 16.498 1.509 28.407 3.376 40.462 8.454z"/><path d="m324.81 339.453c-12.963 2.194-24.223 7.35-37.519 14.189-8.525 4.386-14.892-4.239-7.254-16.497 7.179-11.521 30.528-20.978 43.592-15.999 13.629 5.194 11.76 16.516 1.18 18.306z"/><path d="m282.93 358.803c-2.834 0-5.423-1.073-7.357-3.172-3.393-3.684-4.895-11.031 1.069-20.601 7.763-12.459 33.12-23.449 48.412-17.622 9.72 3.705 12.672 10.211 12.194 15.064-.544 5.518-5.164 9.806-11.771 10.924-11.875 2.01-22.323 6.583-36.356 13.803-2.089 1.075-4.201 1.604-6.19 1.604zm32.245-35.075c-11.681 0-26.767 7.546-31.743 15.532-3.571 5.73-3.137 9.688-1.974 10.95 1.121 1.218 3.348.213 4.003-.125 14.731-7.578 25.785-12.393 38.681-14.576 2.945-.499 4.965-1.999 5.145-3.821.18-1.825-1.567-4.703-7.082-6.804-2.086-.795-4.478-1.156-7.03-1.156zm9.635 15.725h.01z"/><ellipse cx="431.099" cy="362.305" rx="8.556" ry="10.186" transform="matrix(.99967134 -.02563608 .02563608 .99967134 -9.143 11.167)"/><ellipse cx="318.599" cy="367.765" rx="8.556" ry="10.186" transform="matrix(.99967134 -.02563608 .02563608 .99967134 -9.32 8.286)"/></g><path d="m366.652 436.577c-8.835 28.183-54.219 19.666-55.224-7.89z" fill="#fff"/><path d="m341.799 458c-1.717 0-3.476-.118-5.271-.359-13.574-1.825-28.47-11.618-29.098-28.808-.043-1.185.441-2.327 1.322-3.12.881-.792 2.067-1.151 3.241-.986l55.225 7.89c1.162.166 2.192.834 2.818 1.827.625.993.784 2.21.433 3.33-3.968 12.658-14.937 20.227-28.67 20.227zm-25.6-24.59c2.783 9.563 12.461 15.102 21.395 16.303 7.995 1.075 18.209-1.067 23.32-9.915z" fill="#3375e0"/><path d="m178.562 358.034c-22.523-80.685 5.215-175.385 62.698-229.488 4.602-4.331 8.881 28.17 8.881 28.17 37.071-65.208 100.819-23.275 179.576-63.386 13.778 22.794 4.305 36.166 2.008 45.659 56.734 14.703 119.945-26.133 141.154-27.709-2.05 34.078-9.092 66.641-19.276 88.8 0 0 18.198-9.292 20.556-2.951 4.616 12.413 2.821 73.58-10.34 101.497l16.648-.969c2.794 11.472-13.776 34.986-21.182 49.486-18.122 35.483-43.654 36.925-45.496 15.447-1.058-12.339-10.226-76.029-29.719-111.17-58.396-35.034-180.007-36.837-236.218 19.599-35.003 35.143-24.919 57.986-30.467 89.148-7.064 39.678-35.783 8.754-38.823-2.136z" fill="#3375e0"/><path d="m203.147 383.808c-13.208.001-26.343-17.195-28.438-24.699-11.139-39.905-10.673-83.773 1.347-126.862 11.666-41.82 33.849-79.683 62.462-106.613 1.484-1.397 3.461-1.843 5.288-1.191 1.659.591 5.239 1.869 8.683 21.162 21.898-30.528 51.504-32.635 85.335-35.041 26.829-1.908 57.237-4.071 90.077-20.797 1.869-.953 4.154-.298 5.239 1.495 12.282 20.319 7.366 34.292 4.113 43.538-.152.431-.301.855-.446 1.273 37.384 7.828 78.19-8.278 105.517-19.066 13.015-5.138 23.294-9.197 30.258-9.714 1.154-.085 2.283.331 3.105 1.141s1.253 1.936 1.184 3.088c-1.823 30.312-7.503 59.213-15.823 81.103 4.406-1.441 9.309-2.369 12.696-1.049 2.002.779 3.442 2.218 4.164 4.16 4.896 13.168 3.25 68.081-7.95 98.528l10.277-.598c1.939-.117 3.662 1.17 4.119 3.047 2.497 10.252-6.408 25.689-15.02 40.617-2.438 4.225-4.74 8.216-6.485 11.634-11.049 21.634-26.594 33.967-39.6 31.423-7.608-1.489-12.634-8.014-13.444-17.453-.94-10.967-9.689-73.498-28.716-108.63-60.139-35.339-177.698-33.375-230.402 19.541-25.009 25.109-25.98 43.135-27.106 64.006-.394 7.297-.8 14.841-2.256 23.021-3.277 18.408-11.301 22.624-17.456 22.92-.239.011-.481.017-.721.017zm38.279-249.88c-56.239 54.944-80.493 146.075-59.012 223.03 1.708 6.12 13.04 19.246 21.069 18.842 5.882-.282 8.665-9.037 9.963-16.331 1.37-7.696 1.764-14.993 2.144-22.049 1.164-21.572 2.262-41.948 29.427-69.221 26.563-26.67 69.153-42.748 119.925-45.273 45.911-2.285 91.216 7.087 121.185 25.066.603.362 1.1.875 1.44 1.49 20.069 36.179 29.234 101.422 30.207 112.768.291 3.386 1.587 9.224 7.01 10.286 7.461 1.462 20.327-6.432 30.938-27.21 1.839-3.6 4.191-7.677 6.681-11.993 5.825-10.098 13.517-23.431 14.323-31.449l-12.675.737c-1.417.079-2.757-.584-3.547-1.754s-.905-2.668-.304-3.945c12.705-26.951 14.278-85.922 10.354-97.981-2.186-.475-9.257 1.703-15.133 4.703-1.518.774-3.359.503-4.588-.676s-1.577-3.009-.865-4.557c9.49-20.648 16.188-50.417 18.576-82.311-5.912 1.49-14.116 4.729-23.282 8.348-22.911 9.045-54.989 21.707-87.49 21.708-9.048 0-18.124-.98-27.05-3.293-2.114-.548-3.398-2.69-2.884-4.813.459-1.9 1.144-3.845 1.869-5.905 2.884-8.198 6.429-18.275-1.604-33.547-32.943 15.908-63.045 18.049-89.709 19.946-36.069 2.565-64.559 4.592-84.774 40.15-.849 1.494-2.556 2.279-4.245 1.949-1.687-.33-2.974-1.7-3.199-3.403-1.131-8.584-3.093-18.565-4.749-23.311z" fill="#3375e0"/><path d="m510.366 366.994c9.3-17.075 29.628-25.813 48.92-19.85 22.001 6.802 34.323 30.151 27.521 52.153-6.802 22.001-30.151 34.323-52.153 27.521-7.765-2.401-14.668-6.938-19.606-12.674-.695 5.944-1.503 11.72-2.504 17.208" fill="#fff"/><path d="m512.548 435.353c-.238 0-.479-.021-.722-.065-2.173-.396-3.614-2.479-3.217-4.653.906-4.966 1.712-10.513 2.466-16.956.185-1.577 1.284-2.895 2.802-3.36 1.518-.464 3.167.012 4.203 1.215 4.519 5.249 10.825 9.32 17.756 11.462 19.859 6.142 41.011-5.021 47.15-24.881 2.974-9.62 2.024-19.822-2.675-28.728-4.7-8.905-12.586-15.448-22.206-18.421-17.085-5.285-35.686 2.264-44.225 17.941-1.057 1.94-3.486 2.656-5.426 1.6-1.94-1.057-2.656-3.486-1.6-5.426 10.354-19.01 32.901-28.16 53.614-21.758 24.073 7.442 37.604 33.083 30.162 57.156-7.442 24.074-33.083 37.604-57.156 30.162-5.628-1.74-10.926-4.548-15.461-8.146-.481 3.428-.989 6.599-1.532 9.577-.352 1.93-2.036 3.283-3.931 3.283z" fill="#3375e0"/><path d="m538.327 398.579c-1.286 0-2.548-.619-3.321-1.766-1.234-1.833-.75-4.318 1.083-5.552l22.918-15.438c1.832-1.234 4.317-.75 5.552 1.083 1.234 1.833.75 4.318-1.083 5.552l-22.918 15.438c-.686.462-1.462.683-2.231.683z" fill="#3375e0"/><path d="m557.329 404.454c-1.417 0-2.789-.754-3.515-2.085l-14.785-27.094c-1.058-1.939-.344-4.369 1.595-5.427 1.938-1.059 4.369-.345 5.427 1.595l14.785 27.094c1.058 1.939.344 4.369-1.595 5.427-.608.332-1.265.49-1.913.49z" fill="#3375e0"/><path d="m225.844 377.76c-9.4-20.766-34.641-27.656-53.581-20.655-21.6 7.984-32.638 31.967-24.654 53.568 7.984 21.6 31.967 32.638 53.568 24.654 7.624-2.818 15.085-7.48 19.705-13.476.626 4.55 1.677 10.131 3.006 16.383" fill="#fff"/><path d="m223.884 442.235c-1.848 0-3.509-1.289-3.909-3.169-.688-3.233-1.273-6.155-1.763-8.799-4.314 3.57-9.664 6.599-15.649 8.812-23.638 8.737-49.971-3.385-58.707-27.02s3.385-49.97 27.02-58.707c19.903-7.355 47.971-.749 58.611 22.758.911 2.013.018 4.382-1.995 5.293-2.014.91-4.383.018-5.293-1.995-8.742-19.313-32.007-24.667-48.55-18.553-9.445 3.491-16.965 10.451-21.175 19.598-4.209 9.147-4.605 19.386-1.114 28.831 7.207 19.496 28.931 29.496 48.429 22.289 7.597-2.809 14.13-7.243 17.924-12.166.985-1.277 2.641-1.836 4.197-1.424 1.558.415 2.715 1.724 2.935 3.321.574 4.176 1.541 9.441 2.956 16.096.459 2.161-.92 4.285-3.081 4.745-.281.06-.561.088-.836.088z" fill="#3375e0"/><path d="m197.754 407.224c-.698 0-1.405-.183-2.048-.567l-23.721-14.173c-1.896-1.133-2.515-3.589-1.382-5.485s3.589-2.516 5.485-1.382l23.721 14.173c1.896 1.133 2.515 3.589 1.382 5.485-.749 1.253-2.076 1.949-3.438 1.949z" fill="#3375e0"/><path d="m179.1 414.12c-.578 0-1.164-.125-1.72-.391-1.994-.952-2.838-3.339-1.887-5.333l13.294-27.855c.951-1.993 3.339-2.838 5.333-1.887s2.838 3.339 1.887 5.333l-13.294 27.855c-.686 1.438-2.119 2.278-3.613 2.278z" fill="#3375e0"/><path d="m497.914 258.029c-5.215 0-10.316-1.321-15.257-3.96-1.461-.78-2.013-2.598-1.232-4.06.781-1.461 2.599-2.014 4.06-1.232 6.965 3.721 14.335 4.231 21.905 1.52 19.235-6.892 35.424-31.976 43.441-51.362.634-1.532 2.388-2.257 3.919-1.626 1.531.633 2.259 2.388 1.626 3.919-8.487 20.521-25.879 47.163-46.963 54.717-3.879 1.39-7.719 2.084-11.498 2.084z" fill="#fff"/><path d="m234.873 193.55c-.306 0-.617-.047-.923-.146-1.576-.509-2.441-2.2-1.932-3.776.216-.67 5.419-16.62 15.514-34.392.817-1.441 2.648-1.947 4.09-1.127 1.441.818 1.945 2.649 1.127 4.09-9.776 17.212-14.971 33.116-15.022 33.274-.411 1.27-1.588 2.078-2.854 2.078z" fill="#fff"/></svg>