<svg height="569.036" viewBox="0 0 569.036 569.036" width="569.036" xmlns="http://www.w3.org/2000/svg"><circle cx="284.518" cy="284.518" fill="#3375e0" r="280.518"/><path d="m284.518 569.036c-75.998 0-147.446-29.595-201.185-83.333s-83.333-125.187-83.333-201.185 29.595-147.446 83.334-201.184 125.187-83.334 201.184-83.334 147.446 29.595 201.185 83.333 83.333 125.187 83.333 201.185-29.595 147.446-83.333 201.185-125.187 83.333-201.185 83.333zm0-561.036c-152.472 0-276.518 124.046-276.518 276.518s124.045 276.518 276.518 276.518 276.518-124.045 276.518-276.518-124.045-276.518-276.518-276.518z" fill="#3375e0"/><path d="m512.683 447.737c-50.89 71.03-134.13 117.3-228.17 117.3-9.23 0-18.36-.47-27.36-1.32-60.8-5.7-106.35-32.54-106.35-32.54-17.25-9.37-33.41-20.5-48.23-33.14 19.57-20.91 55.82-32.76 60.85-34.82 21.11-8.65 46.71-14.33 64.8-18.08 22.41-4.65 158.69-11.46 158.69-11.46 26.37-.68 76.9-5.07 125.77 14.06z" fill="#fff"/><path d="m284.513 569.037c-9.004 0-18.336-.45-27.736-1.338-60.426-5.666-105.286-31.483-107.942-33.04-17.352-9.431-33.789-20.728-48.858-33.579-.832-.709-1.336-1.728-1.398-2.819s.326-2.16 1.073-2.958c18.141-19.383 49.485-31.027 59.785-34.853 1.121-.417 1.962-.728 2.47-.936 20.528-8.411 44.632-13.968 65.504-18.295 22.455-4.659 153.726-11.26 159.303-11.539 2.905-.076 5.989-.191 9.317-.314 27.565-1.025 73.696-2.741 118.11 14.645 1.149.45 2.027 1.405 2.377 2.588.351 1.184.135 2.462-.584 3.466-25.809 36.023-60.145 65.934-99.295 86.498-40.445 21.244-86.133 32.473-132.126 32.473zm-176.032-71.263c13.749 11.359 28.609 21.402 44.231 29.888.04.022.081.045.12.068.449.264 45.56 26.46 104.694 32.004 9.153.864 18.232 1.303 26.986 1.303 87.22 0 169.745-41.546 221.83-111.405-41.374-14.823-84.094-13.236-110.015-12.271-3.361.125-6.476.241-9.312.313-1.263.064-136.127 6.844-157.981 11.378-20.514 4.252-44.171 9.701-64.096 17.865-.559.229-1.484.574-2.717 1.032-9.304 3.456-36.538 13.574-53.742 29.824z" fill="#3375e0"/><path d="m250.22 528.376c-40.619-18.587-94.237-76.265-24.415-123.972 70.449-48.136 255.453-33.722 225.642 29.198-26.92 56.817-121.796 92.177-172.156 93.604" fill="#fff"/><path d="m250.217 532.377c-.557 0-1.123-.117-1.662-.364-27.197-12.445-57.688-40.107-60.361-71.432-1.891-22.147 10.004-42.159 35.353-59.48 25.998-17.763 70.007-28.721 117.726-29.312 46.305-.566 86.568 8.893 105.08 24.706 12.621 10.781 15.632 24.205 8.708 38.82-12.373 26.115-40.487 50.784-79.163 69.462-32.146 15.525-69.121 25.651-96.494 26.427-2.219.063-4.049-1.677-4.112-3.885s1.677-4.049 3.885-4.112c51.821-1.468 143.285-37.772 168.654-91.318 5.359-11.31 3.176-20.898-6.674-29.312-35.249-30.109-157.835-32.631-213.096 5.129-22.792 15.573-33.522 33.134-31.896 52.194 2.294 26.878 29.767 52.962 55.719 64.838 2.009.919 2.892 3.292 1.973 5.302-.672 1.469-2.123 2.336-3.64 2.336z" fill="#3375e0"/><path d="m251.772 454.135c-7.831 14.78 2.528 55.123 22.788 54.151 28.257-1.356 86.761-22.795 102.427-64.625l-7.959-95.153-125.215 10.474z" fill="#fff"/><path d="m273.86 512.303c-7.488 0-14.482-4.545-19.779-12.888-8.661-13.64-11.499-34.707-6.386-46.042l-7.868-94.058c-.088-1.057.247-2.106.932-2.917s1.664-1.314 2.721-1.403l125.215-10.474c2.203-.176 4.136 1.452 4.319 3.653l7.959 95.153c.049.589-.033 1.183-.24 1.736-9.196 24.553-31.37 40.533-48.352 49.615-18.516 9.902-41.137 16.812-57.63 17.603-.298.014-.595.021-.892.021zm-25.728-149.669 7.626 91.167c.063.764-.093 1.529-.452 2.207-4.434 8.367-1.696 27.744 5.527 39.119 2.758 4.344 7.331 9.466 13.534 9.164 25.843-1.24 82.843-21.039 98.557-61.206l-7.55-90.257-117.243 9.807z" fill="#3375e0"/><path d="m316.773 94.247c-39.827-24.454-125.769-25.929-171.733 34.371-46.76 61.344-18.113 105.312-43.938 131.503-20.731 21.025-72.257 84.805-14.332 119.383-6.596-23.063 1.27-46.243 14.245-58.141 0 0 1.69 60.988 44.645 58.094 108.155-7.289 131.729-164.96 109.993-255.215l61.12-29.994z" fill="#a8cffb"/><path d="m142.727 383.556c-9.948 0-18.563-3.254-25.648-9.696-12.893-11.722-17.515-31.205-19.162-42.833-7.837 11.262-12.628 28.754-7.302 47.377.451 1.578-.106 3.271-1.407 4.271-1.3 1-3.079 1.105-4.489.264-16.654-9.942-26.133-23.077-28.173-39.042-4.649-36.376 30.748-75.469 41.708-86.584 10.049-10.191 11.032-23.786 12.276-40.997 1.744-24.13 3.916-54.161 31.329-90.123 21.19-27.799 53.452-45.737 90.842-50.511 31.396-4.008 64.412 1.8 86.165 15.156 1.243.763 1.972 2.141 1.903 3.598-.069 1.456-.925 2.76-2.233 3.402l-58.265 28.593c7.158 31.728 8.674 70.225 4.137 106.218-3.721 29.518-13.243 71.628-37.476 104.614-20.886 28.431-48.14 43.97-81.003 46.185-1.082.073-2.149.109-3.202.109zm-41.711-66.193c.526 0 1.056.104 1.559.316 1.442.611 2.396 2.007 2.439 3.573.009.314 1.111 31.856 17.464 46.704 6.246 5.671 13.741 8.128 22.914 7.509 30.403-2.049 55.668-16.496 75.094-42.939 39.728-54.079 45.767-147.193 31.279-207.349-.438-1.821.445-3.702 2.126-4.527l54.227-26.612c-42.008-20.78-118.534-17.26-159.896 37.003-25.968 34.067-28.044 62.779-29.712 85.85-1.309 18.108-2.44 33.746-14.559 46.037-7.345 7.449-43.768 46.313-39.468 79.953 1.369 10.71 6.872 19.991 16.394 27.686-2.755-22.23 6.414-42.046 17.436-52.153.752-.689 1.721-1.052 2.705-1.052z" fill="#3375e0"/><path d="m370.829 364.261c21.783-26.317 36.648-59.282 42.457-97.886 14.94-99.28-107.059-207.19-203.656-141.583-70.745 48.049-98.236 172.572-77.178 235.999 19.637 59.145 87.825 83.472 149.001 63.328 8.435-2.778 16.583-6.03 24.411-9.742" fill="#fff"/><path d="m238.309 435.131c-16.749 0-33.194-3.083-48.431-9.233-29.804-12.028-51.546-34.703-61.223-63.846-10.696-32.217-9.119-80.552 4.118-126.142 14.868-51.209 41.364-91.847 74.609-114.427 21.565-14.647 45.146-21.605 70.116-20.677 22.383.831 45.27 8.229 66.187 21.395 51.279 32.276 81.526 91.808 73.556 144.77-5.796 38.514-20.375 72.105-43.331 99.841-1.408 1.702-3.93 1.94-5.632.531s-1.939-3.93-.531-5.632c22.017-26.599 36.007-58.875 41.583-95.931 7.512-49.916-21.235-106.174-69.907-136.809-42.493-26.745-88.982-27.063-127.546-.87-31.708 21.535-57.072 60.614-71.421 110.039-12.808 44.117-14.42 90.631-4.208 121.391 18.157 54.688 81.389 81.39 143.954 60.789 8.239-2.713 16.296-5.928 23.948-9.557 1.996-.947 4.381-.096 5.328 1.9.946 1.996.096 4.381-1.9 5.328-7.951 3.771-16.32 7.111-24.874 9.927-14.615 4.812-29.624 7.212-44.396 7.212z" fill="#3375e0"/><path d="m255.652 124.241 61.12-29.994c-39.827-24.454-122.603-25.695-168.331 30.124" fill="#a8cffb"/><path d="m148.44 128.371c-.892 0-1.789-.296-2.532-.906-1.709-1.4-1.959-3.92-.56-5.629 21.209-25.89 52.822-42.441 89.015-46.604 31.159-3.587 62.75 2.249 84.502 15.605 1.243.763 1.972 2.141 1.903 3.598-.069 1.456-.925 2.76-2.233 3.402l-61.12 29.995c-1.983.974-4.38.155-5.353-1.829-.973-1.983-.155-4.38 1.829-5.353l54.218-26.607c-19.729-9.712-46.852-13.853-72.832-10.863-34.117 3.924-63.856 19.453-83.741 43.726-.791.965-1.939 1.465-3.097 1.465z" fill="#3375e0"/><path d="m376.25 304.427c-15.217.693-8.375-27.423-24.361-56.521s-48.954-107.195-96.237-123.665c0 0 27.011-21.623 61.12-29.994 17.555-4.309 89.557-10.934 119.927 45.827 39.279 73.411 12.139 100.182 44.245 145.819 47.223 67.126 4.875 145.556-60.622 129.166 0 0-58.638 28.758-86.878-2.302 32.572-11.884 36.551-35.275 37.99-55.424 2.47-34.586 4.816-52.906 4.816-52.906z" fill="#a8cffb"/><path d="m370.566 431.258c-14.476 0-29.208-3.851-40.081-15.809-.896-.986-1.243-2.354-.924-3.647s1.261-2.344 2.513-2.801c29.998-10.945 33.922-31.666 35.371-51.951 1.798-25.18 3.551-41.921 4.366-49.119-7.871-2.305-9.835-12.105-12.061-23.196-2.001-9.977-4.493-22.393-11.365-34.902-2.401-4.371-5.126-9.727-8.282-15.928-17.583-34.554-47.012-92.387-85.765-105.885-1.375-.479-2.38-1.667-2.626-3.101-.246-1.435.306-2.89 1.442-3.799 1.131-.905 28.097-22.272 62.667-30.757 9.62-2.361 32.433-5.021 56.912-.022 30.771 6.285 54.11 22.83 67.496 47.847 20.748 38.778 23.274 64.514 25.502 87.221 2.033 20.716 3.639 37.078 18.487 58.184 12.847 18.261 20.031 38.548 20.777 58.668.686 18.501-4.223 36.394-13.822 50.38-12.735 18.557-32.005 28.607-53.587 28.609-5.485 0-11.113-.648-16.828-1.971-5.673 2.61-27.618 11.979-50.19 11.979zm-29.85-17.153c27.264 21.684 77.317-2.379 77.847-2.638.847-.415 1.815-.519 2.731-.288 25.357 6.346 49.014-2.276 63.281-23.065 19.016-27.708 16.307-66.928-6.902-99.918-16.061-22.83-17.842-40.984-19.906-62.006-2.155-21.963-4.599-46.856-24.594-84.228-27.859-52.069-94.353-49.008-115.447-43.83-23.893 5.864-44.444 18.582-53.949 25.14 38.293 18.25 66.324 73.341 83.455 107.004 3.125 6.141 5.824 11.445 8.164 15.704 7.463 13.585 10.088 26.668 12.197 37.181 2.763 13.769 4.132 17.489 8.476 17.271 1.188-.051 2.324.417 3.124 1.286s1.176 2.047 1.026 3.219c-.023.182-2.364 18.636-4.795 52.683-1.066 14.939-3.002 42.035-34.708 56.487z" fill="#3375e0"/><path d="m364.008 312.146c8.286-15.338 26.485-23.236 43.8-17.948 19.747 6.031 30.867 26.928 24.836 46.675s-26.928 30.867-46.675 24.836c-6.97-2.128-12.864-6.109-17.31-11.237" fill="#fff"/><path d="m396.865 371.344c-3.994 0-8.052-.583-12.065-1.809-7.455-2.277-14.081-6.579-19.164-12.442-1.447-1.669-1.267-4.195.402-5.643 1.671-1.447 4.196-1.266 5.643.402 4.096 4.726 9.441 8.194 15.456 10.031 17.61 5.378 36.305-4.573 41.681-22.179 2.605-8.529 1.732-17.562-2.457-25.434-4.189-7.873-11.193-13.643-19.722-16.247-15.146-4.626-31.597 2.112-39.112 16.023-1.049 1.944-3.477 2.668-5.42 1.618s-2.668-3.477-1.618-5.42c9.318-17.249 29.708-25.606 48.487-19.872 21.825 6.666 34.159 29.844 27.494 51.669-5.44 17.812-21.879 29.301-39.604 29.302z" fill="#3375e0"/><path d="m276.585 276.406c-10.097-6.083-20.767-9.157-33.805-12.275-8.36-1.999-7.65-11.585 4.707-15.457 11.614-3.639 33.018 3.573 38.993 14.593 6.233 11.496-1.654 18.103-9.895 13.139z" fill="#a8cffb"/><path d="m282.07 282.076c-2.452 0-5.059-.745-7.548-2.245-9.205-5.544-18.949-8.529-32.671-11.811-5.156-1.233-8.457-4.823-8.613-9.37-.16-4.641 3.185-10.701 13.054-13.794 12.973-4.067 36.497 3.208 43.706 16.504 4.556 8.404 2.684 14.739-.588 17.865-1.982 1.895-4.561 2.85-7.338 2.85zm-27.737-30.334c-2.102 0-4.025.24-5.65.749-5.516 1.729-7.498 4.527-7.451 5.884.042 1.191 1.908 1.729 2.479 1.866 14.486 3.464 24.847 6.659 34.939 12.739 2.098 1.264 4.199 1.45 5.231.463 1.169-1.117 1.338-4.107-.918-8.269-4.255-7.849-18.49-13.432-28.63-13.432z" fill="#3375e0"/><path d="m188.601 253.404c-11.635-1.891-22.683-.777-35.946 1.178-8.504 1.253-11.41-7.908-1.379-16.099 9.428-7.698 31.979-8.963 41.623-.955 10.061 8.354 5.198 17.419-4.299 15.876z" fill="#a8cffb"/><path d="m151.135 258.697c-4.299 0-7.792-2.061-9.377-5.653-1.875-4.248-1.023-11.118 6.988-17.659 10.531-8.598 35.072-10.595 46.708-.934 7.355 6.106 7.973 12.684 6.099 16.803-2.139 4.7-7.474 7.093-13.594 6.099-10.607-1.724-20.762-.87-34.721 1.187-.718.106-1.42.158-2.103.158zm22.769-22.584c-7.809 0-15.889 2.031-20.099 5.468-4.478 3.657-5.277 6.991-4.729 8.233.481 1.09 2.414.895 2.995.81 14.736-2.172 25.543-3.059 37.171-1.169 2.417.394 4.438-.216 5.029-1.516.669-1.472-.285-4.311-3.927-7.334-3.748-3.112-10.001-4.493-16.439-4.493z" fill="#3375e0"/><ellipse cx="250.065" cy="289.967" fill="#3375e0" rx="9.133" ry="7.671" transform="matrix(.15998456 -.98711952 .98711952 .15998456 -76.173 490.421)"/><ellipse cx="170.306" cy="278.774" fill="#3375e0" rx="9.133" ry="7.671" transform="matrix(.15998456 -.98711952 .98711952 .15998456 -132.124 402.287)"/><path d="m274.888 339.238c-5.948 12.944-22.485 22.683-41.816 16.75" fill="#fff"/><path d="m244.783 361.808c-4.097 0-8.413-.624-12.885-1.997-2.112-.648-3.298-2.885-2.65-4.998.648-2.112 2.886-3.299 4.998-2.65 17.434 5.351 31.814-3.293 37.008-14.596.923-2.008 3.299-2.886 5.305-1.965 2.007.922 2.887 3.297 1.965 5.305-5.285 11.501-17.844 20.9-33.74 20.9z" fill="#3375e0"/><path d="m407.99 326.628-20.501 13.912" fill="#fff"/><path d="m387.493 344.54c-1.281 0-2.54-.614-3.313-1.754-1.24-1.828-.764-4.315 1.064-5.556l20.501-13.912c1.828-1.24 4.315-.764 5.556 1.064 1.24 1.828.764 4.315-1.064 5.556l-20.501 13.912c-.688.467-1.469.69-2.243.69z" fill="#3375e0"/><path d="m404.545 345.748-13.34-24.246" fill="#fff"/><path d="m404.548 349.749c-1.411 0-2.78-.749-3.508-2.073l-13.339-24.247c-1.065-1.936-.359-4.368 1.576-5.433 1.936-1.065 4.368-.359 5.433 1.576l13.339 24.247c1.065 1.936.359 4.368-1.576 5.433-.612.336-1.273.497-1.925.497z" fill="#3375e0"/><path d="m297.691 140.834c32.121-.98 58.077 32.322 58.279 77.505.149 33.327-51.35 29.841-56.673-4.189-3.276-20.948-15.784-50.237-15.784-50.237s-6.848 33.741-14.252 42.615c-13.131 15.74-70.383.641-74.809-15.747-2.934-10.865 9.257-39.364 9.257-39.364s-28.95 38.437-39.322 43.63c-10.897 5.456-27.1-3.753-21.284-24.769 9.16-33.098 51.984-72.176 76.169-46.613 32.351-13.96 59.891-12.676 78.418 17.169z" fill="#a8cffb"/><g fill="#3375e0"><path d="m332.023 245.583c-16.109 0-33.582-11.019-36.679-30.816-1.883-12.042-6.98-27.118-10.822-37.404-2.776 10.956-7.227 25.779-12.19 31.727-10.016 12.005-35.61 7.499-43.215 5.832-17.083-3.744-35.621-12.338-38.526-23.098-1.308-4.844-.191-12.223 1.677-19.467-9.069 10.981-20.035 23.236-26.089 26.267-6.68 3.344-14.795 2.379-20.676-2.457-7.1-5.839-9.379-15.664-6.254-26.956 6.25-22.584 28.977-50.754 52.845-56.693 10.758-2.675 20.405-.451 28.069 6.431 35.963-14.772 62.079-8.917 79.708 17.869 12.927.203 25.078 5.467 35.271 15.31 15.658 15.12 24.708 39.247 24.828 66.192.068 15.266-9.82 25.924-25.19 27.154-.913.073-1.833.109-2.756.109zm-48.508-85.671c1.587 0 3.043.945 3.677 2.429.519 1.214 12.742 29.992 16.057 51.19 2.557 16.345 17.721 25.021 30.893 23.968 4.201-.336 17.902-2.709 17.829-19.143-.111-24.801-8.27-46.843-22.385-60.473-9.207-8.891-20.191-13.398-31.771-13.051-1.435.044-2.768-.676-3.521-1.888-15.799-25.45-39.134-30.408-73.435-15.605-1.542.664-3.336.296-4.491-.924-5.94-6.279-13.456-8.342-22.342-6.132-18.841 4.688-40.835 28.549-47.066 51.063-2.244 8.108-.922 14.903 3.625 18.643 3.442 2.831 8.157 3.412 12.012 1.482 6.941-3.476 26.942-27.889 37.917-42.46 1.217-1.615 3.449-2.067 5.199-1.055 1.75 1.013 2.469 3.174 1.674 5.034-4.501 10.53-10.944 29.819-9.073 36.749 1.445 5.352 14.002 13.312 32.515 17.37 16.555 3.627 30.765 2.365 35.36-3.143 5.538-6.638 11.552-31.738 13.403-40.849.348-1.716 1.772-3.006 3.514-3.184.136-.014.272-.021.408-.021z"/><path d="m420.324 419.06c-1.578 0-3.073-.939-3.705-2.49-.834-2.045.147-4.38 2.193-5.214 22.587-9.213 27.687-35.485 27.736-35.75.401-2.172 2.485-3.614 4.661-3.206 2.172.401 3.607 2.488 3.206 4.661-.232 1.254-5.988 30.855-32.581 41.702-.495.202-1.006.297-1.509.297z"/><path d="m255.112 497.057c-1.512 0-2.958-.861-3.634-2.324-17.43-37.749-15.204-51.562-14.893-53.013.463-2.16 2.591-3.537 4.75-3.072 2.16.463 3.536 2.59 3.072 4.75-.004.039-1.914 12.793 14.333 47.981.926 2.005.051 4.382-1.955 5.308-.543.251-1.113.37-1.674.37z"/><path d="m284.518 569.036c-75.998 0-147.446-29.595-201.185-83.333s-83.333-125.187-83.333-201.185 29.595-147.446 83.334-201.184 125.187-83.334 201.184-83.334 147.446 29.595 201.185 83.333 83.333 125.187 83.333 201.185-29.595 147.446-83.333 201.185-125.187 83.333-201.185 83.333zm0-561.036c-152.472 0-276.518 124.046-276.518 276.518s124.045 276.518 276.518 276.518 276.518-124.045 276.518-276.518-124.045-276.518-276.518-276.518z"/></g></svg>