<svg xmlns="http://www.w3.org/2000/svg" viewBox="0 0 1800 1800" width="1800" height="1800"><g transform="translate(675.0 1597.0) rotate(0.0 155.5 21.5) scale(0.8871545160729006 0.8959079923326944)"><svg width="350.559" height="47.996" viewBox="0 0 350.559 47.996"><ellipse cx="175.279" cy="23.998" fill="#cbc8ff" rx="175.279" ry="23.998"/></svg></g><g transform="translate(654.0 764.0) rotate(0.0 225.0 445.5) scale(1.0716582124741014 1.0728993569828769)"><svg width="419.91" height="830.46" viewBox="0 0 419.91 830.46"><path d="M269.391 600.44s-.07.31-.23.89c-2.3 8.34-22.73 73.01-105.23 79.96l-.07-.07-.12-.11c-1.54-1.45-12.02-11.44-26.78-27.82l-.07-.07q-3.4-3.78-7.1-8c-6.63-7.6-13.87-16.25-21.4-25.78 36-27 111.46-85.13 111.46-85.13.61.91 9.14 12.01 18.99 24.93 12.69 16.68 27.59 36.39 30.55 41.2z" fill="#ffd6c0"/><path d="M151.293 768.043c43.3.649 125.5-45.824 158.074-116.172l-39.976-51.431c-17.06 25.239-62.213 64.914-105.47 80.845-5.074 9.969-20.227 53.349-12.628 86.758z" fill="#ffa9dc"/><path d="M152.171 769.05c-.3 0-.595 0-.893-.007a1 1 0 0 1-.96-.778c-8.113-35.665 9-80.152 12.712-87.434a1 1 0 0 1 .545-.484c41.611-15.325 86.9-53.7 104.987-80.467a1 1 0 0 1 .8-.439.958.958 0 0 1 .823.385l39.977 51.431a1 1 0 0 1 .117 1.034C277.066 724.008 194.925 769.05 152.171 769.05zm-.074-2h.092c21.842 0 52.99-11.93 81.6-31.3 33.275-22.524 59.68-52.247 74.413-83.75l-38.762-49.868c-18.7 26.882-63.5 64.616-104.8 79.951-5.754 11.604-19.358 53.368-12.54 84.967z" fill="#112c41"/><path d="M231.806 746.131a2.5 2.5 0 0 1-2.433-1.934c-4.307-18.5.449-36.959 15.9-61.74 14.907-23.906 15.572-40.226 2.538-62.368a2.5 2.5 0 1 1 4.309-2.536c13.989 23.764 13.283 42.072-2.6 67.55-18.46 29.6-18.081 45.911-15.275 57.96a2.5 2.5 0 0 1-1.868 3 2.53 2.53 0 0 1-.571.068z" fill="#fff"/><path d="M159.857 788.051a5.164 5.164 0 0 0 3.973 2.228c30.742 2.826 118.561-36.839 157.558-108.989 2.579-4.771 2.129-7.55.324-10.341l-12.345-19.078C276.391 715.44 197.391 765.44 151.293 768.043a55.658 55.658 0 0 0 8.564 20.008z" fill="#fff"/><path d="M167.175 791.424q-1.8 0-3.436-.15a6.187 6.187 0 0 1-4.7-2.646 56.7 56.7 0 0 1-8.722-20.364 1 1 0 0 1 .919-1.219c22.775-1.286 53.968-14.387 83.44-35.044 32.422-22.726 58.632-51.347 73.8-80.591a1 1 0 0 1 .84-.538 1.021 1.021 0 0 1 .888.455l12.344 19.079c2.267 3.5 2.185 6.794-.283 11.359-17.19 31.805-46.4 61.278-82.236 82.991-26.886 16.29-55.454 26.667-72.854 26.668zm-14.638-22.459a54.064 54.064 0 0 0 8.136 18.508 4.165 4.165 0 0 0 3.249 1.81c13.727 1.262 42.264-6.361 75.073-26.238 35.541-21.531 64.49-50.735 81.514-82.231 2.423-4.484 1.936-6.891.363-9.322l-11.415-17.642c-15.427 29-41.511 57.274-73.633 79.789-29.256 20.506-60.269 33.644-83.287 35.326z" fill="#112c41"/><path d="M269.391 600.44s-.07.31-.23.89c-17.52 25.26-62.5 64.22-105.23 79.96l-.07-.07-.12-.11c-1.54-1.45-12.02-11.44-26.78-27.82l-.07-.07q-3.4-3.78-7.1-8c32.22-17.31 79.68-54.48 109.05-85.98 12.69 16.68 27.59 36.39 30.55 41.2z" fill="#fff"/><path d="M163.931 682.29a1 1 0 0 1-.709-.294l-.157-.149c-1.169-1.1-11.774-11.16-26.847-27.887q-3.529-3.908-7.18-8.081a1 1 0 0 1 .279-1.54c32.372-17.391 80.159-55.071 108.792-85.781a.968.968 0 0 1 .782-.316 1 1 0 0 1 .746.393c12.671 16.655 27.6 36.4 30.605 41.281a1 1 0 0 1 .124.744s-.073.327-.241.936a.985.985 0 0 1-.143.3c-18.544 26.737-64.231 65.051-105.706 80.329a1 1 0 0 1-.345.065zm-32.562-36.79a738.703 738.703 0 0 0 6.265 7.048c14.294 15.857 24.515 25.672 26.532 27.586 40.881-15.258 85.728-52.88 104.075-79.236.03-.109.055-.2.077-.289-3.35-5.249-17.363-23.793-29.556-39.824-28.962 30.826-74.69 66.893-107.393 84.715z" fill="#112c41"/><path d="M163.931 682.29a1 1 0 0 1-.709-.294l-.157-.149c-1.169-1.1-11.774-11.16-26.847-27.887q-3.529-3.908-7.18-8.081a693 693 0 0 1-21.432-25.819 1 1 0 0 1 .185-1.42c35.583-26.687 110.7-84.541 111.449-85.122a1 1 0 0 1 1.441.235c.379.565 4.337 5.744 9.349 12.3 2.848 3.727 6.146 8.041 9.606 12.58 12.672 16.656 27.6 36.4 30.606 41.282a1 1 0 0 1 .124.744s-.073.327-.241.936a.985.985 0 0 1-.143.3c-18.544 26.737-64.231 65.051-105.706 80.329a1 1 0 0 1-.345.066zm-54.119-62.666c6.739 8.5 13.71 16.89 20.732 24.939a754.676 754.676 0 0 0 7.09 7.988c14.294 15.857 24.515 25.672 26.532 27.586 40.881-15.258 85.728-52.88 104.075-79.236.03-.109.055-.2.077-.289-3.416-5.352-17.918-24.527-30.273-40.766-3.46-4.538-6.756-8.852-9.6-12.578-4.65-6.083-7.565-9.9-8.792-11.54-8.201 6.311-75.962 58.465-109.841 83.896z" fill="#112c41"/><circle cx="190.15" cy="697.112" fill="#ffe993" r="8.5"/><path d="M190.6 700.029c-12.544 8.767-30.662 11.576-37.069 10.6a2.833 2.833 0 1 1 .858-5.6c4.919.754 22.294-1.791 33.684-10.153a2.832 2.832 0 0 1 3.355 4.564c-.276.196-.553.395-.828.589z" fill="#fff"/><path d="M156.479 711.811a20.88 20.88 0 0 1-3.1-.2 3.833 3.833 0 0 1 1.16-7.577c4.79.735 21.775-1.772 32.941-9.97a3.832 3.832 0 1 1 4.539 6.176c-.278.205-.562.408-.847.607-11.266 7.874-26.572 10.964-34.693 10.964zm-2.522-5.819a1.833 1.833 0 0 0-.277 3.644c6.135.939 24.021-1.813 36.344-10.427q.406-.285.808-.579a1.832 1.832 0 1 0-2.171-2.952c-11.606 8.521-29.39 11.109-34.427 10.335a1.74 1.74 0 0 0-.277-.021z" fill="#112c41"/><circle cx="188.461" cy="723.939" fill="#ffe993" r="8.5"/><path d="M188.757 727.16c-12.489 8.844-32.626 10.843-39.039 9.9a2.833 2.833 0 0 1 .823-5.605c4.923.724 24.32-1.006 35.658-9.438a2.832 2.832 0 1 1 3.383 4.543q-.408.304-.825.6z" fill="#fff"/><path d="M153.183 738.257a26.056 26.056 0 0 1-3.61-.207 3.832 3.832 0 1 1 1.113-7.583c4.525.664 23.627-.856 34.916-9.251a3.832 3.832 0 0 1 4.577 6.147c-.277.207-.56.412-.844.612-11.12 7.875-27.729 10.282-36.152 10.282zm-3.054-5.831a1.833 1.833 0 0 0-.266 3.646c5.794.852 25.7-.793 38.316-9.728.27-.191.539-.387.8-.584a1.832 1.832 0 1 0-2.189-2.938c-11.753 8.74-31.679 10.319-36.4 9.625a1.733 1.733 0 0 0-.261-.021z" fill="#112c41"/><path d="m351.431 636.85-.04.7-1.96 33.31-2.89 49q-6.225 3.315-12.3 5.85c-72.02 30.3-125.45-16.76-125.45-16.76-.21-10.03.5-31.13 1.25-49.98.72-17.81 1.47-33.59 1.52-36.1z" fill="#ffd6c0"/><path d="m351.391 637.55-1.96 33.31-2.89 49c-4.15 2.21-12.15 6.58-15.15 7.58 3-34 8-91 8-91z" fill="#f5b9ab"/><path d="M404.192 785.912c-36.032 24.017-130.3 29.527-195.809-11.928l.409-65.03c28.017 11.96 92.77 20.963 137.756 10.9 9.668 5.626 45.918 33.864 57.644 66.058z" fill="#ffa9dc"/><path d="M404.191 785.91c-3.66 2.44 2.98-.5-1.8 1.53-11.99-32.78-58-41-76-65 3.83-.57 16.55-1.78 20.16-2.59 9.67 5.63 45.92 33.87 57.64 66.06z" fill="#ff90d8"/><path d="M322.273 805.618c-37.422 0-79.554-8.722-114.425-30.789a1 1 0 0 1-.465-.852l.41-65.029a1 1 0 0 1 1.392-.914c26.65 11.377 91.717 21 137.145 10.843a1 1 0 0 1 .721.112c7.062 4.109 45.563 32.214 58.08 66.581a1 1 0 0 1-.385 1.174c-17.026 11.349-47.719 18.874-82.473 18.874zm-112.887-32.184c29.464 18.5 67.786 29.177 107.977 30.066 34.592.764 67.275-6.116 85.614-17.987-11.4-30.247-45.475-57.967-56.6-64.6-45.032 9.94-108.97.729-136.6-10.466z" fill="#112c41"/><path d="M323.3 811.545a2.5 2.5 0 0 1-2.353-1.656c-4.174-11.646-12.7-25.556-44.257-40.424-27.162-12.8-37.68-27.8-38.807-55.352a2.5 2.5 0 1 1 5-.2c1.051 25.671 10.457 39.025 35.943 51.032 26.42 12.447 40.426 25.385 46.833 43.26a2.5 2.5 0 0 1-2.354 3.344z" fill="#fff"/><path d="M407.841 807.367a5.514 5.514 0 0 1-2.131 4.026c-24.3 19.041-113.319 31.047-191.481-6.171-4.9-2.332-5.882-5.19-5.877-8.515l.031-22.723c53.008 31.456 155.295 37.845 195.809 11.928 2.199 5.528 4.199 16.528 3.649 21.455z" fill="#fff"/><path d="M324.779 830.46c-38.673 0-77.877-8.573-110.98-24.336-5.689-2.709-6.452-6.281-6.447-9.418l.031-22.724a1 1 0 0 1 1.51-.858c52.775 31.318 154.705 37.57 194.76 11.946a1 1 0 0 1 1.468.472c2.166 5.445 4.305 16.636 3.714 21.935a6.5 6.5 0 0 1-2.508 4.7c-13.253 10.384-43.139 17.538-76.139 18.224q-2.7.06-5.409.059zm-115.4-54.736-.028 20.985c0 3.049.9 5.51 5.307 7.61 79.871 38.032 167.7 24.1 190.434 6.287a4.506 4.506 0 0 0 1.755-3.35c.474-4.254-1.114-13.987-3.166-19.847-17.2 10.5-44.915 15.506-75.213 15.507-41.687.002-88.26-9.478-119.088-27.192z" fill="#112c41"/><circle cx="333.087" cy="747.372" fill="#ffe993" r="8.5"/><path d="M334.293 750.066c15.294.567 32.041-6.894 36.893-11.193a2.833 2.833 0 1 0-3.757-4.24c-3.724 3.3-19.7 10.581-33.809 9.729a2.832 2.832 0 0 0-.345 5.653c.338.021.679.038 1.018.051z" fill="#fff"/><path d="M335.992 751.1q-.868 0-1.736-.032-.522-.02-1.043-.051a3.832 3.832 0 0 1 .467-7.65c13.822.836 29.459-6.267 33.086-9.479a3.832 3.832 0 0 1 5.083 5.737c-4.808 4.257-20.605 11.475-35.857 11.475zm-1.662-2.031c15.028.56 31.549-6.826 36.193-10.941a1.833 1.833 0 0 0-2.431-2.743c-3.812 3.378-20.158 10.856-34.532 9.978a1.847 1.847 0 0 0-1.941 1.717 1.832 1.832 0 0 0 1.717 1.94q.5.031 1 .049z" fill="#112c41"/><circle cx="349.05" cy="768.999" fill="#ffe993" r="8.5"/><path d="M351.2 771.413c15.3.326 33.1-9.3 37.882-13.678a2.832 2.832 0 1 0-3.822-4.18c-3.672 3.358-20.706 12.8-34.822 12.166a2.832 2.832 0 1 0-.256 5.658c.342.021.683.027 1.018.034z" fill="#fff"/><path d="M351.974 772.422c-.265 0-.527 0-.791-.009-.348-.007-.7-.019-1.043-.035a3.832 3.832 0 0 1 .346-7.656c14.054.617 30.728-8.819 34.1-11.9a3.832 3.832 0 0 1 5.172 5.656c-4.412 4.033-21.965 13.944-37.784 13.944zm-.748-2.009c15.474.351 32.864-9.464 37.185-13.416a1.832 1.832 0 1 0-2.473-2.7c-3.521 3.221-20.9 13.091-35.541 12.427a1.832 1.832 0 1 0-.166 3.66 36.3 36.3 0 0 0 1 .033z" fill="#112c41"/><path d="m349.431 670.86-2.89 49c-44.97 10.06-109.73 1.04-137.75-10.91 0-.16-.01-.32-.01-.48-.15-10.8 1.41-50.82 1.44-51.46l.24.04c41.99 10.93 101.97 16.85 138.97 13.81z" fill="#fff"/><path d="M301.673 725.286c-37.186 0-74.7-7.493-93.275-15.416a1 1 0 0 1-.607-.92l-.01-.48c-.15-10.788 1.424-51.152 1.441-51.507a1 1 0 0 1 .371-.731.984.984 0 0 1 .792-.208l.24.04c41.991 10.925 101.591 16.849 138.724 13.8a.984.984 0 0 1 .781.281 1 1 0 0 1 .3.774l-2.89 49a1 1 0 0 1-.78.917c-14.033 3.139-29.532 4.45-45.087 4.45zm-91.9-17c26.891 11.2 90.791 20.581 135.809 10.766l2.778-47.1c-37.108 2.832-95.588-3-137.193-13.681-.257 6.782-1.506 40.092-1.389 50.01z" fill="#112c41"/><path d="M301.673 725.286c-37.186 0-74.7-7.493-93.275-15.416a1 1 0 0 1-.607-.92l-.01-.48c-.148-8.347.265-24.557 1.26-49.54.359-8.871.725-17.237 1.009-23.712.282-6.455.486-11.12.511-12.368a1 1 0 0 1 1.1-.975l139.87 13.98a1 1 0 0 1 .9 1.052l-.04.7-4.85 82.312a1 1 0 0 1-.78.917c-14.034 3.139-29.533 4.45-45.088 4.45zm-91.9-17c26.89 11.2 90.791 20.581 135.809 10.766l4.79-81.3-137.85-13.778c-.072 2.03-.25 6.092-.479 11.333a6698.52 6698.52 0 0 0-1.008 23.706c-.983 24.771-1.396 40.893-1.257 49.268z" fill="#112c41"/><path d="M385.181 64.7a134.644 134.644 0 0 0-9.96-11.78c-29.29-30.93-68.57-46.8-109.28-50.86q-6.855-.675-13.75-.92c-2.72-.1-5.441-.14-8.16-.14-34.63.05-67.55 9.94-97.35 27.71C60.75 79.98.811 196.9 1 332.84c.091 64.88 17.111 175.57 107.391 286.6 31.66-19.11 79.22-54.79 105.85-76.47-1.17 26.43-2.1 53.26-2.68 79.89 45.25 10.17 98.33 14.95 135.52 14.08 7.08-.16 13.59-.53 19.35-1.11 5.51-.56 8.11-3.61 8.99-8.02.99-5 1.93-23.45 1.96-24 11.18-167.84 40.15-296.79 41.49-403.96.69-54.97-7.61-100.49-33.69-135.15zm-147.79 168.74c-.74 10.46-12.98 123.9-20.55 258.22-24.4-38.06-39.571-73.54-46.45-129.22-8.66-70.16 19.79-148.14 62.07-186.04 4.93 14.04 6.93 29.04 4.93 57.04z" fill="#b2b0f7"/><path d="M232.461 176.4a52.651 52.651 0 0 0-10.07-15.96c-33 12-151 159-6 350 .48-9.63-.08-9.33.45-18.78-24.4-38.06-39.571-73.54-46.45-129.22-8.66-70.16 19.79-148.14 62.07-186.04z" fill="#9797f7"/><path d="M375.216 52.92c33.963 35.863 44.422 85.486 43.653 146.932-1.342 107.166-30.305 236.115-41.485 403.958-.037.549-.973 19-1.966 24-.875 4.407-3.477 7.46-8.989 8.013-36.038 3.615-101-.857-154.865-12.961 3.953-183.409 24.843-375.651 25.827-389.424 2-28 0-43-4.932-57.037a57.364 57.364 0 0 0-11.068-16.963" fill="#b4b3ff"/><path d="M338.031 638.034a613.443 613.443 0 0 1-126.686-14.195 1 1 0 0 1-.781-1c3.409-158.177 19.2-320.719 24.387-374.132.788-8.1 1.308-13.456 1.442-15.341 2.106-29.486-.426-43.965-4.877-56.634a56.772 56.772 0 0 0-10.833-16.588 1 1 0 0 1 1.415-1.414 57.84 57.84 0 0 1 11.287 17.293c4.551 12.95 7.134 27.656 5 57.486-.136 1.91-.657 7.273-1.446 15.391-5.178 53.3-20.917 215.318-24.361 373.164 57.245 12.762 120.592 16.09 153.749 12.763 4.647-.466 7.223-2.758 8.107-7.212.575-2.9 1.257-11.182 1.919-23.327l.03-.548c5.38-80.77 14.97-153.242 23.431-217.182 9.313-70.381 17.356-131.165 18.052-186.722.859-68.547-12.52-113.646-43.379-146.231a1 1 0 1 1 1.452-1.375c31.245 32.992 44.792 78.523 43.927 147.632-.7 55.675-8.748 116.513-18.069 186.958-8.457 63.91-18.043 136.348-23.418 217.053l-.029.524c-.386 7.087-1.154 19.576-1.954 23.607-1.052 5.3-4.372 8.262-9.87 8.813-7.938.8-17.606 1.217-28.495 1.217z" fill="#112c41"/><path d="M375.221 52.92c-29.29-30.93-68.57-46.8-109.28-50.86-4.57-.45-17.55-1.62-26.55-.62 40.71 4.06 81.878 20.879 112 51 34 34 46 102 42 175-12.642 230.7-29 319.982-29 396 0 9-6 12-14 13 0 0 14 0 18-1 4.946-1.237 6.15-3.22 7.03-7.63.99-5 1.93-23.45 1.96-24 11.18-167.84 40.15-296.79 41.49-403.96.77-61.44-9.69-111.07-43.65-146.93z" fill="#9797f7"/><g fill="#112c41"><path d="M338.058 638.037a613.5 613.5 0 0 1-126.717-14.2 1 1 0 0 1-.78-1c.536-24.611 1.405-50.738 2.583-77.689-29.1 23.563-74.846 57.407-104.237 75.147a1 1 0 0 1-1.292-.225c-40.25-49.5-69.755-103.647-87.695-160.937A429.261 429.261 0 0 1 0 332.842c-.126-88.757 25.153-172.249 71.18-235.1C117.277 34.806 178.662.093 244.029 0c7.345-.009 14.763.348 22.01 1.065 44.4 4.428 82.4 22.121 109.908 51.168 31.243 32.991 44.79 78.522 43.924 147.63-.7 55.679-8.749 116.52-18.072 186.968-8.458 63.909-18.045 136.345-23.421 217.046l-.006.126c-.236 4.486-1.074 19.475-1.97 24-1.057 5.295-4.378 8.262-9.87 8.82-7.932.797-17.595 1.213-28.474 1.214zm-125.48-15.974c57.23 12.765 120.583 16.1 153.753 12.772 4.643-.471 7.22-2.766 8.109-7.22.691-3.492 1.453-14.541 1.935-23.717l.007-.142c5.381-80.778 14.972-153.248 23.434-217.187 9.315-70.385 17.36-131.171 18.055-186.732.859-68.547-12.519-113.645-43.371-146.229-27.177-28.693-64.749-46.174-108.659-50.553-7.179-.71-14.506-1.029-21.809-1.055-64.714.092-125.527 34.514-171.232 96.928C27.017 161.433 1.875 244.505 2 332.839a427.2 427.2 0 0 0 19.828 125.7c17.782 56.786 46.981 110.479 86.789 159.6 29.931-18.172 76.289-52.573 104.991-75.939a1 1 0 0 1 1.631.819c-1.213 27.419-2.109 54.01-2.661 79.044zm4.263-129.4a1 1 0 0 1-.842-.46c-22.74-35.47-39.367-71.09-46.6-129.637-4.133-33.487.121-70.978 11.979-105.565 11.539-33.654 29.444-62.543 50.416-81.342a1 1 0 0 1 1.611.413c4.533 12.907 7.115 27.616 4.984 57.443-.136 1.929-.666 7.387-1.468 15.648-3.528 36.341-12.9 132.875-19.081 242.556a1 1 0 0 1-.744.911 1.012 1.012 0 0 1-.255.03zm15.167-314.5c-20.24 18.594-37.516 46.751-48.739 79.486-11.762 34.305-15.983 71.478-11.886 104.671 7.01 56.734 22.9 91.8 44.635 126.188 6.184-108.442 15.415-203.529 18.911-239.538.8-8.246 1.33-13.694 1.464-15.6 2.027-28.381-.243-42.862-4.385-55.209z"/><path d="M402.392 133.686a1 1 0 0 1-.162-.013c-28.155-4.566-47.044-22.536-51.824-49.3a1 1 0 0 1 1.969-.352c4.621 25.881 22.91 43.26 50.176 47.681a1 1 0 0 1-.159 1.987zM110.381 89.794a87.143 87.143 0 0 1-15.164-1.369 1 1 0 0 1 .347-1.97c36.644 6.466 59-12.054 69.071-23.67a1 1 0 1 1 1.511 1.31c-8.873 10.238-27.037 25.699-55.765 25.699z"/></g></svg></g><g transform="translate(1026.0 177.0) rotate(-16.370288683476087 -146.5 122.0) scale(-1.0568879879089128 1.0541322849613342)"><svg width="277.229" height="231.47" viewBox="0 0 277.229 231.47"><circle cx="247.656" cy="102.004" fill="#ffd6c0" r="28.57"/><path d="M244.644 130.414a28.567 28.567 0 0 0 31.223-23.9A28.572 28.572 0 0 1 222.273 90q.086-.762.207-1.509a28.589 28.589 0 0 0 22.164 41.924z" fill="#f5b9ab"/><path d="M247.678 131.575a29.589 29.589 0 0 1-23.77-11.952 1 1 0 0 1 1.606-1.193 27.569 27.569 0 1 0-4.976-21.4 1 1 0 0 1-1.968-.358 29.571 29.571 0 1 1 29.108 34.907z" fill="#112c41"/><path d="M233.182 108.859a1 1 0 0 1-.973-.776 18.452 18.452 0 0 1 2.185-13.792A17.56 17.56 0 0 1 260.52 89.7a1 1 0 1 1-1.248 1.563 15.56 15.56 0 0 0-23.168 4.07 16.466 16.466 0 0 0-1.946 12.306 1 1 0 0 1-.751 1.2.966.966 0 0 1-.225.02z" fill="#112c41"/><circle cx="143.688" cy="127.943" fill="#ffd6c0" r="102.5"/><path d="M105.269 32.916c.32-.13.643-.241.964-.367l10.867 9.069c-49.479 20.172-73.762 73.994-54.03 122.8 19.768 48.9 76.227 74.243 125.891 54.164A98.268 98.268 0 0 0 203 211.57a102.51 102.51 0 1 1-97.731-178.654z" fill="#f5b9ab"/><path d="M143.675 231.5a103.747 103.747 0 1 1 38.807-7.6 103.3 103.3 0 0 1-38.807 7.6zm.025-205.112a101.729 101.729 0 1 0 39.626 8.112 101.38 101.38 0 0 0-39.626-8.112z" fill="#112c41"/><ellipse cx="126.535" cy="112.293" fill="#112c41" rx="6.828" ry="9.104" transform="matrix(.92709884 -.37481696 .37481696 .92709884 -32.865 55.614)"/><ellipse cx="111.4" cy="85.723" fill="#112c41" rx="14.13" ry="9.336" transform="matrix(.86245184 -.50613914 .50613914 .86245184 -28.065 68.176)"/><ellipse cx="210.167" cy="121.3" fill="#ffa9dc" rx="12.121" ry="8.009" transform="matrix(.88267705 -.46998003 .46998003 .88267705 -32.351 113.007)"/><ellipse cx="118.423" cy="139.798" fill="#ffa9dc" rx="8.009" ry="12.121" transform="matrix(.07459583 -.99721385 .99721385 .07459583 -29.819 247.463)"/><g fill="#112c41"><ellipse cx="198.688" cy="69.502" rx="8.6" ry="13.016" transform="matrix(.21807511 -.97593199 .97593199 .21807511 87.53 248.252)"/><path d="M196.394 62.64a17.19 17.19 0 0 1 3.733.421 14.84 14.84 0 0 1 7.43 3.9c.905.939 2.354 2.83 1.882 4.942-.587 2.626-4.064 4.46-8.456 4.46a17.133 17.133 0 0 1-3.734-.422c-5.828-1.3-10.092-5.352-9.313-8.843.587-2.626 4.065-4.46 8.458-4.46m0-2c-5.269 0-9.583 2.33-10.408 6.024-1.037 4.638 3.814 9.666 10.826 11.238a19.128 19.128 0 0 0 4.171.47c5.269 0 9.583-2.33 10.408-6.024 1.036-4.635-3.812-9.664-10.828-11.232a19.178 19.178 0 0 0-4.17-.469z"/><ellipse cx="194.736" cy="98.632" rx="6.828" ry="9.104" transform="matrix(.99979717 -.02013974 .02013974 .99979717 -1.947 3.943)"/><path d="M147.13 125.111c3.926 11.862 13.4 19.595 22.647 17.809s15.162-12.487 14.391-24.958z"/><path d="M167.105 144.175c-8.685 0-17.177-7.428-20.924-18.75a1 1 0 0 1 .76-1.3l37.037-7.149a1 1 0 0 1 1.188.92c.817 13.209-5.576 24.144-15.2 26a15.132 15.132 0 0 1-2.861.279zm-18.65-18.3c4.029 10.963 12.781 17.678 21.132 16.064s13.976-11.1 13.635-22.775z"/></g><path d="M176.564 138.971c-3.753-3.592-10.1-4.662-16.064-2.252a17.713 17.713 0 0 0-4.123 2.342c4.029 3.244 8.742 4.758 13.4 3.859a14.683 14.683 0 0 0 7.112-3.625q-.159-.165-.325-.324z" fill="#ffa6e0"/><path d="M167.121 144.173a18.217 18.217 0 0 1-11.371-4.333 1 1 0 0 1 .02-1.574 18.818 18.818 0 0 1 4.355-2.475c6.124-2.476 13.008-1.487 17.13 2.458.121.116.239.233.354.354a1 1 0 0 1-.05 1.434 15.613 15.613 0 0 1-7.594 3.865 15.025 15.025 0 0 1-2.844.271zm-9.044-5.083a15.015 15.015 0 0 0 11.51 2.848 13.441 13.441 0 0 0 5.8-2.681c-3.609-3.042-9.343-3.7-14.511-1.611a16.92 16.92 0 0 0-2.799 1.444z" fill="#112c41"/><circle cx="31.508" cy="147.949" fill="#ffd6c0" r="30.5"/><path d="M60.437 157.932a33.178 33.178 0 0 1-5.358 5.413c-12.966 10.761-32.489 8.455-43.243-4.5-7.059-8.505-8.194-19.14-4.836-28.866-8.226 11.018-8.7 26.05.473 37.11a30.492 30.492 0 0 0 42.948 4c4.457-3.696 8.261-8.042 10.016-13.157z" fill="#f5b9ab"/><path d="M31.5 179.466a31.508 31.508 0 1 1 28.232-45.5 1 1 0 0 1-1.793.886A29.6 29.6 0 0 0 20.451 120.6a29.5 29.5 0 0 0 22.114 54.7A31.46 31.46 0 0 0 59.5 157.58a1 1 0 0 1 1.872.7 33.523 33.523 0 0 1-18.058 18.867 31.464 31.464 0 0 1-11.814 2.319z" fill="#112c41"/><path d="M49.253 146.854a1 1 0 0 1-.954-.7 17.277 17.277 0 0 0-21.49-11.55A16.764 16.764 0 0 0 16.2 144.713a1 1 0 0 1-1.872-.713 18.755 18.755 0 0 1 11.877-11.3 19.277 19.277 0 0 1 24 12.853 1 1 0 0 1-.953 1.3z" fill="#112c41"/><path d="M37 107.924c18.817-19.516 45.809-36.393 77.86-46.892a213.323 213.323 0 0 1 40.476-9.084 64.009 64.009 0 0 0-10.241-25.543c.136.1.282.188.408.288a75.849 75.849 0 0 1 22.07 24.157 187.56 187.56 0 0 1 7.542-.288c18.32-.309 35.367 2.184 50.027 7.2a1.861 1.861 0 0 0 2.318-2.511 89.573 89.573 0 0 0-17.986-25.972C182.5 2.165 139.131-7.2 99.331 8.89a108.729 108.729 0 0 0-18.955 9.918c-30.6 20.116-48.015 54.068-45.907 88.174a1.477 1.477 0 0 0 2.531.942z" fill="#fcaa51"/><path d="M37 107.924a155.9 155.9 0 0 1 15.824-14.263c-1.663-30.338 13.9-60.48 41.124-78.367a98.089 98.089 0 0 1 30.159-13.153 109.121 109.121 0 0 0-43.731 16.667c-30.6 20.116-48.015 54.068-45.907 88.174a1.477 1.477 0 0 0 2.531.942z" fill="#ff9522"/><path d="M35.93 109.2a2.435 2.435 0 0 1-.87-.157 2.671 2.671 0 0 1-1.619-2.551c-1.667-34.7 16.108-68.616 46.388-88.514A109.848 109.848 0 0 1 98.956 7.963 106.761 106.761 0 0 1 159.4 1.9a97.232 97.232 0 0 1 50.778 26.675 89.845 89.845 0 0 1 18.115 26.1 2.9 2.9 0 0 1-.331 3.24 3.092 3.092 0 0 1-3.314.741c-16.6-5.658-36.317-8.015-57.02-6.81a1.015 1.015 0 0 1-.92-.491 76.832 76.832 0 0 0-17.971-21.022 66.817 66.817 0 0 1 7.574 21.444 1 1 0 0 1-.864 1.164 212.386 212.386 0 0 0-40.28 9.038C84.77 71.937 57.4 88.362 38.093 108.229a3.06 3.06 0 0 1-2.163.971zm44.449-90.39.549.836C51.236 39.156 33.806 72.4 35.439 106.392c.01.2.061.675.328.776a.941.941 0 0 0 .891-.333c19.526-20.095 47.188-36.7 77.891-46.755a214.7 214.7 0 0 1 39.607-8.992 62.841 62.841 0 0 0-9.888-24.109 1 1 0 0 1 1.38-1.4 76.631 76.631 0 0 1 22.476 24.236c20.738-1.134 40.5 1.263 57.173 6.95a1.147 1.147 0 0 0 1.186-.191c.279-.308.116-.8 0-1.067a87.881 87.881 0 0 0-17.714-25.52 95.246 95.246 0 0 0-49.746-26.121 104.778 104.778 0 0 0-59.318 5.951 107.879 107.879 0 0 0-18.777 9.829z" fill="#112c41"/></svg></g><g transform="translate(288.0 367.0) rotate(0.0 552.0 305.5) scale(1.0400298443346634 1.0416879777955086)"><svg width="1061.508" height="586.548" viewBox="0 0 1061.508 586.548"><circle cx="68.206" cy="80.563" fill="#ffa8db" r="67.206"/><path d="M68.206 148.769C30.596 148.769 0 118.172 0 80.563c0-37.608 30.597-68.205 68.206-68.205s68.206 30.597 68.206 68.205c0 37.609-30.597 68.206-68.206 68.206zm0-134.411C31.7 14.358 2 44.057 2 80.563s29.7 66.206 66.206 66.206 66.206-29.7 66.206-66.206-29.7-66.205-66.206-66.205z" fill="#112c41"/><path d="M129.056 108.011a67.655 67.655 0 0 0 5.41-26.585c0-37.002-29.534-66.997-65.966-66.997-6.298 0-12.382.915-18.151 2.589 42.869 8.679 75.674 45.684 78.707 90.993z" fill="#ff90d8"/><path d="M345.235 206.619s-23.408 16.449-47.693 23.017c-39.981 10.813-63.772-13.557-73.795-33.603-18.449-36.897-12.978-72.23-14.289-110.304-.862-25.042 5.229-35.517 6.589-55.236.439-6.369-8.221-10.241-13.507-10.432-9.115-.329-17.9 2.855-24.818 9.773-1.428-1.977-6.16-7.546-15.813-8.016-8.212-.4-15.64 2.901-22.254 10.872 0 0-4.665-5.357-15.521-3.294-6.171 1.172-17.131 8.895-27.673 29.32-18.048 34.969-36.404 141.543 17.583 230.55 36.568 60.288 107.735 92.856 176.251 86.204 58.325-5.663 112.044-29.167 112.044-29.167s-57.104-138.366-57.104-139.684z" fill="#ffd6c0"/><path d="M272.419 377.298c-28.33.001-56.582-6.445-82.648-18.959-32.265-15.488-58.736-39.201-76.553-68.574-29.854-49.219-36.024-101.146-35.944-136.041.102-44.438 9.938-79.192 18.329-95.451 10.312-19.979 21.406-28.507 28.351-29.826 8.843-1.679 13.795 1.352 15.618 2.85 6.464-7.442 13.813-10.857 22.385-10.442 8.727.426 13.68 4.892 15.867 7.537 6.809-6.425 15.331-9.628 24.752-9.294 3.762.135 9.147 2.023 12.16 5.37 1.638 1.818 2.424 3.925 2.274 6.092-.549 7.951-1.883 14.522-3.173 20.876-1.932 9.513-3.928 19.35-3.415 34.261.291 8.439.249 16.83.208 24.944-.146 29.021-.285 56.431 13.98 84.962 5.449 10.902 26.797 45.512 72.68 33.103 23.846-6.449 47.158-22.711 47.391-22.874a.966.966 0 0 1 1.506.629c.903 3.181 37.673 92.538 57.043 139.475a.965.965 0 0 1-.505 1.252c-.538.235-54.528 23.63-112.338 29.243-5.978.579-11.977.867-17.968.867zM128.954 29.882c-1.387 0-2.931.136-4.642.461-2.244.426-14.095 3.818-26.995 28.814-8.293 16.067-18.014 50.477-18.114 94.57-.08 34.648 6.043 86.201 35.665 135.037 17.621 29.052 43.812 52.509 75.737 67.835 31.262 15.008 65.702 21.199 99.596 17.909 53.49-5.195 103.714-25.701 110.881-28.721-19.896-48.211-51.919-125.981-56.307-137.688-4.777 3.207-25.654 16.698-46.981 22.467-47.288 12.786-69.292-22.869-74.91-34.103-14.471-28.943-14.331-56.578-14.184-85.835.041-8.096.083-16.467-.206-24.868-.521-15.139 1.498-25.089 3.452-34.711 1.277-6.293 2.599-12.8 3.138-20.625.114-1.656-.485-3.227-1.782-4.668-2.626-2.916-7.522-4.615-10.797-4.733-9.207-.327-17.558 2.948-24.101 9.492a.968.968 0 0 1-1.465-.117c-1.549-2.146-6.12-7.182-15.077-7.618-8.228-.398-15.255 3.041-21.466 10.523a.965.965 0 0 1-.73.349c-.247.032-.553-.118-.739-.331-.147-.162-3.156-3.439-9.973-3.439zM346.2 206.62h.01z" fill="#112c41"/><path d="M374.555 346.082c7.848 10.257 18.778 15.484 32.615 13.178 23.257-3.876 42.66-10.506 42.827-10.213 6.211 10.899 21.954 33.16 37.723 45.826 60.886 48.902 144.501 49.138 208.05 9.853 40.337-27.722 66.138-70.638 79.055-109.378 13.178 2.636 29.024 7.752 43.98 7.412 7.248-.165 15.433-3.562 20.755-12.519 23.39-39.368 41.51-98.503 41.839-145.448.093-13.207-4.745-19.734-9.224-24.214-22.237-22.237-223.286-72.105-413.283 5.765-45.539 18.664-68.186 33.618-112.339 56.993-11.201 5.93-16.657 15.393-17.351 26.795-1.757 28.882 12.079 92.464 45.353 135.95z" fill="#ffe993"/><path d="M597.163 433.981c-2.148 0-4.297-.037-6.45-.111-38.31-1.325-74.14-14.54-103.618-38.217-15.417-12.383-31.04-34.162-37.608-45.488-.629.168-1.69.477-2.865.817-6.562 1.907-21.928 6.372-39.287 9.265-13.47 2.242-25.071-2.445-33.572-13.557-32.56-42.553-47.379-106.684-45.558-136.617.746-12.27 6.929-21.819 17.881-27.618 12.27-6.495 22.697-12.241 32.782-17.798 26.101-14.382 46.716-25.74 79.646-39.236 102.754-42.113 203.547-45.262 270.002-40.495 44.144 3.169 76.938 10.046 96.677 15.258 23.821 6.289 41.649 13.649 47.69 19.69 4.76 4.76 9.612 11.443 9.518 24.928-.314 44.864-17.577 104.882-41.979 145.952-4.79 8.063-12.66 12.804-21.592 13.008-11.154.265-23.011-2.543-33.446-5.014-3.455-.817-6.735-1.594-9.89-2.243-15.273 45.235-44.089 84.946-79.155 109.046-30.195 18.665-64.343 28.429-99.176 28.43zm-147.016-85.947c.423 0 .529.187.719.519 6.271 11.006 21.992 33.102 37.48 45.542 29.14 23.403 64.562 36.467 102.436 37.776 36.666 1.261 72.786-8.412 104.463-27.995 34.892-23.981 63.567-63.663 78.632-108.844l.278-.837.866.173c3.452.69 7.031 1.537 10.821 2.434 10.318 2.441 22.037 5.218 32.94 4.96 8.227-.188 15.486-4.571 19.918-12.029 24.239-40.797 41.386-100.399 41.698-144.944.09-12.748-4.465-19.033-8.932-23.5-10.883-10.883-66.665-28.88-143.096-34.367-66.247-4.757-166.705-1.617-269.102 40.351-32.823 13.452-53.395 24.787-79.438 39.138-10.092 5.561-20.527 11.311-32.812 17.813-10.449 5.532-16.108 14.271-16.82 25.972-1.802 29.622 12.886 93.114 45.149 135.281 8.024 10.486 18.971 14.91 31.656 12.799 17.242-2.874 32.529-7.315 39.058-9.213 2.465-.717 3.539-1.029 4.086-1.029z" fill="#112c41"/><path d="M606.811 89.486c101.468 4.612 177.239 14.128 222.702 35.212l27.014-11.86c-17.131-7.248-42.815-16.568-106.08-24.379-22.786-2.813-53.127-3.592-80.054-3.075-14.698.283-28.379 1.193-39.258 1.812-15.873.904-24.324 2.29-24.324 2.29z" fill="#ffd169"/><path d="M594.085 123.049c38.327-5.533 52.035-26.923 36.304-36.227-23.248 1.306-53.421 5.509-80 11.774-12.888 19.822 11.77 29.062 43.696 24.453z" fill="#112c41"/><path d="M785.779 296.749c8.935 2.217 22.198 4.469 28.653 5.025 21.999 1.894 28.547-19.623 31.799-25.779 17.39-32.919 33.545-89.653 34.454-124.446.823-31.512-12.72-34.793-40.796-45.078-1.243-.455-4.425-1.521-5.765-1.757-37.697 34.076-65.628 142.047-48.345 192.035z" fill="#fff"/><path d="M818.226 282.184c.136.235.885 8.805 5.206 9.95 8.981 2.347 22.37-28.786 25.432-37.005 19.304-48.885 30.412-120.836 17.153-124.335-17.434-4.539-54.058 109.384-47.791 151.39z" fill="#112c41"/><path d="M824.369 293.254c-.401 0-.798-.049-1.19-.151-4.374-1.159-5.481-8.005-5.846-10.254-.026-.162-.045-.285-.06-.358a.954.954 0 0 1-.037-.158c-2.577-17.277 1.813-48.195 11.745-82.706 9.449-32.832 21.286-59.197 30.156-67.169 2.568-2.309 4.969-3.193 7.131-2.63 1.625.429 2.962 1.665 3.979 3.676 7.565 14.955-2.948 77.662-20.455 121.994-.138.373-14.383 37.755-25.423 37.756zm-5.166-11.295c.032.126.06.294.104.57 1.045 6.458 2.959 8.263 4.38 8.639 7.256 1.916 19.695-24.189 24.238-36.387 17.354-43.944 27.906-105.81 20.538-120.376-.748-1.479-1.657-2.368-2.702-2.644-1.468-.382-3.25.353-5.287 2.184-18.252 16.401-46.804 110.541-41.271 148.014z" fill="#112c41"/><path d="M395.749 358.382c8.797 1.321 18.778-1.482 25.641-2.91-67.541-68.053-59.74-168.332-61.111-178.337-7.797 4.228-15.204 7.684-18.028 9.917-8.218 6.5-10.754 14.24-11.567 19.238-.598 3.691-.666 7.974-.666 12.33 0 38.027 21.746 98.407 47.117 129 1.925 2.322 4.844 4.863 7.632 6.589 3.827 2.369 8.033 3.73 10.982 4.173z" fill="#fff"/><path d="M775.485 296.459c-.076 0-.152-.009-.229-.026l-1.506-.354c-9.466-2.229-16.332-3.851-25.262-3.683h-.018a1 1 0 0 1-.018-2c9.212-.16 16.148 1.476 25.756 3.736l1.504.354a1 1 0 0 1-.227 1.973z" fill="#112c41"/><path d="M818.641 282.5s72.383 11.868 86.972 69.182c13.836 54.358-35.58 124.529-35.58 124.529l121.564 22.731s70.306-98.542 30.638-216.442c-35.58-105.75-162.634-147.48-162.634-147.48-21.061 13.786-47.558 119.436-40.96 147.48z" fill="#ffd6c0"/><path d="M992.041 500.044 868.32 476.909l.896-1.273c.491-.697 48.99-70.424 35.428-123.705-7.439-29.225-30.422-46.266-48.392-55.415-19.559-9.957-37.595-12.998-37.774-13.028l-.658-.107-.153-.65c-6.721-28.574 19.86-134.455 41.387-148.545l.402-.264.458.15c.318.104 32.303 10.744 68.209 34.196 33.171 21.665 76.589 59.016 95.061 113.914 20.577 61.161 11.119 116.992-.439 153.059-12.521 39.069-30.155 64.036-30.332 64.284zM871.72 475.509l119.424 22.331c2.571-3.764 18.287-27.581 29.717-63.278 11.452-35.766 20.821-91.124.426-151.742-18.288-54.356-61.352-91.386-94.258-112.879-33.338-21.774-63.227-32.42-67.276-33.812-9.172 6.517-20.637 32.268-30.037 67.542-8.938 33.537-13.012 64.657-10.242 77.965 3.478.654 19.947 4.075 37.636 13.072 18.358 9.337 41.845 26.759 49.473 56.729 12.764 50.149-28.293 114.259-34.863 124.072z" fill="#112c41"/><circle cx="787.419" cy="514.389" fill="#ffa8db" r="67.206"/><path d="M787.42 582.594c-37.609 0-68.206-30.597-68.206-68.205 0-37.609 30.597-68.206 68.206-68.206s68.206 30.597 68.206 68.206-30.597 68.205-68.206 68.205zm0-134.411c-36.506 0-66.206 29.7-66.206 66.206s29.7 66.205 66.206 66.205 66.206-29.699 66.206-66.205-29.7-66.206-66.206-66.206z" fill="#112c41"/><path d="M847.627 541.944c20.224-47.45-14.887-93.748-59.916-93.748-6.298 0-12.382.915-18.151 2.589 44.561 6.65 76.034 44.45 78.067 91.159z" fill="#ff90d8"/><path d="M959.278 566s-23.57 13.199-49.655 16.028c-33.155 3.595-64.77-2.352-83.911-15.714-16.656-11.628-25.77-22.942-23.885-42.741 1.886-19.799 11-32.999 19.485-42.427 10.259-11.398 21.37-17.599 28.913-15.085 6.146 2.049 7.228 9.114 7.228 9.114 4.714-7.857 15.546-16.376 25.456-13.828 11 2.828 11.314 19.485 11.314 19.485s10.053-21.834 27.342-17.285c17.389 4.576 13.978 27.633 12.885 55.312-.943 23.885 24.828 47.141 24.828 47.141z" fill="#ffd6c0"/><path d="M890.554 584.071c-26.125 0-49.724-5.982-65.414-16.936-22.152-15.466-25.738-28.637-24.308-43.656 2.012-21.123 12.228-34.658 19.736-43.001 10.993-12.214 22.198-17.963 29.973-15.364 4.414 1.471 6.428 5.218 7.297 7.662 5.144-7.168 15.445-14.938 25.32-12.396 8.552 2.199 11.044 11.873 11.769 17.092 3.588-5.95 13.027-18.539 26.893-14.891 16.196 4.263 15.252 23.162 14.058 47.089-.15 3.004-.305 6.087-.429 9.229-.912 23.135 24.245 46.13 24.499 46.359a1.001 1.001 0 0 1-.182 1.615c-.237.134-24.049 13.332-50.036 16.149a178.218 178.218 0 0 1-19.176 1.049zm-43.92-117.564c-6.751 0-15.805 5.561-24.578 15.309-7.319 8.132-17.276 21.318-19.232 41.853-1.892 19.869 7.574 30.735 23.462 41.826 19.07 13.313 50.182 19.124 83.23 15.539 22.281-2.416 42.946-12.587 48.067-15.261-2.089-2.025-7.05-7.076-11.884-13.803-5.862-8.155-12.746-20.527-12.248-33.149.124-3.15.278-6.24.429-9.251 1.15-23.021 2.059-41.206-12.569-45.056-16.266-4.277-26.082 16.525-26.179 16.737a1.004 1.004 0 0 1-1.113.56 1.001 1.001 0 0 1-.795-.959c-.003-.159-.435-15.932-10.562-18.535-9.759-2.513-20.111 6.311-24.35 13.373a1 1 0 0 1-1.846-.361c-.01-.064-1.08-6.492-6.557-8.318-1.015-.339-2.11-.504-3.275-.504z" fill="#112c41"/><path d="M895.946 477.162c-4.942 10.3-10.542 30.9-6.918 59.074" fill="#ffd6c0"/><path d="M889.027 537.236a1 1 0 0 1-.991-.872c-1.071-8.329-3.732-37.245 7.009-59.635a1 1 0 1 1 1.803.865c-2.655 5.535-10.995 26.114-6.827 58.514a1 1 0 0 1-.994 1.128z" fill="#112c41"/><path d="M859.124 472.588c-6.589 8.192-17.46 24.577-15.484 50.91" fill="#ffd6c0"/><path d="M843.639 524.498a.998.998 0 0 1-.996-.925c-1.462-19.475 3.821-36.84 15.702-51.612.346-.428.977-.498 1.406-.152s.498.976.152 1.406c-11.553 14.364-16.689 31.257-15.267 50.208a1 1 0 0 1-.997 1.075z" fill="#112c41"/><circle cx="993.302" cy="518.342" fill="#ffa8db" r="67.206"/><path d="M993.302 586.548c-37.609 0-68.206-30.597-68.206-68.206s30.597-68.206 68.206-68.206 68.206 30.597 68.206 68.206-30.597 68.206-68.206 68.206zm0-134.412c-36.506 0-66.206 29.7-66.206 66.206s29.7 66.206 66.206 66.206 66.206-29.7 66.206-66.206-29.701-66.206-66.206-66.206z" fill="#112c41"/><path d="M1053.667 545.635c3.474-8.152 5.68-17.047 5.784-26.494.417-37.882-29.909-67.089-66.341-67.089-6.298 0-12.382.915-18.151 2.589 42.87 8.68 75.675 45.685 78.708 90.994z" fill="#ff90d8"/><circle cx="255.271" cy="68.206" fill="#ffa8db" r="67.206"/><path d="M255.271 136.412c-37.609 0-68.206-30.597-68.206-68.206S217.662 0 255.271 0s68.206 30.597 68.206 68.206-30.596 68.206-68.206 68.206zm0-134.412c-36.506 0-66.206 29.7-66.206 66.206s29.7 66.206 66.206 66.206 66.206-29.7 66.206-66.206S291.777 2 255.271 2z" fill="#112c41"/><path d="M315.756 95.451c3.481-8.129 5.679-17.091 5.679-26.513 0-36.901-29.592-66.814-66.097-66.814-6.31 0-12.406.913-18.187 2.582 42.955 8.656 75.566 45.56 78.605 90.745z" fill="#ff90d8"/><g fill="#112c41"><path d="M118.784 77.762a1 1 0 0 1-.995-1.104c1.958-18.78 12.134-36.099 21.351-44.93a.998.998 0 0 1 1.413.03.998.998 0 0 1-.03 1.413c-8.952 8.579-18.839 25.417-20.745 43.693a1 1 0 0 1-.994.898zm38.764-.988-.043-.001a.999.999 0 0 1-.957-1.041c1.008-24.205 13.192-39.594 20.365-46.612a1 1 0 1 1 1.398 1.43c-6.961 6.812-18.786 21.75-19.766 45.267a.999.999 0 0 1-.997.957zm292.889 273.822c-.327 0-.646-.16-.839-.454-.106-.162-10.714-16.51-18.235-35.078a1 1 0 1 1 1.854-.75c7.446 18.383 17.952 34.574 18.058 34.736a1 1 0 0 1-.838 1.546z"/></g><path d="M380.121 353.726c-7.797-7.138-12.738-15.044-18.668-24.928-31.187 15.154-110.616 35.756-169.003 9.554C114.31 303.285 80.111 174.51 80.111 174.51c2.636 38.435 12.958 79.725 36.897 117.5 16.375 25.839 39.205 44.479 56.927 55.404 18.128 11.175 44.185 21.573 72.214 26.078 36.897 5.93 85.435-3.294 133.972-19.766z" fill="#f5b9ab"/><path d="M513.469 410.653s99.929 19.74 158.571-15.813c63.033-38.215 76.211-102.346 76.211-102.346 10.728-.27 16.735 1.764 25.257 3.734-10.103 31.187-40.192 90.267-95.099 116.842-52.605 25.46-117.061 24.597-164.94-2.417z" fill="#ffd169"/><path d="M859.766 136.119c-5.059 3.945-10.177 12.17-13.558 20.212 0 0 117.792 32.126 153.042 116.133 39.116 93.219.124 177.898.124 177.898 6.754.535 10.336 1.771 14.701 2.924 10.501-27.426 18.237-54.177 19.259-93.702.547-21.161-2.259-53.032-15.38-85.632-11.106-26.587-27.68-52.157-54.36-76.117-49.948-43.632-92.298-57.433-103.828-61.716z" fill="#f5b9ab"/></svg></g></svg>