<svg xmlns="http://www.w3.org/2000/svg" viewBox="0 0 1500 1500" width="1500" height="1500"><g transform="translate(315.0 66.0) rotate(0.0 434.5 683.5) scale(0.9963208359464303 0.9945926753742637)"><svg width="872.209" height="1374.432" viewBox="0 0 872.209 1374.432"><path d="m439.448 423.724-153.651 11.202 42.383 58.166h118.729zm-27.389 219.785c18.895 57.616-204.35 140.843-221.363 91.916-18.164-126.488 162.821-157.246 221.363-91.916z" fill="#dda6ff"/><path d="M224.809 752.238c-18.114 0-31.949-4.5-36.002-16.155a1.99 1.99 0 0 1-.091-.373c-7.092-49.389 15.887-90.336 63.046-112.345 26.178-12.217 58.363-17.416 88.303-14.271 31.211 3.281 57.308 15.029 73.483 33.08.185.206.325.448.411.712 5.099 15.548-5.629 33.705-31.024 52.51-21.503 15.923-52.49 31.356-85.014 42.344-24.279 8.201-51.687 14.498-73.112 14.498zm-32.161-17.293c4.203 11.608 21.537 13.601 35.378 13.242 18.536-.496 42.904-5.552 68.616-14.237 32.146-10.859 62.732-26.083 83.914-41.768 29.757-22.035 32.674-38.021 29.729-47.655-15.535-17.132-40.598-28.297-70.636-31.454-29.239-3.073-60.655 1.998-86.193 13.917-21.003 9.802-37.68 23.973-48.228 40.981-11.93 19.234-16.162 41.766-12.58 66.974z" fill="#dda6ff"/><path d="m730.526 556.567-156.085-81.951-56.681-177.951c-43.368-65.422-130.638 33.226-122.223 79.806 9.85 41.134 13.446 51.179 27.156 90.268 10.829 30.876 22.811 94.119 95.24 132.484 79.887 42.316 154.336 67.339 154.336 67.339 44.307-36.477 77.456-63.537 58.257-109.995z" fill="#fff"/><path d="M672.269 668.562c-.214 0-.429-.034-.637-.104-.746-.251-75.518-25.56-154.635-67.467-64.653-34.247-81.931-88.888-92.254-121.534-1.376-4.352-2.676-8.462-3.936-12.056l-.636-1.813c-13.287-37.88-16.858-48.061-26.578-88.65a1.947 1.947 0 0 1-.023-.11c-5.703-31.566 30.417-84.678 67.804-99.7 23.34-9.381 43.957-2.831 58.053 18.433.102.154.183.322.239.498l56.431 177.171 155.358 81.568a2 2 0 0 1 .919 1.007c19.694 47.654-14.744 76.006-58.345 111.9l-.489.402a2.004 2.004 0 0 1-1.271.455zM397.496 376.061c9.661 40.342 13.222 50.493 26.449 88.202l.636 1.813c1.281 3.652 2.59 7.792 3.976 12.174 5.356 16.938 12.022 38.018 25.404 59.505 15.832 25.423 37.064 44.951 64.909 59.7 73.745 39.062 143.667 63.64 152.99 66.853 43.57-35.869 75.018-61.922 57.09-106.31l-155.439-81.611a1.998 1.998 0 0 1-.976-1.163L515.94 297.539c-16.558-24.771-37.989-22.765-53.074-16.701-16.949 6.81-35.018 22.6-48.333 42.237-13.14 19.376-19.505 39.178-17.037 52.986z" fill="#25242e"/><path d="M869.157 600.156c-3.105-21.918-12.334-39.514-22.281-44.337-6.398-3.847-14.064-5.856-22.44-4.669l-19.461 2.757c-8.376 1.187-16.691 6.426-20.35 10.556v.003c-8.382 7.227-12.474 26.854-9.338 48.989 3.135 22.134 12.518 39.853 22.577 44.468l.002.012c5.517 4.889 14.104 5.666 22.479 4.479l19.461-2.757c8.376-1.187 17.387-6.519 20.261-10.716v-.003c8.216-7.397 12.195-26.864 9.09-48.782z" fill="#dda6ff"/><path d="M813.703 664.904c-5.863 0-12.221-1.212-16.972-5.305-10.881-5.243-20.271-23.6-23.425-45.865-3.169-22.373.806-42.703 9.896-50.683 4.136-4.614 12.809-9.896 21.491-11.126l19.461-2.757c8.2-1.161 16.385.529 23.675 4.89 10.815 5.314 20.175 23.706 23.307 45.817 3.12 22.021-.719 42.211-9.554 50.386-3.242 4.515-12.541 10.106-21.497 11.375l-19.461 2.757c-2.119.3-4.477.511-6.921.511zm-14.391-8.361c5.596 4.848 14.362 4.795 20.751 3.889l19.461-2.757c7.658-1.085 16.24-6.062 18.856-9.814.096-.15.212-.289.347-.41 7.89-7.102 11.364-26.435 8.448-47.015-2.915-20.579-11.622-38.187-21.174-42.817a1.853 1.853 0 0 1-.158-.086c-6.513-3.916-13.82-5.439-21.129-4.403l-19.461 2.757c-7.655 1.084-15.517 5.863-19.076 9.837a1.933 1.933 0 0 1-.248.256c-8.054 6.944-11.617 26.352-8.664 47.194 2.952 20.843 11.765 38.496 21.431 42.93a2 2 0 0 1 .616.439zm60.754-7.603h.01z" fill="#dda6ff"/><path d="M802.938 661.108c-3.813 0-7.732-1.745-11.435-5.113a2 2 0 0 1 2.691-2.959c2.341 2.128 5.961 4.55 9.917 3.989 5.036-.713 9.427-6.207 12.045-15.073 2.812-9.523 3.368-21.779 1.564-34.51-1.803-12.729-5.741-24.349-11.087-32.716-4.978-7.791-10.721-11.853-15.758-11.135-4.65.658-8.689 5.269-11.374 12.981-.533 1.457-1.051 3.333-1.688 6.115a1.993 1.993 0 0 1-2.396 1.503 1.999 1.999 0 0 1-1.503-2.396c.676-2.952 1.237-4.978 1.82-6.567 3.191-9.169 8.373-14.719 14.58-15.598 6.751-.958 13.745 3.639 19.689 12.941 5.648 8.84 9.795 21.024 11.677 34.31 1.882 13.285 1.282 26.143-1.688 36.203-3.126 10.587-8.567 16.944-15.32 17.901-.575.083-1.153.124-1.734.124z" fill="#25242e"/><ellipse cx="795.513" cy="610.588" fill="#dda6ff" rx="9.095" ry="19.944" transform="matrix(.9901 -.1403 .1403 .9901 -77.7759 117.6121)"/><path d="M798.308 632.335a2.001 2.001 0 0 1-.278-3.981c1.538-.218 3-2.188 3.911-5.271 1.093-3.702 1.305-8.493.597-13.49-1.441-10.169-6.231-17.255-9.542-16.771a2 2 0 0 1-.56-3.961c6.26-.871 12.309 7.785 14.063 20.172.787 5.552.53 10.944-.722 15.184-1.407 4.767-3.96 7.643-7.186 8.1-.096.012-.19.018-.283.018z" fill="#25242e"/><path d="M798.295 630.374 697.836 644.61l-5.596-39.495 100.458-14.235z" fill="#dda6ff"/><path d="M777.814 635.239a2.001 2.001 0 0 1-.278-3.981l20.494-2.903a2 2 0 0 1 .561 3.961l-20.494 2.903c-.096.014-.19.02-.283.02zm-7.918-39.166a2.001 2.001 0 0 1-.278-3.981l22.817-3.232a2 2 0 0 1 .561 3.961l-22.817 3.232c-.096.015-.19.02-.283.02z" fill="#25242e"/><path d="M765.033 616.832c-3.793 42.99 9.699 50.119 19.283 51.144 19.773 2.114 26.611-27.187 27.14-40.267.839-20.732-10.066-28.566-17.211-28.485-10.941.124-21.542 8.719-23.646 36.256z" fill="#fff"/><path d="M786.333 670.085c-.733 0-1.476-.04-2.229-.121-16.938-1.81-24.024-19.745-21.063-53.308a2 2 0 0 1 3.909-.396l2.858 9.576c2.421-13.293 8.645-28.433 24.415-28.613l.138-.001c3.976 0 8.147 1.95 11.465 5.366 3.788 3.9 8.188 11.438 7.63 25.201-.362 8.944-3.851 28.279-14.462 37.436-3.745 3.23-7.996 4.86-12.661 4.86zm-19.937-41.695c-.422 23.632 5.658 36.264 18.133 37.598 4.401.471 8.39-.805 11.851-3.791 8.879-7.661 12.686-24.871 13.079-34.569.5-12.344-3.26-18.914-6.503-22.252-2.531-2.605-5.738-4.153-8.598-4.153l-.09.001c-12.47.143-19.966 12.041-21.675 34.409a2 2 0 0 1-3.911.42z" fill="#25242e"/><path d="M727.493 628.092c4.188 44.046 18.442 48.718 27.437 48.046 19.831-1.481 25.392-28.328 25.348-41.419-.071-20.749-11.31-28.097-18.444-27.703-10.925.604-21.139 9.656-22.033 37.259z" fill="#fff"/><path d="M753.433 678.195c-15.388 0-24.781-16.776-27.931-49.913a2 2 0 0 1 3.583-1.401l9.042 11.89c1.25-14.119 6.21-32.79 23.596-33.752 4.013-.223 8.322 1.546 11.826 4.851 3.956 3.73 8.681 11.068 8.729 24.843.023 6.704-1.383 17.026-5.399 25.895-4.874 10.764-12.412 16.824-21.8 17.525-.555.041-1.105.062-1.646.062zm-23.136-43.113c3.573 26.877 11.8 39.982 24.484 39.062 19.285-1.441 23.53-29.649 23.497-39.418-.042-12.354-4.087-18.754-7.473-21.946-2.67-2.518-5.978-3.916-8.861-3.767-12.452.688-19.418 12.904-20.144 35.326a2 2 0 0 1-3.591 1.147z" fill="#25242e"/><path d="M696.379 634.78c1.493 42.683 17.78 45.577 27.413 45.944 19.872.756 24.688-28.944 24.322-42.03-.581-20.741-11.997-27.811-19.12-27.241-10.907.872-20.895 10.173-21.11 37.789z" fill="#fff"/><path d="M724.538 682.739c-.273 0-.547-.006-.823-.016-7.575-.288-27.697-1.054-29.335-47.872a2 2 0 0 1 3.564-1.315l8.132 10.224c.906-14.144 5.41-32.911 22.757-34.299 4.003-.318 8.358 1.342 11.943 4.559 4.046 3.632 8.95 10.852 9.336 24.62.251 8.948-1.907 28.476-11.867 38.337-3.865 3.825-8.473 5.762-13.707 5.762zm-25.817-41.801c2.842 36.938 18.333 37.528 25.146 37.787 4.426.172 8.315-1.376 11.564-4.592 8.334-8.251 10.955-25.681 10.683-35.383-.346-12.349-4.547-18.646-8.01-21.755-2.731-2.451-6.078-3.771-8.951-3.549-12.431.995-19.095 13.379-19.27 35.812a2 2 0 0 1-3.565 1.229z" fill="#25242e"/><path d="M668.335 654.631c3.561 16.203 12.113 27.044 21.708 27.962 19.796 1.894 26.307-27.481 26.691-40.566.609-20.74-10.383-28.453-17.527-28.292-10.939.246-21.444 8.958-23.242 36.517-2.767.323-5.271 1.981-7.63 4.379z" fill="#fff"/><path d="M691.859 684.681c-.661 0-1.329-.032-2.007-.097-10.538-1.009-19.751-12.597-23.471-29.523a1.998 1.998 0 0 1 .528-1.832c2.397-2.437 4.758-3.966 7.172-4.638 1.148-14.264 6.009-36.427 25.081-36.855 4.023-.128 8.267 1.818 11.661 5.235 3.831 3.858 8.314 11.348 7.909 25.115-.262 8.947-3.536 28.319-14.045 37.593-3.766 3.324-8.074 5.002-12.828 5.002zm-21.324-29.4c3.468 14.607 11.132 24.501 19.698 25.32 4.409.429 8.381-.896 11.808-3.922 8.793-7.76 12.409-25.01 12.694-34.711.362-12.349-3.47-18.877-6.75-22.179-2.586-2.604-5.861-4.115-8.733-4.057-12.468.281-19.831 12.262-21.291 34.647a2 2 0 0 1-1.763 1.856c-1.821.216-3.68 1.214-5.663 3.046z" fill="#25242e"/><path d="M730.526 556.567c23.36-3.823 49.689 9.99 57.92 33.879 9.047 26.258-19.793 49.617-46.175 8.777-24.344 0-25.513-12.065-25.513-12.065s-26.974-23.923 13.768-30.591z" fill="#fff"/><path d="M771.958 623.334c-3.391.001-6.936-.841-10.446-2.518-7.143-3.413-13.979-10.006-20.33-19.602-24.818-.368-26.362-13.307-26.416-13.865a2 2 0 0 1 1.798-2.183 1.995 1.995 0 0 1 2.181 1.772c.063.479 1.638 10.283 23.524 10.283a2 2 0 0 1 1.68.915c8.68 13.438 22.312 25.679 34.54 19.729 8.441-4.105 11.908-15.614 8.064-26.771-7.621-22.12-32.091-36.419-55.706-32.557a2.01 2.01 0 0 1-1.252-.203l-3.032-1.592a1.999 1.999 0 0 1-.841-2.7 1.996 1.996 0 0 1 2.7-.841l2.447 1.284c25.275-3.791 51.302 11.605 59.467 35.306 4.502 13.066.161 26.682-10.097 31.671-2.565 1.251-5.366 1.872-8.281 1.872z" fill="#25242e"/><path d="M700.837 624c-3.105-21.917-12.334-39.514-22.282-44.337-6.398-3.847-14.064-5.856-22.44-4.669l-19.461 2.757c-8.376 1.187-16.691 6.426-20.35 10.556v.003c-8.382 7.227-12.474 26.854-9.338 48.989 3.136 22.134 12.518 39.853 22.578 44.468l.001.012c5.517 4.889 14.104 5.666 22.48 4.479l19.461-2.757c8.376-1.187 17.387-6.519 20.261-10.716v-.003c8.216-7.398 12.195-26.865 9.09-48.782z" fill="#dda6ff"/><path d="M645.383 688.747c-5.863 0-12.222-1.212-16.973-5.306-10.88-5.244-20.271-23.6-23.425-45.864-3.169-22.373.807-42.704 9.896-50.683 4.136-4.614 12.81-9.896 21.491-11.126l19.461-2.757c8.201-1.162 16.386.529 23.676 4.89 10.815 5.314 20.175 23.706 23.307 45.817 3.119 22.019-.719 42.208-9.553 50.384-3.241 4.516-12.54 10.107-21.498 11.377l-19.461 2.757a49.68 49.68 0 0 1-6.921.511zm-14.388-8.358c5.596 4.846 14.36 4.792 20.749 3.887l19.461-2.757c7.652-1.084 16.227-6.055 18.85-9.806.097-.153.215-.295.353-.419 7.889-7.102 11.364-26.435 8.449-47.015-2.916-20.579-11.623-38.187-21.174-42.817a1.853 1.853 0 0 1-.158-.086c-6.512-3.916-13.819-5.438-21.129-4.403l-19.461 2.757c-7.654 1.084-15.517 5.863-19.076 9.837a1.933 1.933 0 0 1-.248.256c-8.054 6.944-11.617 26.352-8.664 47.194 2.953 20.843 11.766 38.497 21.431 42.93.235.108.444.259.617.442z" fill="#dda6ff"/><path d="M634.615 684.951c-3.883 0-7.871-1.81-11.635-5.3a2 2 0 0 1 2.72-2.933c2.381 2.209 6.065 4.721 10.091 4.15 5.037-.713 9.427-6.207 12.045-15.073 2.812-9.523 3.368-21.779 1.564-34.51-1.803-12.729-5.741-24.349-11.087-32.716-4.978-7.791-10.722-11.849-15.758-11.135-2.714.384-5.197 2.081-7.381 5.043a2 2 0 1 1-3.219-2.373c2.844-3.859 6.222-6.091 10.039-6.631 6.751-.955 13.745 3.64 19.689 12.941 5.648 8.84 9.795 21.024 11.677 34.31 1.882 13.285 1.282 26.143-1.688 36.203-3.126 10.587-8.567 16.944-15.32 17.901-.575.082-1.155.123-1.737.123z" fill="#25242e"/><path d="M154.826 466.248c9.178-14.29 83.977-167.588 83.977-167.588 19.536-76.02-109.8-89.824-138.755-52.378-22.582 35.597-50.209 92.501-83.031 168.504-29.17 67.547-10.596 102.015 11.366 119.196 41.038 27.245 86.747-5.931 126.443-67.734z" fill="#fff"/><path d="M58.696 545.595c-10.92 0-21.447-3.327-31.419-9.947a1.825 1.825 0 0 1-.126-.091C5.168 518.36-14.753 483.31 15.181 413.992 49.467 334.6 76.675 279.391 98.359 245.21c.033-.053.069-.104.107-.152 8.659-11.198 26.365-18.633 48.578-20.397 21.796-1.731 44.342 2.189 61.856 10.755 27.623 13.511 38.93 36.148 31.839 63.743-.034.131-.08.258-.14.379-3.056 6.264-74.955 153.566-84.091 167.792-19.963 31.081-51.114 69.675-86.144 77.027-3.933.826-7.825 1.238-11.668 1.238zm-29.142-13.236c12.537 8.302 25.991 11.019 39.989 8.084 26.655-5.595 55.564-31.625 83.6-75.275 8.868-13.808 80.788-161.087 83.772-167.2 8.723-34.356-14.896-51.683-29.772-58.958-35.522-17.373-88.693-13.116-105.457 8.424-21.562 34.008-48.659 89.012-82.833 168.146-15.955 36.945-27.042 87.187 10.701 116.779zm125.272-66.111h.01zm124.028-440.09c-2.032 13.167 4.807 24.387 15.79 29.825 9.61 4.757 24.622 3.781 33.291-5.528 1.753-11.744-6.18-25.067-15.79-29.825-10.64-5.267-24.107-3.386-33.291 5.528z" fill="#25242e"/><path d="M236.402 21.618c3.116 12.954 13.701 20.74 25.926 21.603 10.696.755 24.216-5.844 28.704-17.746-2.834-11.531-15.23-20.848-25.926-21.603-11.843-.836-23.589 6.013-28.704 17.746z" fill="#25242e"/><path d="M194.145 30.219c6.994 11.339 19.477 15.443 31.364 12.456 10.4-2.613 21.192-13.094 21.751-25.802-6.283-10.075-20.964-15.069-31.364-12.456-11.514 2.894-20.544 13.06-21.751 25.802z" fill="#25242e"/><path d="M169.716 57.64c9.908 6.812 21.71 5.65 30.435-1.149 7.634-5.948 12.724-18.535 8.553-29.231-8.86-6.028-22.801-4.799-30.435 1.149-8.452 6.586-12.201 18.271-8.553 29.231zm235.065-39.917c-61.276-45.192-119.418 4.596-119.418 53.778 0 29.331 180.383-8.816 119.418-53.778z" fill="#25242e"/><path d="M433.116 109.767c14.811-42.524 4.766-80.052-42.151-92.547-48.544-12.93-79.074 14.454-90.735 57.154-6.947-17.533-27.958-10.641-32.069 4.819-3.042 11.439 6.022 26.513 26.51 24.777 1.859 47.545 37.611 67.807 74.156 72.702 44.744 5.994 81.259-28.114 64.289-66.905z" fill="#fff"/><path d="M379.135 179.366c-3.478 0-7.011-.234-10.573-.711-21.798-2.92-72.4-15.831-75.789-72.569-9.298.307-17.102-2.762-22.125-8.755-4.459-5.318-6.111-12.291-4.42-18.652 2.423-9.114 10.544-16.103 19.308-16.618 5.827-.336 10.796 2.178 14.157 7.04 6.397-20.342 17.03-36.116 30.929-45.806 16.678-11.627 37.154-14.323 60.857-8.008 20.642 5.498 35.152 15.909 43.127 30.945 8.898 16.776 9.12 38.706.652 63.457 6.918 16.401 5.114 32.861-5.11 46.428-11.145 14.79-30.086 23.248-51.013 23.249zm-84.464-77.395a2 2 0 0 1 1.998 1.922c.835 21.365 8.696 38.489 23.364 50.896 12.25 10.362 29.215 17.244 49.06 19.902 23.558 3.157 45.73-4.885 57.861-20.981 9.466-12.562 11.004-27.883 4.329-43.141a1.999 1.999 0 0 1-.056-1.459c8.35-23.975 8.297-45.069-.154-61.003-7.432-14.013-21.1-23.754-40.623-28.954-22.513-5.997-41.872-3.499-57.541 7.424-14.184 9.889-24.818 26.599-30.751 48.325a2 2 0 0 1-3.789.21c-2.446-6.173-6.921-9.4-12.6-9.056-7.091.417-13.684 6.158-15.677 13.653-1.357 5.104-.004 10.731 3.62 15.054 4.532 5.405 11.915 7.969 20.789 7.217.058-.007.114-.009.17-.009z" fill="#25242e"/><path d="M373.319 118.27c-5.932-12.902 11.822-15.542 13.946-4.252 11.491-12.441 22.958 3.134 8.69 9.156 2.89 2.749 2.71 13.686-8.192 13.913-14.636.306-17.927-13.299-14.444-18.817z" fill="#dda6ff"/><g fill="#25242e"><path d="M393.172 124.839c-12.91 0-27.219-6.056-33.74-14.761a2 2 0 0 1 3.202-2.399c6.51 8.693 22.597 14.582 35.131 12.856a2 2 0 0 1 .545 3.963 37.6 37.6 0 0 1-5.138.341zM278.469 88.296a2 2 0 0 1-.914-3.78l13.792-7.073a2 2 0 1 1 1.825 3.559l-13.792 7.073a2.002 2.002 0 0 1-.911.221z"/><path d="M288.504 90.968a2 2 0 0 1-1.77-1.066l-7.145-13.52a2 2 0 0 1 3.537-1.87l7.145 13.52a2 2 0 0 1-1.767 2.936zm116.282 1.786a2 2 0 0 1-1.678-3.086c3.53-5.458 8.422-8.794 13.423-9.151 3.243-.236 8.157.704 13.178 6.469a2 2 0 0 1-3.017 2.627c-3.161-3.63-6.482-5.349-9.876-5.106-3.736.267-7.508 2.939-10.349 7.333a1.996 1.996 0 0 1-1.681.914z"/><path d="M418.797 94.572c-2.065 7.177-6.341 12.246-9.551 11.322-3.209-.924-4.136-7.49-2.071-14.667.826-2.869 2.005-5.401 3.328-7.349 3.562-1.455 8.482-2.013 8.76-1.235 1.612 4.521.208 9.585-.466 11.929zm-62.72-14.937a2 2 0 0 1-1.678-3.086c3.53-5.458 8.422-8.794 13.422-9.151 3.238-.234 8.156.703 13.178 6.469a2 2 0 0 1-3.017 2.627c-3.162-3.63-6.486-5.347-9.877-5.106-3.735.267-7.507 2.939-10.348 7.333a1.993 1.993 0 0 1-1.68.914z"/><path d="M370.088 81.453c-2.065 7.177-6.341 12.246-9.55 11.322s-4.137-7.49-2.071-14.667c.826-2.869 2.005-5.401 3.328-7.349 3.562-1.455 8.482-2.013 8.76-1.235 1.612 4.522.208 9.585-.467 11.929z"/><path d="M404.781 17.723c37.149 0 67.559 24.982 52.067 73.161-7.415-5.046-15.526-9.565-24.213-13.596.997-6.969 2.274-13.097.614-18.508-1.149 6.687-3.664 11.414-6.45 15.909-11.557-4.938-24.03-9.071-37.154-12.483 2.392-8.739 3.647-15.888.2-29.547-3.447 12.511-8.524 21.574-11.745 26.121-18.059-3.838-40.481-6.541-59.873-8.121L300.23 74.374c7.767-47.765 48.136-76.949 104.551-56.651z"/><path d="m477.549 73.501-.077-.001a2 2 0 0 1-1.923-2.074c.972-25.616-9.708-39.086-18.839-45.876-13.546-10.072-32.717-12.292-51.281-5.934a1.999 1.999 0 1 1-1.296-3.784c19.811-6.785 40.358-4.352 54.963 6.508 9.902 7.363 21.488 21.883 20.449 49.238a1.998 1.998 0 0 1-1.996 1.923zM159.796 93.749c11.686 1.014 21.142-5.65 25.276-15.618 3.617-8.721 1.88-21.852-6.805-28.922-10.419-.853-21.659 6.897-25.276 15.618-4.004 9.656-1.564 21.376 6.805 28.922zm-8.875 64.663c14.789-1.969 24.688-12.856 27.066-26.372 2.081-11.826-3.702-27.649-16.438-34.027-13.171 1.82-24.986 14.546-27.066 26.372-2.305 13.094 3.963 26.97 16.438 34.027z"/></g><ellipse cx="161.845" cy="98.013" fill="#dda6ff" rx="6.453" ry="10.371" transform="matrix(.1831 -.9831 .9831 .1831 35.8582 239.1777)"/><path d="M517.76 296.665c-31.519-61.616-77.377-77.77-123.219-90.876-36.102-10.322-86.291-19.807-124.513-22.735-41.064-3.146-122.417-1.319-169.98 63.228l107.643 77.997 193.213 31.676s122.244-48.757 116.856-59.29z" fill="#fff"/><path d="M519.079 302.808a2 2 0 0 1-1.905-1.395l-1.269-3.984c-30.463-59.445-73.236-75.801-121.914-89.717-37.596-10.749-87.475-19.857-124.116-22.664-29.725-2.277-57.28-.202-81.899 6.171-36.791 9.522-65.832 28.447-86.318 56.249a2 2 0 0 1-3.221-2.373c21.045-28.56 50.833-47.989 88.536-57.748 25.046-6.483 53.041-8.599 83.207-6.287 36.883 2.825 87.08 11.99 124.91 22.807 22.229 6.354 45.751 13.711 67.5 27.479 23.885 15.12 42.514 36.188 56.949 64.408.05.098.092.2.125.305l1.319 4.143a2 2 0 0 1-1.904 2.606z" fill="#25242e"/><path d="M448.533 447.905s11.778-105.523 7.234-118.822-26.548-71.805-50.987-120.296c-4.55-1.61-12.082-3.43-19.024-5.418 2.638 15.254 18.251 98.253 18.251 98.253L288.475 282.83l-33.692-100.565c-6.977-.323-17.368.065-22.947.318 4.379 23.221 6.485 101.638-16.456 134.506l-13.321 81.794z" fill="#b153e0"/><path d="M448.533 449.905c-.13 0-.261-.013-.39-.038L201.67 400.844a2 2 0 0 1-1.584-2.283l13.321-81.794c.048-.296.162-.577.334-.823 22.468-32.189 20.624-109.166 16.131-132.991a1.998 1.998 0 0 1 1.875-2.368c6.912-.313 16.535-.622 23.13-.318a1.999 1.999 0 0 1 1.804 1.362l33.308 99.421 111.527 18.141c-2.75-14.633-15.394-81.976-17.73-95.48a2 2 0 0 1 2.522-2.264c2.462.706 4.998 1.39 7.448 2.051 4.469 1.205 8.689 2.343 11.692 3.405.486.172.887.525 1.119.985 23.464 46.557 45.662 104.654 51.094 120.55 4.635 13.566-6.656 115.363-7.139 119.69a2.001 2.001 0 0 1-1.989 1.777zm-244.189-52.608 242.441 48.222c3.381-30.737 10.613-105.478 7.09-115.789-5.379-15.744-27.28-73.071-50.515-119.316-2.809-.942-6.625-1.971-10.645-3.056-1.459-.394-2.949-.795-4.435-1.204 3.734 20.874 17.547 94.314 17.694 95.098.12.641-.079 1.3-.534 1.767s-1.108.685-1.753.577l-115.532-18.792a1.999 1.999 0 0 1-1.575-1.338l-33.253-99.256c-5.638-.181-13.083.023-19.13.272 4.25 26.472 5.272 100.995-16.915 133.373z" fill="#b153e0"/><path d="M625.413 544.994c-34.338 43.391-196.88-89.089-156.718-168.524 11.092-14.85 177.662 142.059 156.718 168.524z" fill="#bbddfa"/><path d="M355.496 506.946s74.895 178.785 93.854 230.172c49.743 134.824 45.674 164.328 3.661 258.696-24.279 54.534-135.406 277.345-135.406 277.345s-146.896 8.517-113.631-44.017c3.527-27.774 12.595-63.893 34.828-152.641 24.184-96.534 37.579-130.095 79.106-199.205-23.511-51.232-103.905-195.749-144.386-298.008-33.172-83.799 181.974-72.342 181.974-72.342z" fill="#fff"/><path d="M295.58 1275.701c-30.844 0-84.116-3.028-96.026-23.257-4.005-6.803-3.166-14.873 2.493-23.992 3.563-27.686 12.653-63.971 34.453-150.99l.363-1.448c24.097-96.189 37.429-129.914 78.788-198.842-7.76-16.787-21.547-43.546-37.463-74.438-33.444-64.912-79.248-153.811-106.524-222.712a2 2 0 0 1 3.719-1.473c27.203 68.718 72.954 157.515 106.36 222.353 16.245 31.529 30.274 58.759 37.984 75.559a1.999 1.999 0 0 1-.103 1.864c-41.529 69.113-54.799 102.532-78.881 198.661l-.363 1.448c-21.874 87.314-30.928 123.454-34.421 150.959a2 2 0 0 1-.294.818c-5.076 8.017-5.948 14.625-2.664 20.203 14.504 24.634 102.21 21.33 113.337 20.805 8.302-16.657 111.714-224.259 134.847-276.22 21.917-49.229 32.356-78.749 32.405-113.366.048-33.786-9.403-71.422-36.116-143.823-18.714-50.724-31.679-79.892-31.808-80.181a2 2 0 1 1 3.653-1.629c.129.289 13.143 29.563 31.908 80.425 49.797 134.968 45.855 165.317 3.612 260.201-24.019 53.95-134.332 275.195-135.443 277.424a2 2 0 0 1-1.674 1.104c-1.177.069-9.894.547-22.142.547zm22.026-2.543h.01z" fill="#25242e"/><path d="M326.787 898.219a2 2 0 0 1-1.811-1.148l-13.901-29.55a2 2 0 0 1 3.619-1.703l13.901 29.55a2 2 0 0 1-1.808 2.851z" fill="#25242e"/><path d="M355.496 506.946s34.011 81.189 61.996 149.87c-51.775-12.923-153.807 26.524-174.339 72.957-23.22-45.387-48.757-97.758-69.631-150.486-33.173-83.798-10.062-145.606 38.537-180.405 22.507-16.116 53.534-22.596 81.474-29.697 88.271-22.435 61.963 137.761 61.963 137.761z" fill="#b153e0"/><path d="M243.153 731.773a1.998 1.998 0 0 1-1.78-1.089c-19.106-37.346-47.12-93.596-69.71-150.661-15.922-40.22-19.782-77.164-11.474-109.806 7.463-29.322 24.997-54.552 50.707-72.961 20.438-14.634 47.262-21.312 73.204-27.769 3.006-.748 5.991-1.491 8.942-2.241 18.536-4.709 33.623-1.881 44.84 8.409 14.942 13.708 22.768 40.086 23.26 78.401.363 28.288-3.632 52.968-3.672 53.214a2.001 2.001 0 0 1-3.948-.649c.159-.966 15.467-97.005-18.347-128.021-10.16-9.32-24.005-11.837-41.149-7.479-2.957.752-5.949 1.496-8.961 2.246-25.577 6.366-52.025 12.95-71.841 27.139-24.933 17.853-41.932 42.299-49.159 70.695-8.096 31.81-4.288 67.926 11.317 107.347 21.822 55.124 48.737 109.521 67.734 146.754 11.1-20.687 38.622-41.433 74.737-56.121 35.108-14.278 71.511-19.94 96.347-15.141l-3.992-9.777a2 2 0 0 1 3.703-1.511l5.433 13.307a2 2 0 0 1-2.336 2.696c-24.043-5.999-61.46-.586-97.648 14.133-37.308 15.174-65.113 36.741-74.378 57.692a1.998 1.998 0 0 1-1.829 1.193z" fill="#b153e0"/><path d="M412.352 453.26s131.575-184.685 172.047-221.59c57.428-52.367 118.893-41.528 147.86-10.493 28.949 31.016 14.525 100.183-4.675 127.604-40.09 57.255-94.18 144.999-164.535 229.533-84.353 101.352-179.927 62.071-241.917-4.653 58.36-68.521 91.22-120.401 91.22-120.401z" fill="#fff"/><path d="M563.047 580.314a1.999 1.999 0 0 1-1.536-3.279c52.029-62.516 95.444-127.224 130.329-179.217 12.183-18.158 23.689-35.309 34.106-50.185 17.898-25.561 33.715-94.167 4.852-125.092-15.025-16.098-37.55-25.354-61.798-25.394h-.157c-19.936 0-50.485 6.265-83.095 36C545.905 269.479 475.704 370.344 475 371.359a2 2 0 0 1-3.285-2.281c.707-1.019 71.164-102.252 111.337-138.885 33.554-30.598 65.145-37.045 85.79-37.045h.164c25.35.042 48.938 9.761 64.716 26.665 13.272 14.22 19.042 37.91 16.247 66.707-2.312 23.823-10.456 48.712-20.746 63.408-10.394 14.843-21.89 31.978-34.061 50.118-34.936 52.07-78.414 116.873-130.576 179.547a1.998 1.998 0 0 1-1.539.721z" fill="#25242e"/><path d="M412.352 453.26s27.402-38.026 61.005-83.042c-4.594 44.447 88.744 134.922 139.069 144.656-15.712 21.38-32.253 42.862-49.378 63.439-84.353 101.352-179.927 62.071-241.917-4.653 8.304-50.073 91.221-120.4 91.221-120.4z" fill="#b153e0"/><path d="M563.047 580.314a1.999 1.999 0 0 1-1.536-3.279c15.276-18.354 30.829-38.292 47.484-60.872-23.943-5.938-58.068-28.789-88.12-59.193-29.992-30.344-47.998-59.835-49.565-80.657l-1.01 1.354a2 2 0 1 1-3.207-2.391l4.661-6.253a2 2 0 0 1 3.593 1.401c-4.489 43.437 88.678 133.051 137.46 142.486a2 2 0 0 1 1.232 3.148c-17.393 23.668-33.569 44.45-49.453 63.534a1.996 1.996 0 0 1-1.539.722z" fill="#b153e0"/><path d="M451.805 419.406 202.06 398.882l-27.802 36.823 285.601 20.712z" fill="#fff"/><path d="M412.352 453.26s24.904-34.56 56.344-76.79c-28.837 59.179 130.458 198.683 156.718 168.524-133.696 167.112-242.292 95.39-304.283 28.666s91.221-120.4 91.221-120.4z" fill="#dda6ff"/><path d="M460.278 649.736c-47.252.001-94.532-25.114-140.613-74.714-13.018-14.012-17.764-28.609-14.107-43.387 4.871-19.684 24.273-39.192 57.667-57.985 22.468-12.645 44.04-20.675 47.868-22.062 3.195-4.427 26.949-37.292 55.999-76.311a2 2 0 0 1 3.402 2.07c-8.514 17.473-.14 44.852 23.578 77.094 20.349 27.662 50.351 56.342 78.297 74.848 25.446 16.85 44.712 22.232 51.537 14.393a2 2 0 0 1 3.07 2.562c-53.294 66.615-107.723 101.404-161.772 103.401-1.642.06-3.285.091-4.926.091zm3.381-263.134c-27.918 37.636-49.454 67.507-49.685 67.827a2.006 2.006 0 0 1-.961.719c-.924.323-92.553 32.909-103.573 77.451-3.311 13.384 1.115 26.74 13.155 39.7 45.29 48.748 91.593 73.434 137.692 73.437 1.592 0 3.176-.029 4.768-.088 50.874-1.88 102.295-33.734 152.942-94.719-8.462 1.343-23.003-1.859-47.837-18.306-28.311-18.748-58.701-47.797-79.31-75.813-20.253-27.53-29.606-51.916-27.191-70.208zm-51.307 66.658h.01z" fill="#dda6ff"/><path d="m165.126 1297.742 165.423 69.411a67.415 67.415 0 0 0 26.354 5.25l48.924-.197c4.962.181 9.118-3.644 9.283-8.543.164-4.9-3.726-9.019-8.688-9.2l-41.165-.742a67.402 67.402 0 0 1-24.134-4.937l-169.397-68.743c-5.115-1.858-10.766.876-12.411 6.004-1.54 4.806 1.019 9.957 5.811 11.697z" fill="#fff"/><path d="m352.731 1353.495-184.635-74.772c7.39-24.511 16.036-34.625 31.133-51.156 0 0-3.613-10.585-5.027-15.025-2.653-8.329 12.728-12.826 14.017-.446.336 3.228 1.71 11.553 1.71 11.553.816 5.512 3.959 10.426 8.651 13.523l28.172 18.598a30.225 30.225 0 0 0 15.104 4.951l38.821 1.984 12.399-12.764c3.341-3.439 8.709-3.994 12.699-1.313l8.546 5.743c5.2 3.495 5.813 10.83 1.263 15.118l-4.901 4.619s22.779 21.718 44.032 41.529c1.815 1.692 5.345 3.652 7.666 4.57 13.377 5.292 30.158 14.416 27.036 34.364l-37.954-1.241c-5.375-.195-18.732.165-18.732.165z" fill="#25242e"/><path d="m409.417 1356.573-.066-.001-37.954-1.241c-5.258-.193-18.479.16-18.612.164a1.86 1.86 0 0 1-.805-.146l-184.635-74.771a2 2 0 0 1-1.164-2.431c7.337-24.336 15.668-34.483 30.773-51.054-.969-2.849-3.527-10.391-4.658-13.942-.949-2.979-.206-5.92 2.039-8.07 2.568-2.458 6.506-3.3 9.801-2.089 1.998.732 5.443 2.863 6.071 8.898.326 3.131 1.68 11.353 1.694 11.436a17.719 17.719 0 0 0 7.779 12.179l28.172 18.598a28.236 28.236 0 0 0 14.104 4.622l37.916 1.938 11.767-12.113c4.027-4.147 10.441-4.812 15.249-1.58l8.547 5.744c2.99 2.01 4.873 5.206 5.166 8.771.292 3.554-1.037 7.003-3.647 9.463l-3.365 3.172c5.461 5.196 24.621 23.402 42.488 40.058 1.6 1.491 4.899 3.327 7.038 4.174 13.742 5.437 31.624 15.138 28.276 36.533a1.997 1.997 0 0 1-1.974 1.688zm-42.326-5.3c1.707 0 3.259.017 4.445.06l36.128 1.182c1.671-17.15-12.937-25.271-26.019-30.446-2.496-.987-6.251-3.063-8.293-4.967-21.018-19.593-43.821-41.326-44.048-41.544a2 2 0 0 1 .008-2.902l4.901-4.62a7.655 7.655 0 0 0 2.404-6.224c-.193-2.346-1.436-4.451-3.411-5.778l-8.547-5.744a7.956 7.956 0 0 0-10.149 1.047l-12.399 12.764a2.024 2.024 0 0 1-1.537.604l-38.821-1.984a32.227 32.227 0 0 1-16.104-5.278l-28.172-18.598c-5.157-3.405-8.63-8.835-9.527-14.898-.051-.31-1.383-8.39-1.721-11.64-.303-2.914-1.503-4.836-3.471-5.558-1.865-.685-4.19-.183-5.657 1.224-.789.756-1.602 2.058-.994 3.966 1.392 4.369 4.978 14.88 5.014 14.985a2 2 0 0 1-.416 1.995c-14.833 16.242-23.069 25.971-30.16 48.642l182.549 73.928c1.781-.049 8.645-.216 13.997-.216z" fill="#25242e"/><path d="M349.643 1374.432c-4.589 0-9.059-.899-13.291-2.676l-171.957-72.151c-5.786-2.129-8.853-8.343-6.984-14.169.957-2.984 3.046-5.394 5.881-6.784a11.559 11.559 0 0 1 9.117-.49l175.505 71.221a30.236 30.236 0 0 0 10.862 2.222l47.681.859c6.09.222 10.852 5.275 10.651 11.267a10.722 10.722 0 0 1-3.435 7.533 10.92 10.92 0 0 1-7.92 2.941l-55.976.228-.134-.001zm-181.205-92.982a7.691 7.691 0 0 0-3.384.792c-1.85.908-3.212 2.476-3.833 4.415-1.214 3.786.801 7.83 4.589 9.205l.091.035 172 72.17a30.187 30.187 0 0 0 11.743 2.364h.119l56.057-.227c1.965.06 3.76-.593 5.127-1.868a6.754 6.754 0 0 0 2.165-4.742c.127-3.793-2.906-6.993-6.762-7.133l-47.645-.858a34.212 34.212 0 0 1-12.294-2.515l-175.436-71.194a7.452 7.452 0 0 0-2.537-.444z" fill="#25242e"/><path d="M216.14 1284.529c-5.724 0-11.41-2.41-15.356-7.077-3.421-4.046-5.043-9.166-4.569-14.418.476-5.268 3.002-10.033 7.113-13.418 8.455-6.963 21.075-5.835 28.131 2.512 3.42 4.045 5.043 9.165 4.569 14.416-.476 5.269-3.002 10.033-7.113 13.419-3.726 3.068-8.263 4.566-12.775 4.566zm-12.301-9.66c5.651 6.684 15.76 7.583 22.534 2.005 3.279-2.7 5.293-6.496 5.672-10.69.377-4.177-.916-8.252-3.64-11.475-5.651-6.684-15.76-7.584-22.534-2.006-3.279 2.7-5.293 6.496-5.672 10.689-.377 4.179.916 8.255 3.64 11.477zm169.634 56.079c-.271 0-.543-.007-.816-.021-2.77-.137-6.431-1.627-11.194-4.555l-52.871-32.511a2.563 2.563 0 0 1-.109-.072c-7.248-5.136-11.292-13.716-10.553-22.394l.754-8.86c.094-1.101 1.06-1.928 2.162-1.823a2 2 0 0 1 1.823 2.163l-.754 8.86c-.617 7.25 2.765 14.43 8.828 18.753l52.814 32.476c5.128 3.153 7.886 3.898 9.297 3.969 4.001.192 7.86-1.535 10.325-4.633l1.406-1.769a2 2 0 1 1 3.131 2.491l-1.406 1.769c-3.096 3.892-7.848 6.157-12.837 6.157z" fill="#fff"/><path d="M202.06 398.882c-92.555 91.612-44.103 228.951-11.364 336.543-7.983-26.043 138.739-126.488 221.363-91.916l-18.155-44.162-40.387-172.33z" fill="#dda6ff"/><path d="M190.695 737.426a2 2 0 0 1-1.911-1.415l-.001-.004a6429.775 6429.775 0 0 0-4.927-16.087c-32.106-104.478-72.063-234.504 16.798-322.46a2.005 2.005 0 0 1 1.772-.545l151.457 28.136c.78.146 1.401.738 1.582 1.511l40.35 172.174 18.095 44.013a2.001 2.001 0 0 1-2.622 2.606c-34.378-14.384-77.325-4.041-107.299 7.17-40.866 15.284-74.681 38.17-92.7 54.49-19.761 17.898-19.294 25.822-18.68 27.825l.001.004a2 2 0 0 1-1.915 2.582zm12.032-336.386c-38.205 38.232-55.187 87.733-51.905 151.288 2.884 55.863 20.933 114.598 36.857 166.417.794 2.584 1.584 5.153 2.367 7.708 3.374-7.508 11.306-15.836 18.558-22.404 18.294-16.569 52.59-39.79 93.984-55.272 29.403-10.996 71.094-21.144 105.854-8.808l-16.388-39.86a1.898 1.898 0 0 1-.097-.305l-40.089-171.059z" fill="#dda6ff"/><path d="M252.53 676.995a1.998 1.998 0 0 1-1.792-1.109c-7.948-15.988-27.945-58.314-41.947-105.912-16.115-54.783-19.017-98.055-8.624-128.611a1.999 1.999 0 1 1 3.786 1.287c-25.014 73.544 37.567 205.708 50.365 231.455a2 2 0 0 1-1.788 2.89zm-61.835 60.431a2 2 0 0 1-1.911-1.415c-1.757-5.731 2.197-13.826 11.751-24.062 8.751-9.374 21.939-20.051 37.135-30.062a2 2 0 1 1 2.201 3.34c-34.121 22.479-49.604 41.973-47.262 49.611a2 2 0 0 1-1.914 2.588z" fill="#25242e"/><path d="M362.725 412.085 202.06 398.882l-27.802 36.823 188.467 13.668zm-170.051-32.269c-11.871-38.638-6.178-64.959-.448-87.743 5.251-20.878 32.682-23.821 31.544 5.618-1.605 41.493 9.35 37.167 9.35 37.167 22.568 23.563-28.574 83.596-40.446 44.958z" fill="#fff"/><path d="M192.674 381.817a2.002 2.002 0 0 1-1.911-1.414c-11.586-37.708-6.836-63.529-.476-88.818a2.001 2.001 0 0 1 3.879.977c-6.217 24.717-10.862 49.945.42 86.668a2 2 0 0 1-1.912 2.587z" fill="#25242e"/><ellipse cx="359.588" cy="322.105" fill="#dda6ff" rx="49.184" ry="22.429" transform="matrix(.1486 -.9889 .9889 .1486 -12.3804 629.8295)"/><path d="M422.486 284.005c-5.032-5.516-11.804-9.632-20.169-10.89l-19.438-2.921c-8.365-1.257-17.832 1.386-22.518 4.298l-14.03 93.357c3.889 6.262 11.896 9.461 20.262 10.718l19.438 2.921c8.365 1.257 18.525-1.277 22.479-4.477v-.003c9.988-4.739 19.366-22.257 22.655-44.147 3.288-21.89-.526-41.39-8.679-48.856z" fill="#dda6ff"/><path d="M390.657 383.819a33.02 33.02 0 0 1-4.925-.353l-19.437-2.921c-7.262-1.091-16.916-3.996-21.663-11.64a2.003 2.003 0 0 1-.279-1.353l14.03-93.357c.087-.58.424-1.093.922-1.402 5.259-3.267 15.147-5.891 23.871-4.576l19.437 2.921c8.194 1.23 15.556 5.193 21.296 11.46 8.84 8.188 12.55 28.482 9.231 50.561-3.305 21.991-12.753 40.241-23.556 45.551-3.606 2.789-11.33 5.109-18.927 5.109zm-42.235-16.427c4.091 5.906 12.245 8.263 18.468 9.198l19.438 2.921c7.64 1.146 17.272-1.16 20.862-4.005.137-.12.292-.224.462-.304 9.591-4.551 18.446-22.084 21.535-42.638s-.221-39.916-8.051-47.085a1.902 1.902 0 0 1-.127-.127c-5.122-5.615-11.688-9.163-18.989-10.26l-19.438-2.921c-7.267-1.089-15.667.96-20.385 3.562zm60.086 9.62h.01z" fill="#dda6ff"/><path d="M353.835 372.859c-.618 0-1.236-.046-1.854-.139-4.343-.652-8.214-3.608-11.193-8.547a2 2 0 0 1 3.425-2.066c1.635 2.71 4.412 6.064 8.362 6.658 10.951 1.652 23.414-18.332 27.215-43.624s-2.24-48.05-13.19-49.696c-4.645-.691-9.833 2.566-14.61 9.19-.927 1.242-1.959 2.893-3.365 5.377a2 2 0 0 1-3.481-1.971c1.492-2.637 2.609-4.417 3.621-5.772 5.678-7.874 12.232-11.712 18.429-10.779 13.547 2.036 20.817 25.864 16.552 54.245-4.071 27.088-16.967 47.124-29.911 47.124z" fill="#25242e"/><ellipse cx="357.61" cy="321.808" fill="#dda6ff" rx="19.944" ry="9.095" transform="matrix(.1486 -.9889 .9889 .1486 -13.7703 627.6206)"/><path d="M355.284 343.578c-.311 0-.623-.023-.935-.07a2 2 0 0 1-1.681-2.274 1.993 1.993 0 0 1 2.275-1.681c3.313.501 8.157-6.534 9.683-16.69.75-4.991.578-9.784-.484-13.495-.884-3.091-2.33-5.073-3.866-5.305a2 2 0 0 1 .594-3.955c3.223.483 5.75 3.382 7.117 8.159 1.216 4.25 1.427 9.645.594 15.189-1.765 11.754-7.377 20.122-13.297 20.122z" fill="#25242e"/><path d="m354.64 341.533-100.336-15.078 5.927-39.446 100.337 15.078z" fill="#dda6ff"/><path d="M354.649 343.53c-.099 0-.199-.007-.3-.022l-20.469-3.076a2 2 0 0 1 .594-3.955l20.469 3.076a2 2 0 0 1-.294 3.977zm5.928-39.445c-.099 0-.199-.007-.3-.022l-22.789-3.425a2 2 0 0 1-1.681-2.274 1.993 1.993 0 0 1 2.275-1.681l22.789 3.425a2 2 0 0 1-.294 3.977z" fill="#25242e"/><path d="M317.058 442.63c20.727-16.752 46.119-60.935 51.969-89.009-21.253-18.284-134.907-18.763-134.907-18.763l-29.662 50.184c0-.001 82.85 76.643 112.6 57.588z" fill="#fff"/><path d="M371.271 347.304s5.018-20.691.923-36.218c-10.951-41.522-52.373-17.799-58.212 4.895-3.205 12.458 16.1 26.182 23.533-2.064-1.031 4.482-4.742 24.736-4.742 24.736-2.613 21.501 34.468 32.496 38.498 8.651z" fill="#fff"/><path d="M367.379 362.753a2 2 0 0 1-1.937-2.504c.088-.337 8.732-33.812 4.818-48.652-3.669-13.909-11.116-21.26-21.537-21.26h-.067c-13.38.04-29.289 12.746-32.737 26.144-1.378 5.356 2.329 10.754 6.438 11.823 5.453 1.425 10.396-4.149 13.224-14.895a1.997 1.997 0 0 1 2.413-1.433 1.999 1.999 0 0 1 1.47 2.39c-1.009 4.388-4.687 24.446-4.724 24.648a1.996 1.996 0 0 1-2.328 1.606 1.999 1.999 0 0 1-1.607-2.327c.071-.386.882-4.81 1.833-9.883-4.567 4.842-9.392 4.257-11.289 3.764-6.79-1.767-11.138-9.566-9.305-16.69 3.913-15.209 21.357-29.102 36.598-29.147h.073c7.138 0 19.854 3.17 25.411 24.24 4.181 15.853-4.446 49.268-4.815 50.682a1.998 1.998 0 0 1-1.932 1.494z" fill="#25242e"/><path d="M346.994 343.423s5.328-21.966.98-38.449c-11.626-44.081-55.6-18.896-61.799 5.197-3.403 13.225 17.092 27.795 24.983-2.192-1.094 4.759-5.035 26.26-5.035 26.26-2.773 22.826 36.593 34.498 40.871 9.184z" fill="#fff"/><path d="M346.996 345.423a2 2 0 0 1-1.946-2.471c.052-.215 5.155-21.679.99-37.469-3.919-14.859-11.904-22.696-23.055-22.662-14.253.043-31.201 13.577-34.873 27.848-1.216 4.725 1.544 11.302 6.923 12.701 2.197.571 9.711 1.114 14.189-15.9a1.997 1.997 0 0 1 2.413-1.433 1.999 1.999 0 0 1 1.47 2.39c-1.072 4.661-4.977 25.958-5.016 26.173a1.998 1.998 0 0 1-2.328 1.606 1.999 1.999 0 0 1-1.607-2.327c.077-.42.982-5.354 2.026-10.915-4.89 5.434-10.12 4.808-12.154 4.277-7.02-1.826-11.686-10.2-9.79-17.568 4.142-16.098 22.604-30.803 38.734-30.852h.086c17.476 0 24.321 16.059 26.849 25.643 4.426 16.779-.748 38.514-.97 39.431a1.998 1.998 0 0 1-1.941 1.528z" fill="#25242e"/><path d="M316.268 338.75s5.549-22.878 1.021-40.047c-12.109-45.912-57.91-19.681-64.367 5.413-3.544 13.775 17.802 28.95 26.021-2.283-1.14 4.956-5.244 27.351-5.244 27.351-2.888 23.775 38.113 35.932 42.569 9.566z" fill="#fff"/><path d="M316.269 340.75a2 2 0 0 1-1.946-2.471c.054-.225 5.374-22.6 1.031-39.067-4.093-15.517-12.415-23.668-24.094-23.665-14.879.045-32.57 14.171-36.402 29.066-1.276 4.958 1.623 11.861 7.271 13.331 2.307.6 10.196 1.176 14.88-16.62a1.999 1.999 0 0 1 3.883.957c-1.117 4.856-5.185 27.04-5.226 27.264a1.998 1.998 0 0 1-2.328 1.606 1.999 1.999 0 0 1-1.607-2.327c.082-.444 1.055-5.753 2.165-11.665-5.12 5.867-10.644 5.21-12.775 4.656-7.269-1.892-12.101-10.565-10.137-18.198 4.306-16.734 23.497-32.02 40.264-32.07h.09c18.146 0 25.257 16.687 27.884 26.646 4.604 17.457-.78 40.075-1.011 41.029a2 2 0 0 1-1.942 1.528z" fill="#25242e"/><path d="M289.27 334.45s5.431-22.392.999-39.195c-11.852-44.936-56.679-19.262-62.998 5.298-3.469 13.482 17.424 28.334 25.468-2.234-1.115 4.851-5.132 26.77-5.132 26.77-2.828 23.268 37.302 35.167 41.663 9.361z" fill="#fff"/><path d="M289.271 336.45a2 2 0 0 1-1.946-2.471c.053-.22 5.257-22.108 1.009-38.215-3.992-15.134-12.106-23.131-23.467-23.131h-.073c-14.545.044-31.84 13.854-35.587 28.417-1.244 4.833 1.581 11.562 7.086 12.995 2.247.583 9.938 1.143 14.511-16.236a1.999 1.999 0 0 1 3.883.957c-1.093 4.753-5.074 26.463-5.114 26.682a1.997 1.997 0 0 1-2.328 1.606 1.999 1.999 0 0 1-1.607-2.327c.079-.432 1.016-5.539 2.091-11.264-4.997 5.636-10.364 4.994-12.444 4.453-7.136-1.857-11.88-10.371-9.952-17.862 4.218-16.396 23.021-31.371 39.449-31.421h.088c17.789 0 24.758 16.352 27.332 26.111 4.509 17.097-.763 39.242-.989 40.177a2 2 0 0 1-1.942 1.529z" fill="#25242e"/><path d="M192.228 379.115s-69.505 16.103-87.47 23.152C40.06 427.65-15.94 499.262 28.383 533.981c32.605 25.541 73.276 21.735 105.629 6.923 130.729-59.849 173.43-89.443 183.046-98.275 5.164-4.741-124.83-63.514-124.83-63.514z" fill="#fff"/><path d="M83.68 554.639c-20.909 0-40.337-6.398-56.53-19.083-8.592-6.95-14.77-14.321-18.913-22.553a2 2 0 0 1 3.573-1.799c3.882 7.715 9.714 14.656 17.831 21.223 13.079 10.244 49.402 31.443 103.538 6.659 144.034-65.94 177.317-93.146 182.526-97.929a2 2 0 1 1 2.706 2.945c-5.287 4.855-38.985 32.43-183.567 98.62-17.391 7.963-34.736 11.917-51.164 11.917zM58.7 425.725a2 2 0 0 1-.972-3.749c29.896-16.599 129.744-43.648 133.979-44.792a2 2 0 1 1 1.042 3.861c-1.033.279-103.61 28.066-133.08 44.429a2 2 0 0 1-.969.251z" fill="#25242e"/><path d="M317.059 444.63a2 2 0 0 1-1.369-3.458c24.576-23.073 45.224-58.422 51.38-87.96a2.001 2.001 0 0 1 3.916.816c-6.31 30.277-27.431 66.47-52.558 90.06a2 2 0 0 1-1.369.542z" fill="#25242e"/><ellipse cx="240.871" cy="304.263" fill="#dda6ff" rx="49.184" ry="22.429" transform="matrix(.1486 -.9889 .9889 .1486 -95.8107 497.241)"/><path d="M235.118 355.017c-.618 0-1.236-.046-1.854-.139-6.745-1.014-12.132-7.417-15.169-18.03-2.886-10.085-3.377-22.946-1.383-36.215l1.978.297-1.978-.297c4.265-28.382 18.217-49.024 31.765-46.984 6.745 1.014 12.132 7.416 15.168 18.029 2.886 10.086 3.377 22.947 1.383 36.216-4.07 27.088-16.966 47.122-29.91 47.123zm11.491-97.508c-10.626 0-22.286 19.402-25.94 43.718-1.911 12.715-1.459 24.975 1.273 34.521 2.543 8.889 6.887 14.42 11.917 15.176.422.063.848.095 1.275.095 10.626.002 22.285-19.402 25.94-43.718 1.911-12.715 1.459-24.975-1.273-34.521-2.543-8.888-6.887-14.419-11.917-15.175a8.39 8.39 0 0 0-1.275-.096z" fill="#dda6ff"/><path d="m198.48 353.303 19.438 2.921c8.366 1.257 18.525-1.277 22.479-4.477l13.978-93.007c-5.032-5.516-11.804-9.632-20.169-10.889l-19.438-2.921c-8.366-1.257-17.832 1.387-22.518 4.299l-14.03 93.357c3.887 6.261 11.894 9.46 20.26 10.717z" fill="#dda6ff"/><path d="M222.545 358.554c-1.663 0-3.319-.11-4.926-.353l-19.437-2.921c-7.262-1.091-16.916-3.996-21.663-11.64a2.003 2.003 0 0 1-.279-1.353l14.03-93.357c.087-.58.424-1.093.922-1.402 5.259-3.267 15.147-5.891 23.871-4.576l19.437 2.921c8.219 1.234 15.602 5.218 21.349 11.519.406.444.59 1.049.5 1.645l-13.978 93.008a2.004 2.004 0 0 1-.719 1.258c-3.523 2.852-11.38 5.251-19.107 5.251zm-42.236-16.427c4.09 5.906 12.245 8.263 18.467 9.198l19.438 2.921c7.286 1.094 16.386-.955 20.326-3.614l13.711-91.232c-5.023-5.217-11.347-8.52-18.345-9.571l-19.438-2.921c-7.266-1.089-15.667.96-20.385 3.562z" fill="#dda6ff"/><ellipse cx="191.476" cy="296.84" fill="#dda6ff" rx="49.184" ry="22.429" transform="matrix(.1486 -.9889 .9889 .1486 -130.5239 442.0742)"/><path d="M185.723 347.594c-.618 0-1.236-.046-1.854-.139-13.547-2.036-20.817-25.864-16.551-54.246 4.265-28.383 18.218-49.022 31.765-46.984 6.745 1.014 12.132 7.417 15.168 18.03 2.886 10.085 3.377 22.946 1.383 36.215-4.071 27.089-16.967 47.124-29.911 47.124zm-16.427-54.088 1.978.297c-3.801 25.292 2.24 48.051 13.19 49.697.422.063.848.095 1.275.095 10.626.002 22.285-19.402 25.94-43.719 1.911-12.715 1.459-24.975-1.273-34.521-2.543-8.889-6.887-14.42-11.917-15.176-10.947-1.645-23.414 18.332-27.215 43.623z" fill="#dda6ff"/><path d="M185.723 347.594c-.618 0-1.236-.046-1.854-.139-4.414-.663-8.333-3.701-11.334-8.784a1.999 1.999 0 1 1 3.445-2.033c1.651 2.797 4.463 6.258 8.484 6.862 10.956 1.647 23.414-18.332 27.215-43.624 1.911-12.715 1.459-24.975-1.273-34.521-2.543-8.889-6.887-14.42-11.917-15.176-2.71-.403-5.575.51-8.514 2.724a2 2 0 1 1-2.407-3.196c3.828-2.885 7.702-4.06 11.515-3.483 6.745 1.014 12.132 7.417 15.169 18.03 2.886 10.085 3.377 22.946 1.383 36.215-4.072 27.09-16.968 47.125-29.912 47.125z" fill="#25242e"/><path d="M709.079 204.737c42.33 20.791 68.913 75.561 47.149 158.042-14.084 53.372-102.539 323.501-102.539 323.501s-94.782 56.57-119.67-38.955c2.137-27.916 13.158-131.213 13.158-131.213 12.987-114.618 29.126-154.493 46.829-188.852 19.424-37.695 78.275-140.597 115.073-122.523z" fill="#fff"/><path d="M596.512 704.954c-8.365.001-16.885-1.304-25.02-4.637-19.116-7.834-32.375-25.493-39.408-52.487a1.988 1.988 0 0 1-.059-.656c2.115-27.627 13.053-130.239 13.164-131.272 13.18-116.326 29.772-156.042 47.041-189.557a2 2 0 0 1 3.556 1.832c-17.091 33.171-33.518 72.522-46.62 188.162-.108 1.016-10.954 102.758-13.126 130.806 6.717 25.521 19.15 42.163 36.957 49.466 32.543 13.346 73.455-8.545 79.032-11.683 5.125-15.663 88.718-271.314 102.266-322.659 23.013-87.212-8.48-137.782-45.628-156.027l-.58-.28c-1.93-.937-4.846-2.351-8.144-3.447a2 2 0 1 1 1.262-3.795c3.545 1.178 6.727 2.721 8.627 3.643l.584.282c38.583 18.951 71.376 71.099 47.746 160.646-13.937 52.817-101.687 320.911-102.572 323.612a2 2 0 0 1-.876 1.096c-1.465.873-28.843 16.953-58.202 16.955z" fill="#25242e"/><path d="m689.621 833.816-56.386-36.376-146.001-94.261c-4.327-3.295-5.194-9.417-1.937-13.673 3.257-4.256 9.405-5.034 13.732-1.739l145.215 93.681 55.897 36.06c4.571 2.949 5.921 8.99 3.016 13.493-2.904 4.503-8.965 5.763-13.536 2.815z" fill="#fff"/><path d="m658.246 698.118-5.9 15.828s32.615 44.549 38.31 52.173c16.385 21.933 21.366 34.065 9.979 51.708l-56.88-36.694-147.277-95.222c10.858-17.834 22.998-33.56 38.217-44.225 0 0-.771-10.111-1.575-17.771-.975-9.288 14.521-10.002 13.875 2.115-.19 3.572-.443 7.991-.656 11.658-.269 4.625 1.415 9.172 4.648 12.559l20.333 21.31a48.839 48.839 0 0 0 23.875 13.759l33.416 8.055 2.927-8.843c1.855-5.604 8.393-8.093 13.627-5.188l7.609 4.224c5.185 2.88 7.514 9.074 5.472 14.554z" fill="#25242e"/><path d="M700.633 819.827a2 2 0 0 1-1.082-.319l-56.88-36.694-147.278-95.223a2 2 0 0 1-.622-2.72c12.494-20.521 24.544-34.59 37.843-44.16-.225-2.847-.847-10.532-1.482-16.587-.343-3.266.939-6.098 3.518-7.771 2.796-1.813 6.664-1.883 9.627-.169 3.235 1.87 4.954 5.497 4.716 9.951-.19 3.574-.443 7.998-.657 11.668-.236 4.054 1.258 8.086 4.098 11.062l20.333 21.31a46.715 46.715 0 0 0 22.896 13.196l31.626 7.623 2.349-7.096a11.29 11.29 0 0 1 6.643-6.99c3.218-1.257 6.809-1.007 9.854.682l7.609 4.225c6.005 3.334 8.746 10.643 6.376 17.001l-5.523 14.817c4.588 6.266 32.477 44.348 37.662 51.288 16.658 22.298 22.064 35.385 10.058 53.989a2 2 0 0 1-1.684.917zM499.205 685.292l145.636 94.161 55.169 35.591c9.284-15.541 5.017-26.346-10.957-47.728-5.636-7.546-37.996-51.744-38.322-52.189a2.002 2.002 0 0 1-.26-1.88l5.9-15.827c1.685-4.521-.28-9.726-4.57-12.106l-7.609-4.225a7.584 7.584 0 0 0-6.458-.454 7.31 7.31 0 0 0-4.3 4.521l-2.927 8.843a1.996 1.996 0 0 1-2.367 1.316l-33.416-8.055a50.712 50.712 0 0 1-24.853-14.323l-20.333-21.31c-3.603-3.776-5.498-8.9-5.197-14.057.213-3.664.466-8.08.656-11.648.156-2.94-.811-5.169-2.724-6.275-1.667-.963-3.907-.938-5.448.062-.912.592-1.951 1.766-1.717 3.997.798 7.6 1.573 17.726 1.58 17.827a2 2 0 0 1-.846 1.79c-12.841 9-24.514 22.366-36.637 41.969zm159.041 12.826h.01z" fill="#25242e"/><path d="M685.435 774.864a18.228 18.228 0 0 1-13.151-5.597l-41.747-43.509c-6.176-6.437-8.566-15.717-6.238-24.219l2.381-8.696a2 2 0 0 1 3.858 1.057l-2.381 8.696c-1.958 7.151.059 14.966 5.266 20.393l41.747 43.509c4.621 4.816 12.025 5.771 17.605 2.271a2 2 0 0 1 2.125 3.389 17.784 17.784 0 0 1-9.465 2.706zm-140.195-74.78c-3.789 0-7.63-1.056-11.058-3.268-9.392-6.06-12.17-18.529-6.192-27.796 5.978-9.268 18.483-11.878 27.876-5.817 9.393 6.06 12.171 18.529 6.192 27.796-3.797 5.885-10.226 9.085-16.818 9.085zm-13.889-28.895c-4.782 7.414-2.54 17.402 4.999 22.267 7.54 4.862 17.564 2.788 22.346-4.624 4.783-7.414 2.54-17.402-4.999-22.267-7.54-4.863-17.564-2.789-22.346 4.624z" fill="#fff"/><path d="M694.996 837.405a11.89 11.89 0 0 1-6.459-1.908l-56.386-36.376L486.15 704.86a2.242 2.242 0 0 1-.127-.09c-2.54-1.934-4.171-4.729-4.593-7.872a11.535 11.535 0 0 1 2.279-8.607c3.904-5.102 11.275-6.062 16.467-2.163l201.049 129.701a11.844 11.844 0 0 1 5.179 7.407c.687 3.075.131 6.219-1.567 8.85-2.221 3.445-5.984 5.319-9.841 5.319zm-4.29-5.27c3.637 2.345 8.469 1.351 10.771-2.218a7.584 7.584 0 0 0 1.024-5.809 7.868 7.868 0 0 0-3.444-4.919L497.946 689.448c-.044-.028-.086-.059-.128-.09-3.445-2.624-8.349-2.012-10.932 1.363a7.563 7.563 0 0 0-1.491 5.644 7.834 7.834 0 0 0 2.994 5.178l145.932 94.216zM412.06 645.51a2.002 2.002 0 0 1-1.851-1.24l-16.522-40.191a1.998 1.998 0 0 1 .317-2.045l30.308-36.164a2 2 0 1 1 3.066 2.568l-29.531 35.238 16.062 39.072a2 2 0 0 1-1.849 2.762zm-14.024-173.438a2.002 2.002 0 0 1-1.562-3.249l23.139-28.992a2.001 2.001 0 0 1 3.127 2.497l-23.14 28.993a1.997 1.997 0 0 1-1.564.751z" fill="#25242e"/></svg></g></svg>