<svg height="1285" viewBox="0 0 930.151 1284.869" width="931" xmlns="http://www.w3.org/2000/svg"><rect fill="#fff" height="1269.869" rx="80" width="513.73" x="208.21" y="7.5"/><path d="m641.94 1284.869h-353.73c-48.248 0-87.5-39.252-87.5-87.5v-1109.869c-0-48.248 39.253-87.5 87.5-87.5h353.73c48.248 0 87.5 39.252 87.5 87.5v1109.869c0 48.248-39.252 87.5-87.5 87.5zm-353.73-1269.869c-39.977 0-72.5 32.523-72.5 72.5v1109.869c0 39.977 32.523 72.5 72.5 72.5h353.73c39.977 0 72.5-32.523 72.5-72.5v-1109.869c0-39.977-32.523-72.5-72.5-72.5z" fill="#1e284c"/><circle cx="465.075" cy="642.434" fill="#fff" r="457.575"/><path d="m465.075 1107.51c-62.781 0-123.689-12.297-181.031-36.551-55.381-23.425-105.118-56.958-147.827-99.667s-76.242-92.446-99.667-147.827c-24.253-57.342-36.55-118.249-36.55-181.03s12.297-123.689 36.551-181.031c23.425-55.382 56.958-105.118 99.667-147.827s92.446-76.242 147.827-99.667c57.342-24.253 118.25-36.551 181.031-36.551s123.689 12.297 181.031 36.551c55.381 23.425 105.118 56.958 147.827 99.667s76.242 92.445 99.667 147.827c24.253 57.342 36.551 118.25 36.551 181.031s-12.297 123.689-36.551 181.031c-23.425 55.381-56.958 105.118-99.667 147.827s-92.446 76.242-147.827 99.667c-57.342 24.253-118.25 36.551-181.031 36.551zm0-915.151c-248.172 0-450.075 201.903-450.075 450.076s201.903 450.075 450.075 450.075 450.075-201.903 450.075-450.075-201.903-450.076-450.075-450.076z" fill="#1e284c"/><circle cx="465.075" cy="642.434" fill="#1e284c" r="400.865"/><path d="m465.075 1050.799c-55.125 0-108.606-10.798-158.957-32.094-48.628-20.568-92.3-50.012-129.801-87.513s-66.945-81.172-87.513-129.801c-21.296-50.35-32.094-103.831-32.094-158.957s10.798-108.606 32.094-158.957c20.568-48.628 50.012-92.3 87.513-129.801s81.172-66.945 129.801-87.513c50.35-21.296 103.831-32.094 158.957-32.094s108.606 10.798 158.957 32.094c48.628 20.568 92.3 50.012 129.801 87.513s66.945 81.173 87.513 129.801c21.296 50.35 32.094 103.831 32.094 158.957s-10.798 108.606-32.094 158.957c-20.568 48.628-50.012 92.3-87.513 129.801s-81.173 66.945-129.801 87.513c-50.35 21.296-103.831 32.094-158.957 32.094zm0-801.73c-216.902 0-393.365 176.463-393.365 393.365s176.463 393.365 393.365 393.365 393.365-176.463 393.365-393.365-176.463-393.365-393.365-393.365z" fill="#1e284c"/><path d="m465.075 945.746c-167.246 0-303.311-136.065-303.311-303.311s136.065-303.311 303.311-303.311c12.426 0 22.5 10.074 22.5 22.5s-10.074 22.5-22.5 22.5c-142.433 0-258.311 115.878-258.311 258.311s115.878 258.311 258.311 258.311c12.426 0 22.5 10.074 22.5 22.5s-10.074 22.5-22.5 22.5z" fill="#fff"/><path d="m465.076 990.746c-192.06 0-348.312-156.251-348.312-348.311s156.252-348.311 348.312-348.311 348.311 156.251 348.311 348.311c0 12.426-10.074 22.5-22.5 22.5s-22.5-10.074-22.5-22.5c0-167.246-136.064-303.311-303.311-303.311s-303.312 136.065-303.312 303.311 136.065 303.311 303.312 303.311c12.426 0 22.5 10.074 22.5 22.5s-10.074 22.5-22.5 22.5z" fill="#95ff80"/><path d="m465.076 1035.746c-216.873 0-393.312-176.438-393.312-393.311s176.439-393.312 393.312-393.312 393.311 176.438 393.311 393.311c0 53.354-10.553 105.137-31.365 153.908-4.877 11.43-18.097 16.741-29.525 11.863-11.429-4.877-16.741-18.096-11.863-29.525 18.416-43.156 27.754-88.996 27.754-136.246 0-192.06-156.251-348.311-348.311-348.311s-348.313 156.252-348.313 348.312 156.252 348.311 348.312 348.311c12.426 0 22.5 10.074 22.5 22.5s-10.074 22.5-22.5 22.5z" fill="#dea2ff"/><circle cx="655.015" cy="447.49" fill="#fff" r="95.073"/><path d="m655.016 550.064c-56.56 0-102.574-46.014-102.574-102.573s46.014-102.574 102.574-102.574 102.573 46.014 102.573 102.574-46.014 102.573-102.573 102.573zm0-190.147c-48.289 0-87.574 39.286-87.574 87.574s39.285 87.573 87.574 87.573 87.573-39.285 87.573-87.573-39.285-87.574-87.573-87.574z" fill="#1e284c"/><path d="m681.824 406.09c-11.597 0-21.673 6.71-26.809 16.576-5.136-9.867-15.213-16.576-26.809-16.576-16.806 0-30.43 14.086-30.43 31.462 0 35.836 57.239 61.338 57.239 61.338s57.239-25.502 57.239-61.338c0-17.376-13.624-31.462-30.43-31.462z" fill="#dea2ff"/><g fill="#fff"><path d="m325.714 715.579c-2.114 0-4.03-.495-5.745-1.486-1.718-.99-2.575-2.476-2.575-4.457v-114.102l-7.329 10.895c-.663.792-1.356 1.356-2.08 1.684-.728.331-1.421.495-2.08.495-1.718 0-3.139-.725-4.259-2.179-1.124-1.452-1.685-3.036-1.685-4.754 0-1.188.362-2.476 1.09-3.863.725-1.387 1.485-2.408 2.278-3.07l18.423-21.592c.525-.792 1.188-1.417 1.98-1.882.793-.461 1.783-.693 2.972-.693 1.848 0 3.531.495 5.051 1.486 1.518.99 2.278 2.476 2.278 4.457v133.119c0 1.981-.86 3.467-2.575 4.457-1.718.991-3.634 1.486-5.744 1.486z"/><path d="m394.65 716.767c-8.982 0-16.708-1.616-23.178-4.853-6.472-3.235-11.359-7.429-14.658-12.579-3.303-5.15-4.953-10.762-4.953-16.838 0-3.037.759-5.117 2.278-6.24 1.517-1.121 3.532-1.684 6.042-1.684 3.17 0 5.349.628 6.537 1.882 1.188 1.257 1.783 2.873 1.783 4.853 0 4.358 1.154 8.057 3.466 11.093 2.31 3.04 5.448 5.349 9.41 6.934 3.962 1.584 8.319 2.377 13.074 2.377 8.187 0 14.591-2.244 19.215-6.735 4.621-4.488 6.934-11.49 6.934-20.998v-3.764c0-9.112-2.313-15.912-6.934-20.403-4.624-4.488-10.963-6.735-19.017-6.735h-28.13c-3.039 0-5.085-.625-6.141-1.882-1.059-1.253-1.585-2.804-1.585-4.655 0-.792.031-1.517.099-2.179.065-.659.164-1.387.298-2.179l4.16-55.466c.263-1.848.724-3.3 1.387-4.358.659-1.055 1.649-1.584 2.971-1.584h57.052c1.848 0 3.2.761 4.061 2.278.857 1.52 1.287 3.269 1.287 5.25 0 1.851-.43 3.566-1.287 5.15-.86 1.585-2.213 2.377-4.061 2.377h-46.949l-2.971 43.382h19.81c8.054 0 15.284 1.322 21.691 3.962 6.403 2.644 11.489 7.001 15.253 13.074 3.764 6.076 5.646 14.065 5.646 23.969v3.764c0 10.434-1.916 18.754-5.745 24.959-3.831 6.209-8.948 10.731-15.352 13.57-6.407 2.841-13.569 4.259-21.493 4.259z"/><path d="m463.386 652.783c-2.906 0-5.349-1.055-7.329-3.169-1.98-2.111-2.972-4.556-2.972-7.33s.991-5.181 2.972-7.23c1.98-2.046 4.423-3.07 7.329-3.07 2.773 0 5.182 1.024 7.23 3.07 2.046 2.049 3.07 4.457 3.07 7.23s-1.024 5.219-3.07 7.33c-2.049 2.114-4.457 3.169-7.23 3.169zm0 63.984c-2.906 0-5.349-1.059-7.329-3.169s-2.972-4.488-2.972-7.131c0-2.903.991-5.379 2.972-7.429 1.98-2.046 4.423-3.07 7.329-3.07 2.773 0 5.182 1.024 7.23 3.07 2.046 2.049 3.07 4.525 3.07 7.429 0 2.643-1.024 5.021-3.07 7.131-2.049 2.111-4.457 3.169-7.23 3.169z"/><path d="m531.332 716.767c-7.265 0-13.57-1.024-18.918-3.07-5.349-2.046-9.775-4.72-13.272-8.023-3.501-3.299-6.076-6.933-7.726-10.895-1.653-3.962-2.477-7.856-2.477-11.688 0-3.169.625-5.25 1.882-6.24 1.254-.99 3.2-1.485 5.844-1.485 3.433 0 5.745.563 6.934 1.684 1.188 1.124 1.782 2.742 1.782 4.854s.462 4.327 1.387 6.636c.923 2.313 2.378 4.458 4.358 6.438 1.981 1.981 4.621 3.6 7.924 4.853 3.3 1.257 7.329 1.882 12.084 1.882 8.846 0 15.482-2.179 19.908-6.537 4.423-4.358 6.636-11.291 6.636-20.8v-3.764c0-8.583-2.411-14.758-7.23-18.522-4.822-3.764-11.191-5.646-19.115-5.646-2.114 0-3.601-.724-4.457-2.179-.861-1.452-1.288-3.036-1.288-4.754s.427-3.299 1.288-4.754c.856-1.452 2.277-2.179 4.259-2.179 4.754 0 8.846-.659 12.281-1.981 3.433-1.318 6.073-3.729 7.924-7.23 1.848-3.498 2.773-8.351 2.773-14.56 0-8.054-1.816-13.931-5.447-17.63-3.634-3.695-9.212-5.546-16.739-5.546-4.491 0-8.255.594-11.291 1.783-3.04 1.188-5.448 2.743-7.23 4.655-1.783 1.916-3.006 3.931-3.665 6.042-.662 2.114-.99 4.293-.99 6.537 0 2.114-.563 3.863-1.684 5.25-1.124 1.387-3.204 2.08-6.24 2.08-2.377 0-4.16-.263-5.349-.792-1.188-.526-2.015-1.417-2.477-2.674-.464-1.253-.693-2.938-.693-5.051 0-3.037.595-6.404 1.783-10.103 1.188-3.696 3.269-7.261 6.24-10.697 2.972-3.433 7.063-6.271 12.281-8.518 5.216-2.244 11.787-3.368 19.711-3.368 7.395 0 13.932 1.124 19.611 3.368 5.677 2.247 10.134 5.912 13.371 10.994 3.234 5.085 4.854 11.984 4.854 20.701s-1.485 15.881-4.457 21.493c-2.972 5.615-6.834 9.542-11.589 11.787 5.81 2.377 10.629 6.076 14.461 11.093 3.829 5.021 5.745 11.821 5.745 20.404v3.764c0 10.301-1.916 18.522-5.745 24.663-3.832 6.141-9.013 10.632-15.55 13.471-6.537 2.841-13.768 4.259-21.691 4.259z"/><path d="m629.783 716.767c-8.982 0-16.708-1.616-23.178-4.853-6.472-3.235-11.359-7.429-14.658-12.579-3.303-5.15-4.953-10.762-4.953-16.838 0-3.037.759-5.117 2.278-6.24 1.517-1.121 3.532-1.684 6.042-1.684 3.17 0 5.349.628 6.537 1.882 1.188 1.257 1.783 2.873 1.783 4.853 0 4.358 1.154 8.057 3.466 11.093 2.31 3.04 5.448 5.349 9.41 6.934 3.962 1.584 8.319 2.377 13.074 2.377 8.187 0 14.591-2.244 19.215-6.735 4.621-4.488 6.934-11.49 6.934-20.998v-3.764c0-9.112-2.313-15.912-6.934-20.403-4.624-4.488-10.963-6.735-19.017-6.735h-28.13c-3.039 0-5.085-.625-6.141-1.882-1.059-1.253-1.585-2.804-1.585-4.655 0-.792.031-1.517.099-2.179.065-.659.164-1.387.298-2.179l4.16-55.466c.263-1.848.724-3.3 1.387-4.358.659-1.055 1.649-1.584 2.971-1.584h57.052c1.848 0 3.2.761 4.061 2.278.857 1.52 1.287 3.269 1.287 5.25 0 1.851-.43 3.566-1.287 5.15-.86 1.585-2.213 2.377-4.061 2.377h-46.949l-2.971 43.382h19.81c8.054 0 15.284 1.322 21.691 3.962 6.403 2.644 11.489 7.001 15.253 13.074 3.764 6.076 5.646 14.065 5.646 23.969v3.764c0 10.434-1.916 18.754-5.745 24.959-3.831 6.209-8.948 10.731-15.352 13.57-6.407 2.841-13.569 4.259-21.493 4.259z"/></g></svg>