<svg xmlns="http://www.w3.org/2000/svg" viewBox="0 0 1080 1080" width="1080" height="1080"><g transform="translate(50.0 351.0) rotate(0.0 223.0 319.0) scale(0.4529643265202488 0.4536656612070351)"><svg width="984.625" height="1406.322" viewBox="0 0 984.625 1406.322"><path d="M338.434 445.633a1457.687 1457.687 0 0 0-25.512 55.1 1503.662 1503.662 0 0 0-23.751 57.512 1495.716 1495.716 0 0 0-13.941 37.305 1492.612 1492.612 0 0 0-10.148 29.195 1759.166 1759.166 0 0 0-9.667 29.639 1678.093 1678.093 0 0 0-11.557 38.107l264.757 88.983a1260.792 1260.792 0 0 1 11.201-38.226c3.05-9.831 6.244-19.726 9.585-29.667a1129.222 1129.222 0 0 1 10.239-29.164 1129.048 1129.048 0 0 1 14.333-37.173 1095.479 1095.479 0 0 1 25.048-57.076c9.003-19.016 18.297-37.171 27.759-54.344zm0 0a1457.687 1457.687 0 0 0-25.512 55.1 1503.662 1503.662 0 0 0-23.751 57.512 1495.716 1495.716 0 0 0-13.941 37.305 1492.612 1492.612 0 0 0-10.148 29.195 1759.166 1759.166 0 0 0-9.667 29.639 1678.093 1678.093 0 0 0-11.557 38.107l264.757 88.983a1260.792 1260.792 0 0 1 11.201-38.226c3.05-9.831 6.244-19.726 9.585-29.667a1129.222 1129.222 0 0 1 10.239-29.164 1129.048 1129.048 0 0 1 14.333-37.173 1095.479 1095.479 0 0 1 25.048-57.076c9.003-19.016 18.297-37.171 27.759-54.344zm0 0a1457.687 1457.687 0 0 0-25.512 55.1 1503.662 1503.662 0 0 0-23.751 57.512 1495.716 1495.716 0 0 0-13.941 37.305 1492.612 1492.612 0 0 0-10.148 29.195 1759.166 1759.166 0 0 0-9.667 29.639 1678.093 1678.093 0 0 0-11.557 38.107l264.757 88.983a1260.792 1260.792 0 0 1 11.201-38.226c3.05-9.831 6.244-19.726 9.585-29.667a1129.222 1129.222 0 0 1 10.239-29.164 1129.048 1129.048 0 0 1 14.333-37.173 1095.479 1095.479 0 0 1 25.048-57.076c9.003-19.016 18.297-37.171 27.759-54.344zm0 0a1457.687 1457.687 0 0 0-25.512 55.1 1503.662 1503.662 0 0 0-23.751 57.512 1495.716 1495.716 0 0 0-13.941 37.305 1492.612 1492.612 0 0 0-10.148 29.195 1759.166 1759.166 0 0 0-9.667 29.639 1678.093 1678.093 0 0 0-11.557 38.107l264.757 88.983a1260.792 1260.792 0 0 1 11.201-38.226c3.05-9.831 6.244-19.726 9.585-29.667a1129.222 1129.222 0 0 1 10.239-29.164 1129.048 1129.048 0 0 1 14.333-37.173 1095.479 1095.479 0 0 1 25.048-57.076c9.003-19.016 18.297-37.171 27.759-54.344zm0 0a1457.687 1457.687 0 0 0-25.512 55.1 1503.662 1503.662 0 0 0-23.751 57.512 1495.716 1495.716 0 0 0-13.941 37.305 1492.612 1492.612 0 0 0-10.148 29.195 1759.166 1759.166 0 0 0-9.667 29.639 1678.093 1678.093 0 0 0-11.557 38.107l264.757 88.983a1260.792 1260.792 0 0 1 11.201-38.226c3.05-9.831 6.244-19.726 9.585-29.667a1129.222 1129.222 0 0 1 10.239-29.164 1129.048 1129.048 0 0 1 14.333-37.173 1095.479 1095.479 0 0 1 25.048-57.076c9.003-19.016 18.297-37.171 27.759-54.344zm0 0a1457.687 1457.687 0 0 0-25.512 55.1 1503.662 1503.662 0 0 0-23.751 57.512 1495.716 1495.716 0 0 0-13.941 37.305 1492.612 1492.612 0 0 0-10.148 29.195 1759.166 1759.166 0 0 0-9.667 29.639 1678.093 1678.093 0 0 0-11.557 38.107l264.757 88.983a1260.792 1260.792 0 0 1 11.201-38.226c3.05-9.831 6.244-19.726 9.585-29.667a1129.222 1129.222 0 0 1 10.239-29.164 1129.048 1129.048 0 0 1 14.333-37.173 1095.479 1095.479 0 0 1 25.048-57.076c9.003-19.016 18.297-37.171 27.759-54.344zM901.42 126.542c-10.197-8.615-21.328-15.355-33.367-20.061a112.954 112.954 0 0 0-5.154-1.874c-.502-.169-.998-.326-1.503-.486a92.014 92.014 0 0 0-3.021-.902c-.046-.015-.103-.025-.149-.041-.365-.094-.724-.206-1.091-.291-.626-.163-1.261-.33-1.902-.479-.459-.116-.924-.216-1.385-.324a88.471 88.471 0 0 0-4.769-.933c-.519-.089-1.04-.17-1.571-.255l-.901-.133c-.339-.048-.688-.099-1.04-.142a95.85 95.85 0 0 0-5.65-.579 73.255 73.255 0 0 0-2.08-.133c-.179-.013-.36-.017-.542-.022a85.025 85.025 0 0 0-2.538-.099c-.889-.016-1.787-.035-2.694-.028-.895.001-1.802.008-2.714.031-.903.027-1.819.058-2.728.102-.918.04-1.833.101-2.76.166-.918.069-1.847.143-2.771.229 14.081-1.643 24.696-.471 31.702 1.063.437.09.862.186 1.276.287L567.355 5.277a88.183 88.183 0 0 0-5.294-1.638c-33.334-9.242-75.419-.825-121.675 24.6-22.39 12.301-45.765 28.59-69.578 48.787-16.77 14.208-33.765 30.359-50.8 48.411-22.709 24.077-45.502 51.55-67.93 82.352-12.227 16.782-24.346 34.543-36.291 53.297-13.042 20.479-25.877 42.121-38.409 64.922a1274.745 1274.745 0 0 0-28.911 55.777 1374.94 1374.94 0 0 0-25.43 55.127 1469.841 1469.841 0 0 0-23.632 57.552 1514.907 1514.907 0 0 0-13.886 37.323 1552.74 1552.74 0 0 0-10.129 29.201 1594.326 1594.326 0 0 0-9.649 29.645 1632.033 1632.033 0 0 0-11.484 38.131 1539.924 1539.924 0 0 0-15.988 60.121 1460.022 1460.022 0 0 0-13.219 59.231 1377.444 1377.444 0 0 0-11.019 61.791c-3.931 25.456-7.037 50.396-9.302 74.705-2.057 21.907-3.432 43.298-4.151 64.099-1.285 37.455-.422 72.964 2.54 106.037 2.18 24.331 5.497 47.337 9.934 68.824 6.198 30.01 14.577 57.067 25.085 80.603 16.378 36.676 37.923 64.846 64.431 82.452.067.042.135.083.199.133 9.112 6.034 18.819 10.815 29.094 14.268l295.681 99.376c143.825 48.131 357.817-202.694 478.037-560.394 108.527-322.903 103.552-622.544-4.159-713.468zm-407.568 877.869a1252.608 1252.608 0 0 1-20.959 36.229c-1.267-22.873-.758-48.404 1.533-75.996 1.647-19.961 4.223-40.995 7.732-62.896 3.09-19.325 6.894-39.324 11.42-59.836 4.349-19.713 9.364-39.899 15.038-60.44a1260.792 1260.792 0 0 1 11.201-38.226c3.05-9.831 6.244-19.726 9.585-29.667a1129.222 1129.222 0 0 1 10.239-29.164 1129.048 1129.048 0 0 1 14.333-37.173 1095.479 1095.479 0 0 1 25.048-57.076c9.003-19.016 18.297-37.171 27.759-54.344 10.732-19.473 21.696-37.698 32.71-54.5 13.913-21.224 27.921-40.189 41.692-56.575-4.316 38.399-10.635 78.369-18.965 119.455-12.844 63.347-30.47 129.34-52.991 196.348-32.639 97.109-72.187 186.35-115.375 263.861zM338.434 445.633a1457.687 1457.687 0 0 0-25.512 55.1 1503.662 1503.662 0 0 0-23.751 57.512 1495.716 1495.716 0 0 0-13.941 37.305 1492.612 1492.612 0 0 0-10.148 29.195 1759.166 1759.166 0 0 0-9.667 29.639 1678.093 1678.093 0 0 0-11.557 38.107l264.757 88.983a1260.792 1260.792 0 0 1 11.201-38.226c3.05-9.831 6.244-19.726 9.585-29.667a1129.222 1129.222 0 0 1 10.239-29.164 1129.048 1129.048 0 0 1 14.333-37.173 1095.479 1095.479 0 0 1 25.048-57.076c9.003-19.016 18.297-37.171 27.759-54.344zm0 0a1457.687 1457.687 0 0 0-25.512 55.1 1503.662 1503.662 0 0 0-23.751 57.512 1495.716 1495.716 0 0 0-13.941 37.305 1492.612 1492.612 0 0 0-10.148 29.195 1759.166 1759.166 0 0 0-9.667 29.639 1678.093 1678.093 0 0 0-11.557 38.107l264.757 88.983a1260.792 1260.792 0 0 1 11.201-38.226c3.05-9.831 6.244-19.726 9.585-29.667a1129.222 1129.222 0 0 1 10.239-29.164 1129.048 1129.048 0 0 1 14.333-37.173 1095.479 1095.479 0 0 1 25.048-57.076c9.003-19.016 18.297-37.171 27.759-54.344zm0 0a1457.687 1457.687 0 0 0-25.512 55.1 1503.662 1503.662 0 0 0-23.751 57.512 1495.716 1495.716 0 0 0-13.941 37.305 1492.612 1492.612 0 0 0-10.148 29.195 1759.166 1759.166 0 0 0-9.667 29.639 1678.093 1678.093 0 0 0-11.557 38.107l264.757 88.983a1260.792 1260.792 0 0 1 11.201-38.226c3.05-9.831 6.244-19.726 9.585-29.667a1129.222 1129.222 0 0 1 10.239-29.164 1129.048 1129.048 0 0 1 14.333-37.173 1095.479 1095.479 0 0 1 25.048-57.076c9.003-19.016 18.297-37.171 27.759-54.344zm0 0a1457.687 1457.687 0 0 0-25.512 55.1 1503.662 1503.662 0 0 0-23.751 57.512 1495.716 1495.716 0 0 0-13.941 37.305 1492.612 1492.612 0 0 0-10.148 29.195 1759.166 1759.166 0 0 0-9.667 29.639 1678.093 1678.093 0 0 0-11.557 38.107l264.757 88.983a1260.792 1260.792 0 0 1 11.201-38.226c3.05-9.831 6.244-19.726 9.585-29.667a1129.222 1129.222 0 0 1 10.239-29.164 1129.048 1129.048 0 0 1 14.333-37.173 1095.479 1095.479 0 0 1 25.048-57.076c9.003-19.016 18.297-37.171 27.759-54.344zm0 0a1457.687 1457.687 0 0 0-25.512 55.1 1503.662 1503.662 0 0 0-23.751 57.512 1495.716 1495.716 0 0 0-13.941 37.305 1492.612 1492.612 0 0 0-10.148 29.195 1759.166 1759.166 0 0 0-9.667 29.639 1678.093 1678.093 0 0 0-11.557 38.107l264.757 88.983a1260.792 1260.792 0 0 1 11.201-38.226c3.05-9.831 6.244-19.726 9.585-29.667a1129.222 1129.222 0 0 1 10.239-29.164 1129.048 1129.048 0 0 1 14.333-37.173 1095.479 1095.479 0 0 1 25.048-57.076c9.003-19.016 18.297-37.171 27.759-54.344z" fill="#9b3c82"/><path d="M862.899 104.607c-.502-.169-.998-.326-1.503-.486a92.014 92.014 0 0 0-3.021-.902c-.41-.11-.827-.231-1.24-.332-.626-.163-1.261-.33-1.902-.479-.459-.116-.924-.216-1.385-.324a88.471 88.471 0 0 0-4.769-.933c-.519-.089-1.04-.17-1.571-.255l-.901-.133c-.339-.048-.688-.099-1.04-.142a95.85 95.85 0 0 0-5.65-.579 73.255 73.255 0 0 0-2.08-.133c-.179-.013-.36-.017-.542-.022a85.025 85.025 0 0 0-2.538-.099c-.889-.016-1.787-.035-2.694-.028-.895.001-1.802.008-2.714.031-.903.027-1.819.058-2.728.102-.918.04-1.833.101-2.76.166-.918.069-1.847.143-2.771.229-42.701 4.05-92.332 31.171-143.597 76.973C571.075 272.36 457.646 447.99 384.725 664.954c-74.247 220.913-95.366 430.945-66.813 570.699 17.693 86.598 54.468 146.21 109.494 164.704 143.827 48.339 357.917-202.538 478.174-560.348 120.258-357.808 101.145-687.062-42.681-735.402zM529.401 713.58c41.128-122.372 98.22-225.099 151.781-288.833-4.316 38.399-10.635 78.369-18.965 119.455-12.844 63.347-30.47 129.34-52.991 196.348-32.638 97.109-72.186 186.35-115.374 263.861a1252.608 1252.608 0 0 1-20.959 36.229c-4.606-83.255 14.328-201.561 56.508-327.06z" fill="#5b2448"/><path d="M793.69 356.802c-28.367-9.534-69.281 16.508-112.509 67.945-4.316 38.399-10.635 78.369-18.965 119.455-12.844 63.347-30.47 129.34-52.991 196.348-32.638 97.109-72.186 186.35-115.374 263.861a1252.608 1252.608 0 0 1-20.959 36.229c2.478 44.766 11.758 79.397 27.904 99.555 6.728 8.411 14.649 14.299 23.764 17.362 15.17 5.099 32.428 1.958 50.913-8.25 68.863-38.04 154.801-174.213 213.386-348.525 74.32-221.125 76.489-419.897 4.831-443.98z" fill="#9b3c82"/><g fill="#5b2448"><path d="M156.257 1181.324c-28.553-139.755-7.434-349.786 66.813-570.699 72.92-216.964 186.349-392.594 292.768-487.693 51.265-45.803 100.896-72.923 143.597-76.973.923-.086 1.853-.16 2.771-.229.927-.066 1.842-.126 2.76-.166.909-.044 1.824-.075 2.728-.102.912-.023 1.819-.03 2.714-.031.907-.006 1.805.013 2.694.028.847.021 1.7.053 2.539.099.182.004.363.009.542.022.69.034 1.386.079 2.08.133 1.905.14 3.783.328 5.65.579.352.043.7.094 1.04.142l.901.133c.531.084 1.052.165 1.571.255.491.08.989.172 1.478.261a113.179 113.179 0 0 0-13.229-5.399c-.502-.169-.998-.326-1.503-.486a92.014 92.014 0 0 0-3.021-.902c-.41-.11-.827-.231-1.24-.332-.626-.163-1.261-.33-1.902-.479-.459-.116-.924-.216-1.385-.324a88.471 88.471 0 0 0-4.769-.933c-.519-.089-1.04-.17-1.571-.255l-.901-.133c-.339-.048-.688-.099-1.04-.142a95.85 95.85 0 0 0-5.65-.579 73.255 73.255 0 0 0-2.08-.133c-.179-.013-.36-.017-.542-.022a85.025 85.025 0 0 0-2.538-.099c-.889-.016-1.787-.035-2.694-.028-.895.001-1.802.008-2.714.031-.903.027-1.819.058-2.728.102-.918.04-1.833.101-2.76.166-.918.069-1.847.143-2.771.229-42.701 4.05-92.332 31.171-143.597 76.973-106.421 95.098-219.85 270.728-292.77 487.692-74.247 220.913-95.366 430.945-66.813 570.699 17.693 86.598 54.468 146.21 109.494 164.704a111.19 111.19 0 0 0 13.045 3.526c-48.115-22.876-80.655-79.784-96.967-159.635z"/><path d="M197.356 1195.137c-28.553-139.755-7.434-349.786 66.813-570.699 72.92-216.964 186.349-392.594 292.768-487.693 51.265-45.803 100.896-72.923 143.597-76.973.923-.086 1.853-.16 2.771-.229.927-.066 1.842-.126 2.76-.166.909-.044 1.824-.075 2.728-.102.912-.023 1.819-.03 2.714-.031.907-.006 1.805.013 2.694.028.847.021 1.7.053 2.539.099.182.004.363.009.542.022.69.034 1.386.079 2.08.133 1.905.14 3.783.328 5.65.579.352.043.7.094 1.04.142l.901.133c.531.084 1.052.165 1.571.255.491.08.989.172 1.478.261a113.179 113.179 0 0 0-13.229-5.399c-.502-.169-.998-.326-1.503-.486a92.014 92.014 0 0 0-3.021-.902c-.41-.11-.827-.231-1.24-.332-.626-.163-1.261-.33-1.902-.479-.459-.116-.924-.216-1.385-.324a88.471 88.471 0 0 0-4.769-.933c-.519-.089-1.04-.17-1.571-.255l-.901-.133c-.339-.048-.688-.099-1.04-.142a95.85 95.85 0 0 0-5.65-.579 73.255 73.255 0 0 0-2.08-.133c-.179-.013-.36-.017-.542-.022a85.025 85.025 0 0 0-2.538-.099c-.889-.016-1.787-.035-2.694-.028-.895.001-1.802.008-2.714.031-.903.027-1.819.058-2.728.102-.918.04-1.833.101-2.76.166-.918.069-1.847.143-2.771.229-42.701 4.05-92.332 31.171-143.597 76.973C424.949 223.25 311.52 398.88 238.599 615.844c-74.247 220.913-95.366 430.945-66.813 570.699 17.693 86.597 54.468 146.21 109.494 164.704a111.19 111.19 0 0 0 13.045 3.526c-48.117-22.877-80.658-79.785-96.969-159.636z"/></g></svg></g><g transform="translate(233.0 948.0) rotate(0.0 102.0 26.5) scale(1.534884770783017 1.5588235294117647)"><svg width="132.909" height="34" viewBox="0 0 132.909 34"><g><ellipse cx="66.455" cy="17" rx="66.455" ry="17" style="fill:#5b2448"/></g></svg></g><g transform="translate(951.0 974.0) rotate(0.0 38.5 10.0) scale(0.5793437615210407 0.5882352941176471)"><svg width="132.909" height="34" viewBox="0 0 132.909 34"><g><ellipse cx="66.455" cy="17" rx="66.455" ry="17" style="fill:#5b2448"/></g></svg></g><g transform="translate(338.0 261.0) rotate(0.0 352.0 364.0) scale(0.4515668857792351 0.4513516680482078)"><svg width="1559.016" height="1612.933" viewBox="0 0 1559.016 1612.933"><path d="M831.136 1136.543c30.622-31.762 153.767-294.517 280.589-170.922 17.741 19.08 10.763 101.938-280.589 170.922z" fill="#5b2448"/><path d="M1414.438 1407.627a739.375 739.375 0 0 1-103.329-4.991c-337.052-40.499-512.471-295.415-569.76-387.504l-.008-.001a891.526 891.526 0 0 0-2.235-3.502l69.758-79.514L1005 842.48a614.629 614.629 0 0 0 28.808 95.617c68.888 174.995 201.965 260.209 285.456 302.963 43.858 22.463 74.031 31.279 74.031 31.279 38.177 55.267 21.143 135.288 21.143 135.288z" fill="#f4ada2"/><path d="M1414.438 1407.627c-34.517.751-110.438-1.934-167.438-15.934l72.268-150.63c43.858 22.463 74.031 31.279 74.031 31.279 38.173 55.264 21.139 135.285 21.139 135.285z" fill="#66b0f0"/><path d="m1344.63 1253.312-57.682 145.912c3.391.51 6.787.989 10.181 1.445l56.649-143.301a574.75 574.75 0 0 1-9.148-4.056z" fill="#fff"/><path d="M989.409 1226.032c-8.182 0-17.974-1.983-27.641-8.955a2.498 2.498 0 0 1-.565-3.489 2.495 2.495 0 0 1 3.489-.565c17.28 12.46 35.282 7.061 41.195 5.288l.14-.042a2.496 2.496 0 0 1 3.112 1.677 2.5 2.5 0 0 1-1.677 3.112l-.139.042c-3.239.971-9.781 2.932-17.914 2.932z" fill="#9b3c82"/><path d="M1362.784 1606.029c13.912-2.747 36.312-12.211 58.631-45.533 41.132-61.409 134.433-236.462 134.433-236.462-32.164-17.116-76.508-14.85-104.362-30.885l-.078-.042c-30.299-17.434-50.339-21.739-57.746-24.678-10.906 7.543-1.06 16.239-4.442 36.507-5.34 32.033-40.862 86.656-42.088 89.648-12.072 31.54-15.01 53.47-16.813 71.253a116.78 116.78 0 0 0-.159 1.706c-.029.278-.052.547-.076.815a156.01 156.01 0 0 0-.536 7.959 283.45 283.45 0 0 0-.238 11.189c-.003 1.216.012 2.404.017 3.583.022 1.85.076 3.683.138 5.499.023.554.029 1.099.052 1.652a246.297 246.297 0 0 0 3.817 34.802c.171.962.357 1.898.546 2.848.061.328.118.662.196.998s.134.66.192.985c.03.096.042.192.06.281.042.17.07.343.113.513.01.062.025.118.037.178.049.218.093.446.143.664.126.633.271 1.253.418 1.887.036.226.089.455.146.678l.326 1.419.146.576c.147.622.281 1.215.43 1.826.016.054.025.118.042.17.053.21.108.42.152.625.062.215.112.434.17.657.098.415.216.84.319 1.246.05.219.112.433.179.661.018.089.042.192.069.286s.045.204.074.31c.171.613.338 1.234.505 1.833.237.863.47 1.69.713 2.522l.14.483c.05.197.105.385.171.59.124.452.266.892.391 1.32.118.403.244.788.358 1.178.034.133.074.265.121.394l.249.78c.162.506.311.993.473 1.5.091.266.174.525.253.771.152.478.317.963.472 1.42.128.363.247.722.374 1.085.377 1.12.764 2.223 1.161 3.286.175.502.359 1.009.545 1.493.297.828.605 1.629.92 2.433l.762 1.94.384.944c.121.314.248.621.385.922.255.624.497 1.231.767 1.83a103.581 103.581 0 0 0 1.593 3.651c.184.406.354.793.53 1.171a165.846 165.846 0 0 0 3.281 6.717c.218.425.428.843.642 1.233.373.724.738 1.408 1.115 2.077.07.118.136.244.211.375.491.912.989 1.772 1.453 2.591.252.443.498.86.743 1.276a117.31 117.31 0 0 0 4.792 7.456c.154.232.319.446.466.65.651.91 1.135 1.547 1.427 1.9l.008.006c.075.11.148.183.187.235.036.037.07.076.1.117z" fill="#fff"/><path d="M1353.612 1591.805c70.155-33.828 81.178-98.35 86.611-137.784 4.242-30.775 13.337-29.618 17.318-45.959 4.945-20.288-4.866-34.375 5.942-61.027 6.248-15.407 27.887-34.519 43.516-38.342-11.286-5.813-36.486-11.455-52-18 0 0-63.795-24.395-64-24-5 8-.914 14.341-4.293 34.608-5.341 32.033-32.631 77.926-39.574 93.283-13.911 30.772-15.01 53.469-16.813 71.253a104.25 104.25 0 0 0-.158 1.706c-.029.278-.052.547-.076.815a156.01 156.01 0 0 0-.536 7.959 281.539 281.539 0 0 0-.238 11.189c-.003 1.216.012 2.404.017 3.583.022 1.85.076 3.683.138 5.499.023.554.029 1.099.052 1.652a246.297 246.297 0 0 0 3.817 34.802c.171.962.357 1.898.546 2.848.061.328.118.662.196.998s.134.66.192.985c.03.096.042.192.06.281.041.17.07.343.113.513.01.062.025.118.037.178.049.218.093.446.142.664.126.633.271 1.253.418 1.887.036.226.089.455.146.678l.326 1.419.146.576c.147.622.281 1.215.43 1.826.016.054.025.118.042.17.054.21.108.42.152.625.062.215.112.434.17.657.098.415.216.84.319 1.246.05.219.112.433.179.661.018.089.041.192.068.286s.045.204.074.31c.171.613.338 1.234.505 1.833.237.863.47 1.69.713 2.522l.14.483c.05.197.105.385.171.59.124.452.266.892.391 1.32.118.403.244.788.358 1.178.034.133.074.265.121.394l.249.78.108.378c.123.371.241.752.364 1.124.091.265.174.525.253.77.152.478.317.963.472 1.42.128.363.246.722.374 1.085.377 1.12.764 2.223 1.161 3.286.175.502.359 1.009.545 1.493.297.828.605 1.629.92 2.433l.761 1.94.384.944c.121.314.248.621.385.922.255.624.497 1.231.767 1.83a103.597 103.597 0 0 0 1.592 3.651c.184.406.354.793.53 1.171a165.846 165.846 0 0 0 3.281 6.717c.218.424.428.843.642 1.233.373.724.738 1.408 1.115 2.077.079.124.145.25.219.381z" fill="#5b2448"/><path d="M1383.827 1360.366a3 3 0 0 1-2.414-4.778c15.798-21.46 24.213-25.094 39.489-31.689 3.929-1.696 8.383-3.619 13.544-6.115 22.865-11.06 26.713-20.065 26.749-20.155.557-1.561 2.265-2.343 3.822-1.791 1.561.557 2.364 2.302 1.809 3.862-.4 1.124-4.637 11.329-29.767 23.484-5.278 2.554-9.795 4.503-13.779 6.224-14.781 6.382-22.2 9.585-37.035 29.737a2.997 2.997 0 0 1-2.418 1.221z" fill="#fff"/><path d="M1353.603 1594.312a2.497 2.497 0 0 1-2.117-3.82l.005-.008c.25-.4.609-.722 1.034-.927 67.607-32.601 80.052-84.577 83.34-126.218 1.507-19.083 5.774-27.253 10.293-35.902 3.206-6.138 6.521-12.483 8.97-23.498 1.732-7.787 1.328-14.528.899-21.665-.6-9.985-1.22-20.31 4.184-33.728 13.355-33.164 44.356-41.44 45.669-41.776a2.497 2.497 0 0 1 3.042 1.802 2.5 2.5 0 0 1-1.802 3.042c-.295.076-29.888 8.05-42.271 38.8-4.983 12.374-4.424 21.693-3.831 31.561.43 7.167.875 14.579-1.01 23.051-2.592 11.658-6.062 18.302-9.419 24.727-4.275 8.185-8.313 15.915-9.74 33.981-3.393 42.96-16.245 96.59-86.089 130.297a2.515 2.515 0 0 1-1.157.281z" fill="#5b2448"/><path d="M1488.949 1394.555c-2.329 0-4.547-.532-6.56-1.65-9.593-5.329-10.357-21.654-1.741-37.166 3.993-7.188 9.424-13.057 15.292-16.526 6.287-3.716 12.391-4.295 17.183-1.634 4.794 2.663 7.526 8.15 7.692 15.452.155 6.815-1.958 14.527-5.951 21.715-6.809 12.256-17.145 19.808-25.915 19.809zm17.625-53.618c-2.436 0-5.194.868-8.09 2.58-5.115 3.023-9.897 8.227-13.465 14.649-7.014 12.626-7.105 26.532-.202 30.367 6.906 3.839 18.663-3.593 25.676-16.216 3.568-6.424 5.459-13.232 5.323-19.173-.124-5.454-1.942-9.43-5.121-11.195-1.219-.677-2.607-1.012-4.121-1.012z" fill="#5b2448"/><path d="M1362.777 1608.531a2.502 2.502 0 0 1-1.921-.899 2.825 2.825 0 0 1-.185-.222 2.462 2.462 0 0 1-.142-.172 56.446 56.446 0 0 1-1.991-2.693 121.487 121.487 0 0 1-4.883-7.594c-.255-.434-.507-.868-.763-1.315a164.827 164.827 0 0 1-1.691-3 82.465 82.465 0 0 1-1.144-2.14 31.55 31.55 0 0 1-.658-1.269 156.246 156.246 0 0 1-3.308-6.782 38.546 38.546 0 0 1-.552-1.204 130.2 130.2 0 0 1-1.613-3.693c-.381-.89-.779-1.828-1.163-2.793l-.38-.935c-.18-.445-.354-.896-.53-1.351l-.239-.616c-.318-.809-.629-1.629-.94-2.472l-.174-.471a47.362 47.362 0 0 1-.389-1.071 136.14 136.14 0 0 1-1.166-3.309c-.12-.339-.258-.731-.386-1.141a60.094 60.094 0 0 1-.465-1.388 57.416 57.416 0 0 0-.243-.739l-.487-1.545c-.251-.784-.496-1.58-.738-2.385l-.147-.489c-.089-.294-.179-.589-.261-.889-.096-.301-.21-.69-.317-1.089-.231-.785-.47-1.633-.709-2.503-.225-.817-.45-1.647-.664-2.48-.158-.588-.319-1.214-.48-1.84l-.178-.717a93.72 93.72 0 0 1-.651-2.694c-.045-.179-.098-.389-.143-.594-.159-.665-.321-1.37-.481-2.098l-.105-.477c-.154-.697-.311-1.402-.456-2.109a106.683 106.683 0 0 1-.408-1.977 24.263 24.263 0 0 1-.204-1.036c-.184-.92-.374-1.878-.547-2.849a248.243 248.243 0 0 1-3.849-35.155 38.785 38.785 0 0 1-.048-1.348l-.009-.331a273.337 273.337 0 0 1-.137-5.529c-.011-1.196-.019-2.39-.024-3.604.002-3.686.084-7.486.243-11.311.105-2.579.288-5.3.544-8.084 1.374-14.796 4.108-33.753 19.259-71.663a2.5 2.5 0 0 1 4.643 1.855c-14.902 37.29-17.581 55.823-18.923 70.268a155.169 155.169 0 0 0-.526 7.83c-.157 3.758-.237 7.49-.239 11.094.006 1.194.014 2.38.024 3.557.025 1.817.07 3.632.134 5.432l.01.364c.01.408.02.819.044 1.232a243.63 243.63 0 0 0 3.774 34.506c.169.948.354 1.873.538 2.798.062.34.117.642.185.94a122.118 122.118 0 0 0 .413 2.001c.141.683.292 1.364.441 2.037l.106.481a115.888 115.888 0 0 0 .6 2.587c.212.935.418 1.787.634 2.623l.162.655c.174.677.33 1.286.491 1.886.214.834.434 1.637.649 2.425.23.839.461 1.659.699 2.468.106.391.203.72.303 1.042.094.336.171.588.247.839l.158.522c.228.761.465 1.527.707 2.286l.473 1.501c.081.235.168.503.255.772.147.459.302.92.454 1.356.133.424.249.752.362 1.069.386 1.143.769 2.221 1.149 3.265.129.369.249.692.367 1.011l.178.482c.298.801.597 1.592.904 2.375l.246.634c.167.432.333.86.503 1.28l.384.947c.374.938.757 1.838 1.13 2.71a124.544 124.544 0 0 0 1.573 3.602c.177.401.343.765.513 1.12a154.11 154.11 0 0 0 3.243 6.65c.219.44.414.817.615 1.186.388.755.75 1.421 1.107 2.072.561 1.02 1.115 1.997 1.645 2.916.252.44.494.857.731 1.263a117.334 117.334 0 0 0 4.681 7.279c.161.232.31.439.446.631.26.359.492.675.694.945 14.309-3.228 35.092-13.614 55.552-44.162 37.822-56.459 121.511-211.421 133.536-233.76-58.702-17.92-125.534-42.101-150.953-51.298-3.683-1.332-6.806-2.462-8.445-3.042a2.514 2.514 0 0 1-.748-.177c-2.015-.819-2.738-2.011-2.15-3.542.889-2.314 2.618-1.695 5.758-.57 1.681.601 4.144 1.492 7.287 2.63 25.808 9.337 94.361 34.142 153.624 52.103a2.503 2.503 0 0 1 1.478 3.575c-.94 1.753-94.5 176.062-135.231 236.865-22.134 33.046-44.968 43.58-60.226 46.599-.163.035-.325.05-.486.05zm-1.868-.845a.008.008 0 0 0 .004.004l-.004-.004z" fill="#5b2448"/><path d="M1335.036 1426.595a7.5 7.5 0 0 1-5.008-13.086c35.434-31.745 77.233-27.759 78.997-27.573a7.502 7.502 0 0 1 6.675 8.243c-.433 4.118-4.114 7.122-8.243 6.675-.347-.035-37.092-3.345-67.419 23.827a7.478 7.478 0 0 1-5.002 1.914zm-6.053 36.715a7.475 7.475 0 0 1-5.312-2.205 7.498 7.498 0 0 1 .017-10.606c34.053-33.945 76.794-30.571 78.597-30.416a7.5 7.5 0 0 1-1.307 14.944c-.528-.044-37.799-2.713-66.699 26.096a7.49 7.49 0 0 1-5.296 2.187zm-2.643 35.659a7.47 7.47 0 0 1-5.246-2.142 7.497 7.497 0 0 1-.111-10.605c30.614-31.265 68.166-29.185 69.749-29.08a7.5 7.5 0 0 1 6.994 7.975c-.272 4.135-3.858 7.254-7.975 6.994-.302-.02-32.411-1.579-58.052 24.605a7.478 7.478 0 0 1-5.359 2.253z" fill="#ffcf2d"/><path d="M1072.238 1016.987c-55.783 6.207-133.347 39.465-248.763 112.13l-1.651-2.9a938.286 938.286 0 0 0-2.665-3.187l59.011-87.786 154.057-109.161c11.107 31.439 22.612 58.038 40.011 90.904z" fill="#9b3c82"/><path d="M475.281 874.951c119.506 48.066 281.33 207.037 253.47 238.611-37.444 42.436-170.577-157.264-253.47-238.611z" fill="#5b2448"/><path d="M665.754 1366.297c20.735 43.207 33.633 72.632 33.633 72.632-23.54 44.125-113.753 44.075-113.753 44.075s-34.081-22.816-81.177-63.629c-56.756-49.193-132.417-124.537-190.079-217.613-103.194-166.573 97.528-295.061 156.88-324.841a245.784 245.784 0 0 1 4.027-1.972c209.159 4.361 240.245 191.967 240.245 191.967a384.788 384.788 0 0 1-39.391 16.314c-63.903 22.949-145.287 39.773-145.287 39.773 51.262 75.181 102.591 175.971 134.902 243.294z" fill="#f4ada2"/><path d="m530.85 1123.005.055-.012c-9.013-11.999-19.92-24.898-31.406-37.103a2.5 2.5 0 0 1 3.64-3.428c12.202 12.966 23.76 26.715 33.143 39.384 24.342-5.278 124.605-27.97 179.246-54.932 0 0-31.086-187.606-240.245-191.967-53.569 25.604-266.579 156.238-160.906 326.813 57.663 93.076 133.324 168.42 190.079 217.613 47.096 40.812 81.177 63.628 81.177 63.628s90.213.05 113.753-44.075c0 0-12.897-29.425-33.633-72.631-32.31-67.321-83.639-168.111-134.903-243.29z" fill="none"/><path d="M499.606 1082.356a2.499 2.499 0 0 0-.107 3.534c11.487 12.205 22.394 25.104 31.406 37.103.273-.057 2.149-.447 5.378-1.147-9.383-12.668-20.941-26.418-33.143-39.384a2.503 2.503 0 0 0-3.534-.106z" fill="#9b3c82"/><path d="M699.387 1438.928c-23.54 44.125-113.753 44.075-113.753 44.075s-34.081-22.816-81.177-63.629l161.297-53.078c20.735 43.21 33.633 72.632 33.633 72.632z" fill="#66b0f0"/><path d="m677.947 1392.007-147.987 48.821c3.195 2.607 6.28 5.095 9.262 7.474l142.983-47.17a2880.189 2880.189 0 0 0-4.258-9.125zm-250.329 189.676c8.355 9.809 25.799 23.374 62.127 26.281 66.942 5.363 288.854-1.869 288.854-1.869-6.839-26.745-78.361-167.95-78.432-167.95-16.807 6.226-19.202 21.846-41.642 27.283-23.29 5.643-35.938 5.943-61.948 9.115-31.961 3.897-59.987 13.657-74.309 20.117a140.655 140.655 0 0 0-6.548 3.109 264.472 264.472 0 0 0-8.983 4.777 230.959 230.959 0 0 0-7.126 4.155c-.434.262-.859.515-1.285.777a222.544 222.544 0 0 0-25.909 18.471c-.681.558-1.345 1.125-2.008 1.691-.242.198-.478.396-.707.603s-.469.396-.699.593c-.062.063-.133.117-.195.171-.115.107-.242.207-.354.314-.044.036-.081.073-.124.108-.601.522-1.194 1.05-1.777 1.573-.162.135-.318.279-.478.422-.318.288-.646.585-.969.888a13.37 13.37 0 0 0-.397.369c-.425.386-.84.763-1.256 1.15-.035.036-.081.072-.115.108l-.424.404c-.15.144-.3.279-.451.422-.283.261-.565.539-.849.808-.15.135-.292.279-.442.431a4.465 4.465 0 0 0-.195.18c-.062.063-.141.126-.212.198-.415.413-.831.816-1.237 1.221-.574.565-1.131 1.123-1.678 1.679-.248.242-.485.484-.716.727-.3.296-.583.602-.875.897-.521.538-1.033 1.077-1.534 1.615-.327.35-.653.691-.98 1.042-.168.188-.335.367-.503.547a43.66 43.66 0 0 0-.909 1.005c-.238.26-.468.511-.697.772-.727.798-1.421 1.597-2.092 2.377-.317.368-.646.736-.944 1.095-.52.61-1.023 1.211-1.517 1.811-.404.493-.803.978-1.199 1.463l-.582.727c-.194.233-.379.475-.565.717-.379.476-.749.941-1.11 1.417a111.69 111.69 0 0 0-2.185 2.886c-.237.323-.467.627-.687.941a135.521 135.521 0 0 0-3.876 5.581c-.238.358-.476.707-.695 1.056a83.8 83.8 0 0 0-1.152 1.799c-.572.913-1.108 1.8-1.609 2.641-.237.394-.465.779-.685 1.155a106.91 106.91 0 0 0-3.78 7.103c-.114.233-.219.456-.316.661a47.944 47.944 0 0 0-.874 1.975v.01c-.052.107-.081.196-.105.25a.963.963 0 0 1-.045.131z" fill="#fff"/><path d="M434.827 1568.104c57.961 40.611 125.551 18.483 158.843 4.342 28.713-12.195 38.351 3.176 61.781-4.472 19.569-6.38 25.617-20.465 50.574-23.573 14.992-1.858 44.887 7.387 53.974 15.292.081.062-58.138-114.029-62.04-124.118-15.997 7.079-15.213 19.924-34.955 27.151-16.503 6.042-40.057 7.511-66.062 10.684-31.961 3.897-60.355 14.791-74.677 21.251a141.799 141.799 0 0 0-6.548 3.108 264.472 264.472 0 0 0-8.983 4.777 230.959 230.959 0 0 0-7.126 4.155c-.435.262-.859.515-1.285.777a222.544 222.544 0 0 0-25.909 18.471c-.681.558-1.345 1.125-2.008 1.691a19.82 19.82 0 0 0-.707.603c-.229.207-.469.396-.699.593-.062.063-.133.117-.195.171-.116.107-.242.207-.354.314-.044.036-.081.073-.124.108a81.23 81.23 0 0 0-1.776 1.573c-.162.135-.318.279-.478.422-.318.288-.646.585-.969.888a13.37 13.37 0 0 0-.397.369c-.425.386-.84.763-1.256 1.15-.035.036-.081.072-.115.107l-.424.404c-.15.144-.3.279-.451.422-.283.261-.565.539-.849.808-.15.135-.292.279-.442.431-.061.054-.132.117-.195.18s-.141.126-.212.198c-.415.413-.831.816-1.237 1.221-.574.565-1.131 1.123-1.678 1.679l-.327.323c-.132.134-.256.26-.388.404-.3.296-.583.602-.875.897-.362.36-.706.719-1.033 1.078l-.503.538-.248.252c-.247.269-.494.53-.732.79-.168.188-.335.367-.503.548a43.66 43.66 0 0 0-.909 1.005c-.238.26-.468.511-.697.772-.727.798-1.421 1.597-2.092 2.377-.317.368-.646.736-.944 1.095-.52.61-1.023 1.211-1.517 1.811-.404.493-.803.978-1.199 1.463l-.582.727c-.194.233-.379.475-.565.717-.379.476-.749.941-1.11 1.417-.767.977-1.489 1.938-2.185 2.885-.237.323-.467.628-.687.941a135.521 135.521 0 0 0-3.876 5.581c-.238.358-.476.708-.695 1.056a83.8 83.8 0 0 0-1.152 1.799c-.061.123-.132.23-.202.347z" fill="#5b2448"/><path d="M730.767 1525.365c-5.24 0-18.849-1.328-35.56-13.239-3.932-2.802-7.118-5.513-10.2-8.134-9.338-7.942-16.713-14.216-38.2-16.9a2.998 2.998 0 0 1-2.604-3.349 2.992 2.992 0 0 1 3.349-2.604c23.266 2.906 31.643 10.032 41.343 18.283 2.986 2.539 6.073 5.166 9.796 7.817 18.998 13.543 33.509 12.082 33.654 12.062 1.619-.182 3.13.987 3.324 2.628a2.993 2.993 0 0 1-2.604 3.329c-.14.017-.937.107-2.298.107z" fill="#fff"/><path d="M510.736 1593.815c-28.902 0-54.851-7.924-77.286-23.625a2.498 2.498 0 0 1-1.13-2.089c0-1.381 1.115-2.5 2.496-2.5h.009c.514 0 1.015.158 1.435.452 41.008 28.733 95.101 30.147 156.431 4.094 16.943-7.198 28.353-5.675 38.421-4.33 7.449.992 14.484 1.934 23.175-.681 8.461-2.543 14-6.584 19.865-10.862 7.207-5.258 14.66-10.695 27.471-12.756 32.193-5.169 56.428 13.91 57.442 14.724a2.5 2.5 0 0 1-3.129 3.901c-.231-.185-23.573-18.502-53.521-13.687-11.625 1.869-18.275 6.721-25.317 11.857-5.945 4.338-12.094 8.823-21.372 11.612-9.723 2.923-17.629 1.869-25.276.848-9.889-1.32-20.119-2.684-35.804 3.976-24.871 10.566-48.743 16.808-70.953 18.551-4.382.344-8.702.515-12.957.515z" fill="#5b2448"/><path d="M706.697 1597.664c-7.453 0-14.496-1.71-19.848-4.821-5.811-3.378-9.019-8.029-9.035-13.097-.032-10.1 12.673-18.052 28.924-18.104h.16c16.175 0 28.846 7.851 28.879 17.918.032 10.1-12.673 18.052-28.924 18.104h-.156zm.193-31.021h-.137c-12.999.042-23.962 6.035-23.939 13.088.011 3.219 2.336 6.341 6.548 8.789 4.601 2.675 10.751 4.145 17.334 4.145h.142c12.999-.042 23.962-6.035 23.939-13.088-.023-7.028-10.948-12.934-23.887-12.934z" fill="#5b2448"/><path d="M600.675 1612.933c-45.354 0-87.814-.607-111.136-2.476-36.103-2.89-54.639-16.36-63.831-27.152a2.5 2.5 0 0 1-.431-2.518 2.25 2.25 0 0 1 .08-.212c.016-.044.04-.107.073-.184l.013-.032c.165-.407.471-1.116.926-2.092.102-.219.213-.455.333-.701a110.249 110.249 0 0 1 3.863-7.259c.23-.395.465-.788.707-1.191.503-.847 1.05-1.75 1.633-2.681.381-.605.771-1.225 1.185-1.852a33 33 0 0 1 .722-1.096 138.374 138.374 0 0 1 3.916-5.637c.212-.301.459-.64.718-.979.685-.934 1.423-1.916 2.207-2.915a99.82 99.82 0 0 1 1.7-2.165l.572-.716c.268-.33.532-.651.8-.976l.417-.508a138.12 138.12 0 0 1 1.548-1.849l.287-.335c.224-.26.449-.523.681-.787.67-.778 1.379-1.596 2.123-2.412.207-.237.459-.522.729-.808.245-.282.571-.642.898-.992.183-.196.322-.346.463-.503l1.019-1.085c.513-.549 1.034-1.1 1.567-1.649l.352-.363c.185-.192.37-.385.562-.574.189-.202.449-.465.717-.729.529-.537 1.095-1.104 1.679-1.678.559-.549 1.111-1.093 1.673-1.629.367-.355.757-.728 1.146-1.1l.582-.549a81.986 81.986 0 0 1 1.863-1.726c.104-.101.259-.246.413-.383l.094-.085c.449-.408.892-.811 1.353-1.221a137.089 137.089 0 0 1 1.935-1.71c.41-.363.83-.726 1.258-1.089.202-.184.467-.407.74-.631.636-.543 1.312-1.12 2.006-1.689a225.898 225.898 0 0 1 26.194-18.673c.322-.205.69-.425 1.057-.642l.249-.148a228.26 228.26 0 0 1 4.328-2.562c.939-.54 1.884-1.076 2.847-1.621a267.249 267.249 0 0 1 9.085-4.831 144.902 144.902 0 0 1 6.661-3.162c13.299-5.903 36.603-13.915 72.115-18.561a2.499 2.499 0 1 1 .649 4.957c-34.919 4.569-57.738 12.404-70.732 18.173a138.437 138.437 0 0 0-6.432 3.053 261.4 261.4 0 0 0-8.901 4.732c-.935.529-1.87 1.06-2.795 1.592-1.432.827-2.85 1.667-4.246 2.515l-.274.163c-.321.191-.646.383-.965.586a220.945 220.945 0 0 0-25.66 18.289c-.675.554-1.326 1.109-1.977 1.666a16.84 16.84 0 0 0-.656.558c-.468.398-.87.745-1.263 1.094a1.932 1.932 0 0 1-.098.082l-.076.068a136.68 136.68 0 0 0-1.717 1.521c-.455.405-.884.795-1.319 1.191l-.122.11c-.139.123-.248.228-.358.332a76.609 76.609 0 0 0-1.789 1.657l-.595.561c-.38.362-.76.725-1.133 1.087-.56.533-1.093 1.059-1.618 1.575a137.21 137.21 0 0 0-1.663 1.663c-.255.25-.474.472-.683.692a31.09 31.09 0 0 0-.525.538l-.385.396c-.494.511-.994 1.038-1.485 1.564l-.98 1.043c-.126.142-.289.317-.453.493-.344.368-.635.69-.911 1.004a28.48 28.48 0 0 0-.692.768c-.744.817-1.422 1.598-2.077 2.36-.235.269-.448.517-.659.763l-.286.334c-.503.589-.996 1.18-1.48 1.768l-.424.515c-.257.312-.512.622-.762.931l-.575.719c-.577.712-1.119 1.411-1.644 2.093a110.25 110.25 0 0 0-2.151 2.843c-.246.323-.456.611-.658.898a134.057 134.057 0 0 0-3.831 5.515c-.26.377-.47.698-.671 1.019a83.595 83.595 0 0 0-1.149 1.796 134 134 0 0 0-1.577 2.589c-.238.396-.461.772-.676 1.14a105.438 105.438 0 0 0-3.687 6.927 60.626 60.626 0 0 0-.681 1.461c8.91 9.859 26.314 21.614 59.417 24.264 61.522 4.931 257.288 1.038 285.633.439-11.82-33.236-50.665-109.979-69.653-147.493-9.917-19.592-9.929-19.69-10.024-20.457a2.5 2.5 0 0 1 2.171-2.79 2.488 2.488 0 0 1 2.71 1.779c.496 1.215 4.525 9.176 9.604 19.209 19.684 38.889 60.643 119.81 71.043 151.396a2.503 2.503 0 0 1-2.319 3.282c-1.445.032-94.846 2.095-178.431 2.095zm100.178-175.597a.02.02 0 0 1 .001.007l-.001-.007zm0-.006v.005-.005z" fill="#5b2448"/><path d="M609.929 1527.572a7.498 7.498 0 0 1-6.736-4.193c-.139-.277-15.264-29.875-50.522-39.959a7.5 7.5 0 0 1 4.125-14.421c41.85 11.969 59.143 46.308 59.858 47.764a7.5 7.5 0 0 1-6.725 10.809zm-29.47 11.445a7.5 7.5 0 0 1-6.682-4.084c-.146-.279-15.998-30.069-51.883-38.295a7.5 7.5 0 0 1 3.351-14.621c42.891 9.832 61.128 44.604 61.883 46.08a7.5 7.5 0 0 1-3.258 10.094 7.465 7.465 0 0 1-3.411.826zm-34.018 9.188a7.5 7.5 0 0 1-6.603-3.931c-.126-.229-14.344-25.417-46.558-32.393-4.049-.877-6.62-4.869-5.743-8.917s4.871-6.622 8.917-5.743c39.162 8.48 55.883 38.633 56.575 39.912a7.5 7.5 0 0 1-6.588 11.072z" fill="#ffcf2d"/><path d="M715.529 1066.916a384.556 384.556 0 0 1-39.391 16.313c-54.725-106.131-200.652-208.338-200.652-208.338 3.867-.967 5.513-.367 6.766-.967 209.16 4.365 233.277 192.992 233.277 192.992z" fill="#9b3c82"/><path d="M535.221 38.405a36.035 36.035 0 0 1 31.924-7.49c3.072-36.628 57.204-42.428 66.274-8.117 26.309-32.513 74.725-5.975 68.649 26.768-2.231 12.021-4.912 33.862 4.445 51.051-14.03 10.994-33.956 59.524-33.956 59.524s-66.792-40.261-100.599-56.624c-1.933-6.766-4.294-13.047-4.64-14.5-42.533 2.9-50.653-34.188-32.097-50.612z" fill="#5b2448"/><path d="M581.349 42.774a2.497 2.497 0 0 0 3.522.312 2.501 2.501 0 0 0 .312-3.522c-6.142-7.332-12.04-11.464-17.181-13.721a36.491 36.491 0 0 0-.686 5.177c-.049-.012-.099-.021-.148-.033 4.214 2.075 9.056 5.669 14.181 11.787z" fill="#983c80"/><path d="M555.687 218.214c1.35 9.974 8.79 19.034 20.351 22.566 30.099 9.199 63.527-6.684 63.527-6.684s26.858 26.846 38.441 66.019c0 0 35.935-8.353 109.476-51.814 0 0-39.278-47.634-66.218-79.348 18.358-6.667 35.31-30.409 25.074-55.021-5.839-14.039-23.629-20.578-38.182-14.909-14.952 5.823-22.383 20.76-31.452 36.255-10.253 17.518-16.945 6.23-25.662-7.932-5.6-9.098-12.025-19.383-20.77-23.982-19.765-10.405-58.469-.342-58.469-.342s.919 5.126 1.627 11.656c.936 8.637 1.481 19.721-.978 24.653-4.326 8.655-10.464 8.597-9.646 13.508.702 4.211 6.433 8.302 9.59 9.939 4.102 28.888-19.868 32.166-16.709 55.436z" fill="#f1aa9f"/><path d="M696.27 171.824a2.504 2.504 0 0 0-2.902 2.02 2.501 2.501 0 0 0 2.02 2.902c2.393.429 4.813.609 7.196.609 9.354 0 18.111-2.786 22.157-4.291a1721.697 1721.697 0 0 0-3.461-4.088c-5.369 1.813-15.615 4.534-25.01 2.848z" fill="#983c80"/><path d="M668.087 203.8c-8.46 18.574-28.464 30.266-28.52 30.298.03.03 7.497 7.506 16.248 20.301 1.579-.837 3.307-1.968 5.204-3.441 22.82-17.741 12.342-45.42 7.068-47.158z" fill="#5b2448"/><path d="M695.699 113.91c3.706-5.808 7.431-10.643 10.813-13.293-2.235-4.105-3.777-8.477-4.808-12.916-23.265-5.234-76.075-13.512-134.361 1.415.406 1.575 2.639 7.557 4.517 14.068 14.31-3.453 60.099-11.175 123.839 10.726z" fill="#66b0f0"/><path d="m623.074 122.161-.212-1.607a16.48 16.48 0 0 0-.294-1.448 20.4 20.4 0 0 0-.88-2.749 23.981 23.981 0 0 0-2.75-5.057 25.618 25.618 0 0 0-9.017-7.903 23.307 23.307 0 0 0-5.98-2.221 21.259 21.259 0 0 0-6.433-.413c-2.11.183-4.173.726-6.101 1.603a14.6 14.6 0 0 0-4.994 3.605 4.883 4.883 0 0 0 1.631 7.694l.84.376c1.618.724 2.969 1.136 4.194 1.645 1.225.444 2.291.928 3.285 1.32l5.593 2.367c1.901.817 3.917 1.869 6.184 3.052l3.57 1.905c.619.339 1.271.674 1.939 1.015.329.172.675.339 1.02.502a4.47 4.47 0 0 0 1.017.399l3.352.221a3.813 3.813 0 0 0 4.056-3.554 3.86 3.86 0 0 0-.02-.752zm-10.772 11.322c-4.557-.794-15.542-2.447-25.831-7.218a2.863 2.863 0 0 0-3.804 1.386l-.001.001-.012.028c-1.703 3.736-3.386 10.254 4.042 12.607 9.127 2.892 23.555-.467 26.561-4.502a1.469 1.469 0 0 0-.956-2.302z" fill="#5b2448"/><circle cx="640.459" cy="168.737" fill="#e27280" opacity=".52" r="19.205"/><path d="M721.264 168.953c18.358-6.667 35.31-30.409 25.074-55.021-5.839-14.039-23.629-20.578-38.182-14.909-14.952 5.823-22.383 20.76-31.452 36.255-10.252 17.519 22.075 32.037 44.56 33.675z" fill="#f1aa9f"/><path d="M698.754 151.056a2.5 2.5 0 0 1-2.494-2.714c2.593-30.177 27.624-33.924 27.876-33.958a2.5 2.5 0 0 1 .68 4.954c-.884.126-21.334 3.347-23.574 29.432a2.5 2.5 0 0 1-2.488 2.286z" fill="#983c80"/><ellipse cx="589.549" cy="191.481" fill="#983c80" rx="5.8" ry="9.666" transform="matrix(.5 -.866 .866 .5 128.9474 606.3052)"/><path d="M608.099 823.169c-28.466 7.274-90.694 30.787-132.819 51.783 66.253 24.768 279.264 192.847 253.47 238.611 0 0 35.76-22.144 54.126-32.777 0 0 25.133 31.899 40.599 48.332 74.823-67.813 147.962-104.855 192.895-142.298 13.964-13.33 5.265-40.396 5.265-40.396l16.785-4.953s11.234 17.89 26.211 22.048 39.107-5.824 47.012 2.08c0 0-56.997-74.471-100.265-156.014z" fill="#21a0aa"/><path d="M738.819 1094.498c-16.69-60.253-167.255-182.04-252.386-224.944a575.008 575.008 0 0 0-11.153 5.397c66.253 24.768 279.265 192.847 253.47 238.611 0 0 4.752-2.942 11.667-7.189.109-3.646-.415-7.606-1.598-11.875zm287.799-133.991c-1.648-19.779-42.148-101.322-58.825-134.196a559.433 559.433 0 0 1-9.649 3.089c19.948 39.322 57.137 115.471 58.51 131.937 2.146 25.749-35.054 48.252-82.148 76.742-37.691 22.801-80.162 48.503-117.524 83.891a316.885 316.885 0 0 0 6.495 7.146c.59-.404 1.178-.796 1.767-1.199 36.268-33.991 77.658-59.032 114.438-81.283 50.057-30.281 89.596-54.2 86.936-86.127zm75.643-7.546c-6.657-.59-13.283.13-19.519.807-7.033.765-13.679 1.489-19.527.317-14.131-2.825-23.782-23.75-44.929-69.596-8.26-17.908-18.181-39.413-30.81-65.109a520.208 520.208 0 0 1-9.454 3.438c12.805 26.021 22.846 47.782 31.184 65.86 23.289 50.491 32.929 71.39 52.048 75.214 7.357 1.471 15.09.632 22.569-.183 6.78-.736 13.354-1.447 19.571-.549 3.461-.016 6.286.606 8.101 2.312l.081.037c-.487-.637-3.87-5.085-9.315-12.548z" fill="#fff"/><path d="M708.549 957.184a2 2 0 0 0-.941 2.668c.293.612 27.385 56.918 71.67 123.033a702.75 702.75 0 0 1 3.462-2.02c-44.196-65.944-71.231-122.128-71.523-122.739a2.003 2.003 0 0 0-2.668-.942z" fill="#6cddd9"/><path d="M519.188 445.14S666.18 272.638 788 268.693c121.723-3.943 31.537 305.513-209.077 356.719-129.208 27.497-274.237-99.634-314.322-136.221-24.889-22.717-46.223-49.384-53.689-60.051-62.935-88.536-42.668-98.136-25.601-86.403 34.134 23.467 26.173-.134 22.401-14.934-13.867-54.402-1.067-67.202 9.6-48.001-7.467-36.268 10.667-32.001 22.401 1.067-4.267-18.134 6.4-29.868 23.467 14.934.813-13.008 14.792-7.595 34.803 38.968C316 376.693 325.941 397.928 377 410.693c72 18 142.188 34.447 142.188 34.447z" fill="#f4ada2"/><path d="M529.323 460.975a2.5 2.5 0 0 0 2.209-3.668 452.756 452.756 0 0 0-8.914-16.091c-2.241 2.53-3.43 3.925-3.43 3.925l-.089-.021a452.888 452.888 0 0 1 8.011 14.521 2.501 2.501 0 0 0 2.213 1.334zm-249.612-113.07a2.497 2.497 0 0 0 2.451-3.005c-3.41-16.564-9.822-37.586-15.634-55.146-1.933.399-3.087 2.493-3.333 5.868 5.362 16.458 10.975 35.252 14.071 50.286a2.5 2.5 0 0 0 2.445 1.997zm-41.6 3.199a2.5 2.5 0 0 0 2.433-3.084c-4.31-17.958-16.522-62.881-23.969-90.055-1.413 3.867-1.464 10.857.62 21.249 6.962 25.583 15.132 55.997 18.487 69.972a2.5 2.5 0 0 0 2.429 1.918zm21.333-2.133a2.501 2.501 0 0 0 2.457-2.978c-6.75-34.711-10.43-45.709-17.76-67.62-1.19-3.559-2.494-7.454-3.931-11.814-1.67 2.713-1.949 8.14-.497 14.31l-.112-.309c7.126 21.304 10.767 32.32 17.392 66.389a2.5 2.5 0 0 0 2.451 2.022z" fill="#983c80"/><path d="M691.046 522.07c-26.099-45.432-57.398-66.964-139.561-111.429C566 454.693 598 532.693 631 601.693c33.832-16.433 48.446-70.923 60.046-79.623z" fill="#9b3c82"/><path d="M676.547 296.844S589 369.693 551.485 410.641l55.464 67.93s86.997-138.228 69.598-181.727z" fill="#f94f46"/><path d="M781.91 241.746c-49.298 41.565-103.43 57.031-105.363 55.098-54.132 109.23-83.131 218.459-78.297 376.021 1.986 64.741 9.666 149.828 9.666 149.828 65.734 39.107 257.125 52.198 403.46-13.107-33.24-434.445-229.466-567.84-229.466-567.84z" fill="#f94f46"/><path d="M628.383 371.972a2.497 2.497 0 0 0 3.428-.864c25.158-42.125 38.311-63.765 44.744-74.238l-.009-.025s-4.339 3.56-11.953 10.026c-7.671 12.628-19.42 32.112-37.076 61.673a2.501 2.501 0 0 0 .866 3.428z" fill="#f8b2ad"/><path d="M565.872 450.539c76.334 50.256 149.828 199.127 128.342 236.554-15.246 20.571-88.71 3.171-128.342-236.554z" fill="#5b2448"/><path d="M502.049 505.326S697.692 284.646 779 273.693c137.086-18.467 19 386-241 410-117.239 10.822-222.736-21.942-299.378-56.932-47.102-21.504-138.647-57.883-174.915-72.817-43.779-18.027-50.135-36.268-34.134-37.334-28.801-7.467-32.001-24.534-13.867-27.734-25.601-8.534-18.134-27.734 9.6-24.534-19.201-11.734-12.8-27.734 28.801-21.334 24.249 3.731 61.027 16.831 66.135 7.467 6.4-11.734-10.781-51.464 9.6-46.935 10.671 2.371 25.881 23.014 42.523 39.973 28.634 29.181 42.811 34.726 70.248 37.542 85.599 8.787 259.436 24.271 259.436 24.271z" fill="#f4ada2"/><g fill="#983c80"><path d="M75.975 535.644a2.501 2.501 0 0 0 .685-4.905c-19.78-5.652-35.652-10.489-47.19-14.119-3.467.25-5.87 1.312-7.052 3.01 11.803 3.77 29.663 9.287 52.87 15.917.229.065.46.097.687.097zm3.202-25.601a2.501 2.501 0 0 0 .522-4.946c-28.731-6.171-50.208-12.038-64.089-16.203-3.204.577-5.728 1.592-7.564 2.909 13.418 4.205 37.132 10.994 70.602 18.183.179.038.355.057.529.057zm4.267-27.735a2.5 2.5 0 0 0 .436-4.961c-25.804-4.592-45.044-9.241-58.707-13.092.046.028.087.058.134.086-5.94-.686-10.942-.338-14.896.707 13.317 4.36 36.535 10.804 72.593 17.221.147.026.295.039.44.039zm420.01 25.42 43.731-44.439a664.375 664.375 0 0 1-3.088-3.991l-42.521 43.211-249.798-25.645a376.975 376.975 0 0 0 5.68 5.61l244.803 25.131z"/><path d="M519.01 551.956c-1.12 0-2.14-.759-2.424-1.895-6.043-24.175-16.183-43.586-16.284-43.779a2.498 2.498 0 0 1 1.048-3.376 2.496 2.496 0 0 1 3.376 1.048c.427.811 10.523 20.142 16.712 44.895a2.5 2.5 0 0 1-2.428 3.107z"/></g><path d="M740.344 580.068c-26.099-45.432-114.063-76.364-196.227-120.829 31.899 49.298 81.197 130.496 107.296 187.527 28.587-16.073 77.332-57.998 88.931-66.698z" fill="#9b3c82"/><path d="M808.009 273.645C758.139 251.702 662 338.693 544.118 459.239c173.994 200.092 149.828 228.126 149.828 228.126 118.896-121.797 186.56-381.821 114.063-413.72z" fill="#f94f46"/><path d="M807.802 506.661c26.657-70.284 38.731-139.603 32.3-185.427-3.739-26.636-13.356-43.892-28.585-51.288-29.03-14.101-79.619 9.022-150.357 68.728-45.144 38.103-84.516 79.681-94.628 90.547a72.86 72.86 0 0 0 3.184 3.92c19.643-21.125 178.163-188.543 239.618-158.696 13.445 6.53 22.373 22.951 25.816 47.485 12.772 90.996-49.156 271.255-140.192 357.412.409 4.292-.242 6.497-.675 7.439 44.44-40.3 84.72-104.186 113.519-180.12z" fill="#f8b2ad"/></svg></g></svg>